<svg width="132" height="132" viewBox="0 0 132 132" fill="none" xmlns="http://www.w3.org/2000/svg">
<path d="M66.0344 1C38.8924 1 30.9544 1.028 29.4114 1.156C23.8414 1.619 20.3754 2.496 16.5994 4.376C13.6894 5.821 11.3944 7.496 9.12942 9.844C5.00442 14.126 2.50442 19.394 1.59942 25.656C1.15942 28.696 1.03142 29.316 1.00542 44.844C0.995421 50.02 1.00542 56.832 1.00542 65.969C1.00542 93.089 1.03542 101.019 1.16542 102.559C1.61542 107.979 2.46542 111.389 4.26542 115.119C7.70542 122.259 14.2754 127.619 22.0154 129.619C24.6954 130.309 27.6554 130.689 31.4554 130.869C33.0654 130.939 49.4754 130.989 65.8954 130.989C82.3154 130.989 98.7354 130.969 100.305 130.889C104.705 130.682 107.26 130.339 110.085 129.609C117.875 127.599 124.325 122.319 127.835 115.079C129.6 111.439 130.495 107.899 130.9 102.762C130.988 101.642 131.025 83.785 131.025 65.952C131.025 48.116 130.985 30.292 130.897 29.172C130.487 23.952 129.592 20.442 127.77 16.732C126.275 13.695 124.615 11.427 122.205 9.108C117.904 5 112.644 2.5 106.376 1.596C103.339 1.157 102.734 1.027 87.1944 1H66.0344Z" fill="#FFB74D"/>
<rect x="24" y="24" width="84" height="84" rx="15" stroke="#FFF3E0" stroke-width="12"/>
<mask id="path-3-inside-1_143_865" fill="white">
<rect x="35" y="35" width="29" height="34" rx="6"/>
</mask>
<rect x="35" y="35" width="29" height="34" rx="6" fill="#FFF3E0" stroke="#FFF3E0" stroke-width="20" mask="url(#path-3-inside-1_143_865)"/>
<path d="M66.0344 1C38.8924 1 30.9544 1.028 29.4114 1.156C23.8414 1.619 20.3754 2.496 16.5994 4.376C13.6894 5.821 11.3944 7.496 9.12942 9.844C5.00442 14.126 2.50442 19.394 1.59942 25.656C1.15942 28.696 1.03142 29.316 1.00542 44.844C0.995421 50.02 1.00542 56.832 1.00542 65.969C1.00542 93.089 1.03542 101.019 1.16542 102.559C1.61542 107.979 2.46542 111.389 4.26542 115.119C7.70542 122.259 14.2754 127.619 22.0154 129.619C24.6954 130.309 27.6554 130.689 31.4554 130.869C33.0654 130.939 49.4754 130.989 65.8954 130.989C82.3154 130.989 98.7354 130.969 100.305 130.889C104.705 130.682 107.26 130.339 110.085 129.609C117.875 127.599 124.325 122.319 127.835 115.079C129.6 111.439 130.495 107.899 130.9 102.762C130.988 101.642 131.025 83.785 131.025 65.952C131.025 48.116 130.985 30.292 130.897 29.172C130.487 23.952 129.592 20.442 127.77 16.732C126.275 13.695 124.615 11.427 122.205 9.108C117.904 5 112.644 2.5 106.376 1.596C103.339 1.157 102.734 1.027 87.1944 1H66.0344Z" fill="#FFB74D"/>
<rect x="24" y="24" width="84" height="84" rx="15" stroke="#FFF3E0" stroke-width="12"/>
<mask id="path-6-inside-2_143_865" fill="white">
<rect x="35" y="35" width="29" height="34" rx="6"/>
</mask>
<rect x="35" y="35" width="29" height="34" rx="6" fill="#FFF3E0" stroke="#FFF3E0" stroke-width="20" mask="url(#path-6-inside-2_143_865)"/>
</svg>
