<?xml version="1.0" encoding="UTF-8"?>
<!-- Created with Inkscape (http://www.inkscape.org/) -->
<svg width="200mm" height="131.02mm" version="1.1" viewBox="0 0 200 131.02" xmlns="http://www.w3.org/2000/svg">
 <g transform="translate(-24.994 5.1615)">
  <g transform="translate(-3.5062 -6.9437)">
   <g stroke-width=".13229">
    <path d="m93.284 34.674c0.2018-0.19841 0.3991-0.40131 0.59875-0.60188 0.12225-0.12722 0.2588-0.23823 0.4002-0.34312 0.21766-0.15818 0.44101-0.30741 0.6556-0.4699 0.36723-0.3003 0.71912-0.61906 1.0767-0.93074 0.06122-0.0535 0.12274-0.10672 0.18365-0.16061 0.06216-0.055 0.12293-0.11155 0.18554-0.16604 0.18686-0.1626 0.38362-0.31323 0.57926-0.46496 0.18377-0.13958 0.38647-0.25138 0.59045-0.35819 0.28178-0.13442 0.55738-0.27962 0.83002-0.4316 0.27888-0.14813 0.56543-0.28222 0.85592-0.40594 0.4169-0.16397 0.84455-0.29866 1.2699-0.43854 0.43995-0.14275 0.88122-0.28446 1.3048-0.47176 0.0864-0.0382 0.1712-0.08 0.25681-0.11997 0.36582-0.1903 0.71077-0.42283 1.0214-0.69449 0.15402-0.13472 0.22049-0.20738 0.35999-0.3495 0.27868-0.30376 0.50311-0.6511 0.73902-0.98775 0.15887-0.21366 0.32541-0.42147 0.49505-0.62665 0.067-0.0615 0.12322-0.16952 0.19509-0.22449 8e-4 0 5.5e-4 2e-3 9.5e-4 3e-3 0.01-8e-3 0.02-0.0166 0.0301-0.0248-7e-3 7e-3 -0.0185 0.0123-0.0221 0.0221-2e-3 5e-3 0.0105-2e-3 0.0154-4e-3 0.0196-8e-3 0.0386-0.0174 0.0581-0.0257 0.10517-0.0445 0.21148-0.0862 0.31811-0.12707 0.30889-0.11699 0.63612-0.16969 0.95933-0.2305 0.42851-0.0787 0.85787-0.15244 1.2855-0.23572 0.52165-0.0835 1.0348-0.20697 1.5466-0.33587 0.47284-0.12419 0.94586-0.25564 1.4265-0.34748 0.36875-0.0705 0.47837-0.0746 0.86515-0.11796 0.18936-0.0137 0.37862-0.0289 0.56808-0.0411 0.50959-0.0331 0.83926-0.0462 1.3516-0.0768 0.59945-0.0359 1.1978-0.081 1.7961-0.13233 0.51205-0.0428 1.0208-0.11097 1.5249-0.20962 0.36516-0.0768 0.73365-0.13656 1.1015-0.19891 0.64333-0.10962 1.2919-0.17985 1.9427-0.22498 0.73256-0.0587 1.4634 0.0598 2.1867 0.16145 1.3762 0.20806 2.7542 0.40434 4.1329 0.59495 0.61277 0.0895 1.228 0.17253 1.8338 0.30318 0.26726 0.0576 0.46649 0.11401 0.73132 0.18438 0.5803 0.18388 1.1629 0.37133 1.7173 0.62514 0.0874 0.04 0.17298 0.084 0.25947 0.12598 0.0883 0.0478 0.17721 0.0942 0.26477 0.14321 0.31082 0.17395 0.34725 0.20445 0.67339 0.39428 0.4006 0.23318 0.80315 0.46184 1.2006 0.70052 0.30984 0.19669 0.61495 0.40413 0.89743 0.63907 0.10736 0.0893 0.21179 0.18203 0.31798 0.2727 0.0596 0.0487 0.11966 0.0968 0.17884 0.14592 0.19627 0.16307 0.15044 0.13859 0.40412 0.31796 0.29914 0.21154 0.61651 0.38711 0.93809 0.56132 0.85203 0.42238 1.7714 0.67286 2.6821 0.93162 0.87275 0.22496 1.6911 0.60638 2.5235 0.94308 0.23647 0.0957 0.47454 0.18733 0.71181 0.281 1.4711 0.5676 2.9923 0.98868 4.4987 1.4498 0.74133 0.23554 1.4862 0.4636 2.214 0.7394 0.29759 0.11278 0.46009 0.18553 0.74902 0.30891 0.6222 0.28591 1.213 0.634 1.8174 0.95498 0.82043 0.43487 1.7085 0.71533 2.5939 0.98339 0.72009 0.21426 1.4556 0.3678 2.1893 0.52656 0.28261 0.0589 0.56312 0.12344 0.83976 0.20575 0.28802 0.0828 0.58239 0.13997 0.87353 0.20982 0.27954 0.0665 0.5582 0.13501 0.83418 0.21497 0.2496 0.0671 0.49544 0.14646 0.7413 0.22582 0.26982 0.0793 0.53791 0.1644 0.80594 0.24953 0.1927 0.0644 0.3861 0.12687 0.57864 0.19177 0.21118 0.0766 0.42357 0.14974 0.6373 0.21917 0.22778 0.0748 0.45746 0.14393 0.68881 0.20686 0.15673 0.0428 0.31399 0.0834 0.47095 0.12538 0.10363 0.0333 0.20808 0.0644 0.31285 0.0941 0.16653 0.0526 0.33568 0.0976 0.50481 0.14126 0.13652 0.0401 0.27404 0.0767 0.41215 0.11086 0.0292 7e-3 0.0584 0.0129 0.0875 0.0198 0.0446 0.0104 0.0889 0.0219 0.13334 0.0329 0.0608 0.0151 0.0809 0.0171 0.051 0.0136 0.13372 0.047 0.27226 0.073 0.41286 0.088 0.0846 7e-3 0.16958 9e-3 0.25447 9e-3 0.0345-1.2e-4 0.069 0 0.10348 0 0.26414-0.0152 0.53963-0.079 0.73177-0.28472 0.11638-0.12459 0.18175-0.28851 0.27262-0.43278 0.0153-0.12241 0.11746-0.2002 0.13271-0.32261-0.0767-1.4121-2.1607-1.3482-2.084 0.0639 0.0155-0.11708 0.031-0.23416 0.0466-0.35124 0.0896-0.14016 0.15454-0.29952 0.2687-0.42051 0.16603-0.17595 0.39641-0.24342 0.62482-0.25199-0.0328 1.2e-4 -0.0656 0-0.0983 0-0.0234 4e-5 -0.0469 0-0.0704 0 0.11328 0.0203 0.0697 0.0208-0.0102-9e-3 -0.12612-0.0365-0.25344-0.0684-0.38168-0.0966-0.13089-0.0313-0.26012-0.0691-0.38973-0.10522-0.15596-0.0399-0.3114-0.0821-0.46491-0.13058-0.11241-0.0302-0.22266-0.0678-0.3345-0.1-0.15498-0.0413-0.31025-0.0815-0.46501-0.12377-0.19948-0.0534-0.39689-0.11443-0.59319-0.17845-0.20721-0.0672-0.41292-0.13846-0.61769-0.21268-0.20322-0.0682-0.40701-0.13462-0.61044-0.20216-0.26504-0.0842-0.53004-0.1687-0.79699-0.24666-0.26523-0.0856-0.53055-0.17089-0.79967-0.24369-0.30749-0.0889-0.61773-0.16612-0.92917-0.23995-0.25514-0.0599-0.51211-0.11245-0.76521-0.18094-0.32501-0.0963-0.65411-0.17427-0.98602-0.24322-0.68118-0.14741-1.3645-0.28852-2.0334-0.48621-0.76135-0.22989-1.528-0.46431-2.2349-0.83542-0.65459-0.34746-1.294-0.72559-1.9712-1.0284-0.34439-0.14648-0.49602-0.21487-0.85333-0.34995-0.75905-0.28694-1.5354-0.52571-2.3085-0.7709-1.4562-0.44561-2.9269-0.85193-4.35-1.3978-0.22598-0.0891-0.45276-0.17619-0.67794-0.26727-0.90484-0.36604-1.7962-0.77566-2.7448-1.0202-0.77141-0.21914-1.5516-0.4255-2.2798-0.76836-0.29234-0.15652-0.58925-0.31316-0.85072-0.51946-0.0609-0.0481-0.11805-0.10074-0.17775-0.15032-0.0471-0.0391-0.0951-0.0772-0.14271-0.11581-0.0275-0.0235-0.35911-0.30669-0.36954-0.31526-0.35233-0.28933-0.72936-0.54829-1.1153-0.79033-0.40052-0.24028-0.80596-0.47097-1.2096-0.70591-0.33144-0.19292-0.42091-0.25531-0.74777-0.43627-0.11327-0.0627-0.22846-0.1219-0.34269-0.18286-0.11229-0.0538-0.22347-0.10989-0.33687-0.16127-0.64501-0.29219-1.3204-0.51305-1.9961-0.72144-0.34324-0.0905-0.51261-0.13943-0.86153-0.2142-0.64157-0.13751-1.2926-0.2267-1.9415-0.32109-1.3776-0.19043-2.7544-0.38665-4.1294-0.59445-0.86165-0.1202-1.7314-0.2487-2.6035-0.17591-0.71602 0.0504-1.4298 0.12741-2.1377 0.24827-0.38509 0.0654-0.77083 0.12817-1.1532 0.20837-0.43296 0.0858-0.87023 0.14207-1.3101 0.17934-0.57804 0.0498-1.1562 0.0934-1.7354 0.12804-0.44291 0.0265-0.94557 0.0497-1.3884 0.0792-0.21652 0.0145-0.43278 0.0326-0.64917 0.0488-0.19017 0.0224-0.38093 0.0401-0.5705 0.067-0.67087 0.0953-1.327 0.27342-1.981 0.44593-0.17385 0.0438-0.34702 0.0904-0.52157 0.13129-0.30405 0.0713-0.61214 0.12468-0.91918 0.18096-0.4235 0.0826-0.84884 0.15502-1.2732 0.23334-0.44191 0.0833-0.88656 0.16549-1.3074 0.32936-0.32916 0.12707-0.66487 0.25415-0.94438 0.47538-0.17524 0.15006-0.33118 0.3177-0.47467 0.49834-0.20329 0.24614-0.403 0.49544-0.59142 0.75322-0.17419 0.24879-0.34064 0.50423-0.53323 0.73928-0.0601 0.0624-0.14097 0.14855-0.20586 0.20712-0.181 0.16337-0.38308 0.30409-0.59537 0.4234-0.43004 0.20492-0.87943 0.36014-1.3341 0.50115-0.48058 0.15803-0.96378 0.31042-1.4331 0.50018-0.35342 0.15219-0.70321 0.31415-1.0418 0.49728-0.08381 0.0467-0.16655 0.0953-0.25104 0.14081-0.17639 0.0949-0.36095 0.17387-0.53759 0.26836-0.30648 0.16221-0.60897 0.33447-0.88384 0.54721-0.16479 0.12782-0.32995 0.25504-0.49042 0.38831-0.23264 0.19322-0.15224 0.12907-0.36527 0.31757-0.06006 0.0532-0.12074 0.1056-0.18111 0.15841-0.32392 0.28235-0.64394 0.56943-0.97272 0.84603-0.20955 0.16004-0.43124 0.30248-0.64259 0.4601-0.2187 0.16417-0.42991 0.33809-0.62076 0.53455-0.19403 0.19503-0.25871 1.525-0.45475 1.718-0.28651 1.7666 0.54579 0.95809 1.2736 0.2942z" fill="#fff"/>
    <path d="m103.27 64.51c0.18909 0.0667 0.38652 0.11418 0.58612 0.13586 0.0508 6e-3 0.10186 8e-3 0.15279 0.0123 0.1787 0.01 0.35715 0 0.5344-0.0233 0.0307-7e-3 0.0615-6e-3 0.0926-7e-3 0.0696 0 0.1389-2e-3 0.20843-5e-3 0.0908-7e-3 0.16477-0.0241 0.25836-0.0477 0.0241-6e-3 0.047-0.0159 0.0705-0.0239 5e-3 -1e-3 0.0196-7e-3 0.0146-5e-3 -0.0461 0.0129-0.092 0.0266-0.13794 0.04-0.0179 3e-3 -0.0357 6e-3 -0.0536 9e-3 -2.7e-4 0-1e-3 1e-3 -6.5e-4 1e-3 0.16018-9e-3 0.31729-0.0368 0.47487-0.0657 0.35291-0.0717 0.70648-0.13937 1.0608-0.20359 0.30249-0.0579 0.60953-0.0798 0.9167-0.0921 0.27408-0.0135 0.54827-0.0211 0.82198-0.041 0.30286-0.028 0.60539-0.0598 0.90724-0.0972 0.47713-0.0596 0.95313-0.12756 1.4306-0.18388 0.79905-0.0962 1.6013-0.16118 2.4027-0.23389 0.7503-0.0728 1.4994-0.15681 2.2494-0.23188 0.72186-0.0701 1.4478-0.0738 2.1723-0.0815 0.67908-5e-3 1.3591-6e-3 2.037-0.0518 0.10283-7e-3 0.20547-0.0165 0.3082-0.0248 0.48241-0.0525 0.96472-0.10254 1.4494-0.12852 0.60717-0.0246 1.215-0.0232 1.8226-0.0246 0.49288 4e-3 0.98604-8e-3 1.4788 5e-3 0.39505 0.0101 0.47654 0.019 0.87993 0.044 1.1689 0.0738 2.3322 0.21115 3.4923 0.36855 0.61436 0.0883 1.2277 0.18563 1.8365 0.30721 0.29827 0.0596 0.37327 0.079 0.66735 0.14655 0.95805 0.22762 1.9131 0.46741 2.8672 0.71092 0.44681 0.11536 0.88877 0.25011 1.3173 0.42192 0.18239 0.0731 0.38841 0.16662 0.5678 0.24631 0.52474 0.24419 1.0398 0.50825 1.5602 0.76155 0.40262 0.19124 0.8086 0.37517 1.2153 0.55762 0.23461 0.10659 0.46668 0.21884 0.69819 0.33199 0.24215 0.12401 0.48897 0.23844 0.73347 0.35764 0.19848 0.10225 0.40434 0.19281 0.59472 0.31024 0.0452 0.0279 0.33638 0.22935 0.33912 0.23123 0.54521 0.37749 1.1159 0.71617 1.6972 1.0345 0.34923 0.19055 0.70904 0.36044 1.0686 0.53023 0.17377 0.0828 0.35272 0.15379 0.52448 0.24072 0.15967 0.0755 0.31907 0.15159 0.47838 0.22791 0.0835 0.042 0.16841 0.0814 0.25103 0.12513 0.0916 0.0454 0.18209 0.0929 0.2747 0.13634 0.0815 0.0396 0.16374 0.0774 0.2477 0.11145 0.066 0.0275 0.13466 0.0473 0.20334 0.0668 1.3661 0.36574 1.8833-1.5662 0.51725-1.932 0.01 4e-3 0.0216 7e-3 0.0308 0.0117-0.018-7e-3 -0.10653-0.0464-0.16035-0.0736-0.066-0.0274-0.12596-0.0671-0.19161-0.0956-0.10224-0.0527-0.20564-0.10303-0.30878-0.15395-0.14765-0.0707-0.29518-0.14163-0.44355-0.21081-0.18704-0.0937-0.37915-0.17567-0.56938-0.26261-0.32382-0.1529-0.64822-0.30513-0.9629-0.47642-0.52253-0.28541-1.0352-0.58962-1.525-0.9287-0.17177-0.11767-0.31326-0.21827-0.49124-0.32593-0.22486-0.13601-0.46467-0.24578-0.69862-0.36467-0.24402-0.11879-0.49016-0.23315-0.73179-0.35682-0.25106-0.12249-0.50256-0.2443-0.75703-0.35954-0.38763-0.17391-0.77465-0.34915-1.1586-0.53113-0.54167-0.26364-1.0776-0.5391-1.6247-0.79154-0.24158-0.10698-0.42576-0.19119-0.67311-0.28948-0.49759-0.19775-1.0102-0.35426-1.5283-0.48837-0.97-0.24757-1.9409-0.4913-2.915-0.72251-0.33-0.0755-0.40596-0.0952-0.74009-0.1618-0.64372-0.12821-1.2922-0.23124-1.9418-0.32437-1.2088-0.16371-2.4208-0.30636-3.6386-0.38293-0.45753-0.0277-0.52988-0.0364-0.9779-0.0476-0.50242-0.0126-1.0052 0-1.5077-5e-3 -0.64228 1e-3 -1.2849 0-1.9267 0.0275-0.50267 0.0276-1.0034 0.0758-1.5036 0.1322-0.73292 0.0607-1.4685 0.0691-2.2036 0.0701-0.78397 8e-3 -1.5693 0.0143-2.3503 0.0913-0.74389 0.0745-1.4868 0.15759-2.2309 0.23014-0.81954 0.0743-1.6399 0.14103-2.457 0.23956-0.48137 0.0571-0.96136 0.12478-1.4423 0.1853-0.2692 0.0336-0.53908 0.0615-0.80912 0.0874-0.25168 0.0194-0.50411 0.0233-0.75613 0.0372-0.399 0.0169-0.79764 0.048-1.1906 0.12247-0.357 0.0647-0.71331 0.13249-1.0688 0.20505-0.0579 0.0109-0.11773 0.0254-0.17656 0.0319-0.0443 5e-3 -0.089 5e-3 -0.13325 9e-3 -0.0394 4e-3 -0.0785 0.0104-0.11772 0.0156-0.0603 0.016-0.12076 0.0317-0.18101 0.0481-4e-3 1e-3 -0.0153 5e-3 -0.0114 4e-3 0.0143-5e-3 0.0281-0.0104 0.0427-0.0137 0.0493-0.0113 0.0991-0.0197 0.14862-0.03 4e-3 -2e-3 -0.0169 1e-3 -0.0126 1e-3 8e-3 0 0.0159-1e-3 0.0238-2e-3 0.0196 0 0.0392 0 0.0588-1e-3 8e-3 0-0.0169-1e-5 -0.0254 0-0.0459 6e-5 -0.0918 0-0.13768 1e-3 -0.10061 3e-3 -0.20124 8e-3 -0.30087 0.0232-0.0494 7e-3 -0.0954 0.0118-0.1485 0.0102-0.0279 0.01-0.14735-0.019-0.18207-0.032-1.3293-0.48268-2.0119 1.3972-0.6826 1.8799z" fill="#b9e1ec"/>
    <path d="m104.34 62.153c-0.207 0.0743-0.40112 0.17875-0.60306 0.26485 8e-4 0.0118-0.1667 0.0479-0.0943 0.0296 0.10892-9e-3 -0.0353-0.0127-0.0556-0.0145-0.0239-8e-3 -0.14097-4e-3 -0.0248-2e-3 8e-3 1.3e-4 -0.0165-2e-3 -0.0247-4e-3 -0.0468-7e-3 -0.0409-6e-3 -0.09-0.0123-0.0782-0.01-0.15694-0.0148-0.23573-0.0169-0.1082-5e-3 -0.21613 7e-3 -0.32254 0.0258-0.0417 7e-3 -0.0565 0.011-0.11478 0.0231-1.3735 0.33696-0.89694 2.2794 0.47653 1.9424-0.14452 0.0276-0.0398 8e-3 -7e-3 3e-3 4e-3 -1e-3 0.0171-2e-3 0.0128-2e-3 -0.0427-1e-3 -0.1892 0.0101-0.0947 8e-3 0.0113 1e-4 0.0225-8e-5 0.0337 1e-3 0.0708 8e-3 0.14097 0.0219 0.21223 0.0257 0.16459 0.0147 0.3305 0.0277 0.49518 5e-3 0.21685-0.0327 0.42855-0.0889 0.62971-0.17788 0.095-0.0416 0.18868-0.0855 0.28288-0.12884 0.0276-0.0127 0.12598-0.0572 0.15618-0.0732 1.3417-0.44705 0.70946-2.3445-0.63223-1.8974z" fill="#b9e1ec"/>
   </g>
   <g transform="matrix(.5 0 0 .5 110.04 -59.276)" stroke-width=".26458">
    <g fill="#00ad68">
     <path d="m-31.67 206.72c-5.56e-4 0-0.0011 3e-3 -0.0017 3e-3 -0.0048 8e-3 -0.0094 0.0159-0.01429 0.0238-3.97e-4 0-0.0017 3e-3 -0.0016 3e-3 2.92e-4 -3e-3 0.0035-6e-3 0.0021-5e-3 -0.01016 0.0124-0.0052 8e-3 -0.01362 0.0146-0.0087 0.0101-0.01722 0.0204-0.02611 0.0305-0.02108 0.0238-0.03724 0.04-0.05976 0.0628-0.05312 0.0538-0.10732 0.10637-0.16185 0.1587-0.01961 0.0185-0.0391 0.037-0.05883 0.0554-0.01615 0.0151-0.03248 0.0298-0.04879 0.0446-0.01551 0.014-0.05289 0.0485-0.07353 0.0652-4.49e-4 0 1.71e-4 0 5.56e-4 -3e-3 2e-3 -3e-3 0.0043-4e-3 0.0065-6e-3 0.07327-0.0581 0.15484-0.10523 0.23876-0.14611 0.0046-3e-3 0.01855-8e-3 0.0138-6e-3 -0.01861 7e-3 -0.03639 0.0159-0.05461 0.0238-0.0046 3e-3 0.01852-5e-3 0.01371-6e-3 -5e-3 -3e-3 -0.0095 4e-3 -0.01432 6e-3 -0.0017 0-0.0033 0-5e-3 3e-3 -0.13321 0.0544-0.26223 0.1193-0.38447 0.19529-0.02696 0.0167-0.05349 0.0342-0.08024 0.0513-0.07919 0.053-0.15749 0.10766-0.23224 0.16685-0.07803 0.0618-0.09063 0.0739-0.15931 0.13366-0.08696 0.076-0.16666 0.15947-0.24508 0.24403-0.02569 0.0277-0.05066 0.0561-0.07688 0.0833-8.47e-4 0-0.0018 0-0.0025 3e-3 -0.04999 0.0482-0.09769 0.0987-0.14872 0.14584-0.0758 0.0665-0.15205 0.13255-0.22828 0.19862-0.07088 0.0579-0.14312 0.11409-0.21533 0.17029-0.05621 0.0442-0.11261 0.0883-0.1689 0.13242-0.07212 0.0555-0.1413 0.11454-0.20892 0.17539-0.0862 0.0788-0.16676 0.16378-0.2403 0.25453-0.04404 0.0543-0.05396 0.0695-0.09519 0.12613-0.08829 0.12636-0.1621 0.25958-0.22277 0.40177-0.02766 0.0649-0.05025 0.13179-0.07213 0.19878-0.02867 0.0878-0.03987 0.14944-0.0586 0.23693-0.53194 2.7779 3.3966 3.5302 3.9286 0.75229-0.01585 0.0723-0.02543 0.12351-0.04974 0.19627-0.01986 0.0594-0.04022 0.11885-0.06517 0.17635-0.05294 0.12199-0.11566 0.2359-0.19216 0.34406-0.01151 0.0156-0.02276 0.0315-0.03454 0.0469-0.0621 0.0814-0.13153 0.15725-0.20748 0.22588-0.01424 0.0124-0.02874 0.0246-0.0435 0.0364-7.94e-4 0 0.0015-3e-3 0.0024-3e-3 0.0051-4e-3 0.01024-8e-3 0.01537-0.0122 0.0054-4e-3 0.01085-8e-3 0.01628-0.013 0.05112-0.0405 0.1029-0.0801 0.15395-0.12073 0.12766-0.0994 0.25528-0.19897 0.37825-0.30416 0.12091-0.10486 0.24267-0.20881 0.35984-0.31787 0.10613-0.10129 0.21061-0.20431 0.31269-0.30967 0.07563-0.0809 0.02787-0.0293 0.07944-0.0856 0.01052-0.0114 0.02128-0.0228 0.0316-0.0344 2e-3 -3e-3 -0.0045 4e-3 -0.0067 6e-3 -0.03788 0.0357-0.01797 0.0177-0.05318 0.0484-0.01495 0.01 4e-3 -3e-3 -0.03574 0.0273-0.0048 4e-3 -0.0099 7e-3 -0.01488 0.0106-0.0013 0-5e-3 4e-3 -0.0041 3e-3 0.0011-3e-3 0.0034-3e-3 0.0048-3e-3 8.73e-4 0-0.0022 0-0.0034 3e-3 -0.01237 8e-3 -0.02466 0.0153-0.03712 0.023-0.06026 0.0364-0.12423 0.0668-0.18925 0.0936 0.0668-0.0273 0.13315-0.0556 0.19905-0.085 0.06914-0.0323 0.09598-0.0438 0.16818-0.0824 0.13395-0.0716 0.26156-0.15471 0.38177-0.24752 0.08253-0.0649 0.09203-0.0711 0.17477-0.14171 0.11244-0.096 0.21984-0.19783 0.32738-0.29922 0.07919-0.0765 0.11961-0.1147 0.19749-0.19341 0.15024-0.15187 0.29518-0.30919 0.42737-0.47718 0.03282-0.0429 0.06634-0.0852 0.09847-0.12858 0.08345-0.11272 0.15984-0.23054 0.23074-0.35148 1.4277-2.4416-2.0252-4.4607-3.453-2.0191z"/>
     <path d="m-25.022 206.92c1.1808-0.88847 2.4214-1.6942 3.6611-2.497 1.1481-0.74789 2.2924-1.5024 3.4212-2.2792 0.99494-0.68472 1.9785-1.3868 2.9647-2.084 0.46581-0.32089 1.1818-0.8241 1.6698-1.1219 0.59509-0.3632 1.1582-0.65858 1.7934-0.94639 0.87353-0.39571 1.0466-0.43267 1.9532-0.74766 2.0612-0.61595 4.1693-1.0566 6.2681-1.5218 1.7329-0.36947 3.447-0.81658 5.1566-1.28 1.0051-0.26715 1.9973-0.57896 2.9948-0.87235 0.52082-0.16426 1.0471-0.30753 1.5815-0.41977 0.60323-0.12535 1.2027-0.26749 1.8033-0.40481 0.23414-0.051 0.46708-0.10723 0.70029-0.16229 2.7527-0.64985 1.8337-4.5428-0.91905-3.893-0.22427 0.0529-0.44824 0.10724-0.67346 0.15602-0.58016 0.13283-1.1593 0.27017-1.7421 0.39135-0.63419 0.13576-1.2613 0.29948-1.8798 0.49519-0.96992 0.28562-1.9349 0.58862-2.9121 0.84897-1.6496 0.44723-3.3034 0.8795-4.9756 1.2354-2.2548 0.49975-4.5203 0.97272-6.7293 1.6535-1.0974 0.3895-1.342 0.44797-2.3954 0.93366-0.80834 0.37272-1.4587 0.72343-2.2163 1.1879-0.30464 0.18677-0.59992 0.38846-0.89644 0.58785-0.29925 0.20125-0.59384 0.40934-0.89076 0.614-0.96435 0.6818-1.9259 1.3687-2.8987 2.0384-1.1062 0.76144-2.2276 1.5009-3.3528 2.2338-1.3316 0.86302-2.6638 1.7298-3.9301 2.6874-2.2392 1.728 0.20459 4.8947 2.4438 3.1667z"/>
     <path d="m-28.199 208.68c0.75461-0.35483 1.5339-0.65315 2.3137-0.94713 0.52473-0.19235 0.27508-0.10266 0.74863-0.27001 2.6664-0.94334 1.3323-4.7143-1.3341-3.7709-0.52854 0.1872-0.25288 0.088-0.82667 0.29853-0.89336 0.3374-1.7854 0.68146-2.6486 1.0913-2.5443 1.2354-0.79725 4.8336 1.7471 3.5982z"/>
     <path d="m11.872 192.41c1.9264 0.0266 3.8488 0.20582 5.7674 0.37095 1.7681 0.14938 3.5343 0.32019 5.3059 0.42386 0.17362 8e-3 0.3472 0.0169 0.52087 0.0238 0.40092 0.0159 0.80184 0.0228 1.2018 0.0569 0.25093 0.0214 0.50107 0.0514 0.75159 0.0772 0.51011 0.0753 1.0224 0.14697 1.527 0.25508 0.09942 0.0214 1.0067 0.24085 1.0104 0.24175 1.7175 0.47482 3.442 0.92192 5.1731 1.3442 1.3632 0.3287 2.7344 0.62537 4.087 0.9965 0.59867 0.14473 1.156 0.40482 1.7203 0.64374 0.74701 0.30138 1.5091 0.56263 2.2536 0.87042 0.51206 0.22339 0.99217 0.50684 1.4766 0.78275 1.0838 0.61724-0.03974-0.0325 1.0292 0.58859 1.2099 0.72959 2.489 1.3279 3.7736 1.911 0.81615 0.34882 1.6141 0.73959 2.3784 1.1914 0.53681 0.31734 0.97331 0.60111 1.503 0.93763 1.5661 1.0176 3.1687 1.9765 4.79 2.9029 1.3205 0.7517 2.6581 1.4726 3.981 2.22 1.4705 0.80635 2.8229 1.7979 4.1799 2.777 1.2325 0.90834 2.5051 1.7594 3.7756 2.6129 1.1367 0.79796 2.3636 1.4511 3.5769 2.1221 1.4531 0.80253 2.9008 1.6203 4.3987 2.3379 1.1914 0.57073 1.6396 0.74189 2.8545 1.2528 1.2666 0.49588 2.5577 0.92628 3.8512 1.3458 0.28724 0.0932 0.57313 0.19111 0.86371 0.27323 0.41431 0.11708 0.89076 0.21252 1.3162 0.30292 0.76948 0.14891 1.5383 0.30261 2.3174 0.39164 0.2175 0.0287 0.43913 0.0423 0.65449 0.0863 0.04018 8e-3 0.07835 0.0243 0.11758 0.0362 0.34075 0.10367 0.13836 0.0382 0.50069 0.16145 0.51694 0.17696 1.0318 0.35806 1.5371 0.56634 0.8078 0.32533 1.6007 0.68403 2.3836 1.065 0.78615 0.40304 1.558 0.83325 2.3359 1.2518 0.34655 0.17177 0.16692 0.0898 0.53958 0.24442 2.6369 1.023 4.0836-2.7062 1.4467-3.7292 0.06151 0.0423 0.03519 0.0222-0.09175-0.0381-0.82625-0.44411-1.6451-0.90237-2.4819-1.3266-0.85852-0.41679-1.7274-0.81078-2.6128-1.1676-0.58836-0.24082-1.1861-0.45521-1.788-0.65971-0.31338-0.10358-0.51176-0.17531-0.83219-0.25659-0.4176-0.10594-0.84218-0.1683-1.2706-0.20968-0.64904-0.0668-1.2861-0.21535-1.9278-0.32906-0.1067-0.0225-0.82587-0.17172-0.93847-0.20352-0.27368-0.0773-0.54301-0.16931-0.81354-0.25702-1.1945-0.3873-2.3873-0.78317-3.5588-1.2363-1.0742-0.45014-1.556-0.63649-2.6051-1.1379-1.4517-0.69379-2.8528-1.4881-4.2606-2.265-1.1126-0.61526-2.2408-1.2091-3.2823-1.9421-1.2335-0.8286-2.4694-1.654-3.6657-2.5363-1.4769-1.0656-2.9534-2.1377-4.5531-3.016-1.3174-0.74395-2.6487-1.4626-3.964-2.2104-1.5675-0.89543-3.1168-1.8226-4.6306-2.8068-0.59911-0.38005-1.0687-0.68559-1.6791-1.0432-0.86758-0.50829-1.7695-0.95477-2.6932-1.3514-1.1633-0.52769-2.3237-1.0648-3.418-1.7276-0.97935-0.56825-1.9543-1.1518-2.9911-1.6108-0.73353-0.3011-1.4801-0.56706-2.2184-0.85577-0.72823-0.30771-1.4529-0.62868-2.2239-0.81817-1.3887-0.37833-2.794-0.69043-4.1939-1.0241-0.91265-0.22252-1.8241-0.44821-2.7326-0.68734-1.6166-0.42547-0.15298-0.0433-1.7096-0.4641-0.24677-0.0667-0.4944-0.13023-0.74161-0.19532-0.29169-0.0703-0.90148-0.21947-1.202-0.283-0.61525-0.13007-1.2396-0.21801-1.8621-0.30403-0.1844-0.019-0.72141-0.0752-0.89261-0.0893-0.5854-0.0482-1.1728-0.052-1.7591-0.0828-1.7349-0.10081-3.4645-0.27101-5.1961-0.41598-2.0326-0.17468-4.0691-0.3625-6.1102-0.38563-2.8284 0-2.8284 4 0 4z"/>
    </g>
    <path d="m87.76 236.31c0.58453 0.26008 1.1813 0.49757 1.7576 0.77557 0.67615 0.30083 1.305 0.69017 1.9522 1.047 0.58034 0.33115 1.1749 0.63217 1.7804 0.91403 0.30863 0.15102 0.64381 0.23881 0.95978 0.37007-1.4973-0.40402 1.2931-3.7468 1.0356-3.8478-0.14317-0.0561-0.28804-0.0981-0.42801-0.16288-0.28516-0.12793-0.55855-0.28025-0.84182-0.41421-0.17593-0.0728-0.35892-0.12594-0.53783-0.1902-0.02671-0.01 0.09618 0.0491 0.08144 0.0249-0.01609-0.0265-0.0553-0.028-0.08294-0.042-0.40129-0.18314-0.78717-0.39677-1.1785-0.60042-0.77906-0.39349-1.5492-0.79941-2.343-1.1633-1.0868-0.49604-2.179-0.98033-3.2647-1.4788-0.48869-0.25691-1.0335-0.41571-1.4894-0.7331-0.52522-0.35835-1.0928-0.64823-1.6677-0.91686-0.84149-0.37971-1.7458-0.56523-2.644-0.75293-1.0821-0.19952-2.1482-0.4555-3.2009-0.77465-1.0787-0.33102-2.1497-0.68789-3.1922-1.1204-1.0902-0.48961-2.1066-1.126-3.1378-1.7261-1.422-0.78476-2.8737-1.5116-4.293-2.3021-1.2294-0.69197-2.4976-1.3104-3.7353-1.9869-1.2937-0.68903-2.5782-1.3938-3.8265-2.1624-0.89245-0.54549-1.7334-1.1683-2.6153-1.7298-0.42677-0.27173-0.90488-0.5578-1.339-0.82042-0.91712-0.55764-1.8602-1.0708-2.7669-1.6454-0.84289-0.56835-1.6966-1.1151-2.5886-1.6032-0.98448-0.48718-1.9841-0.94094-3.0085-1.3374-0.76618-0.27223-1.5259-0.56168-2.2853-0.85212-0.71273-0.27783-1.4208-0.56731-2.1344-0.84304-1.0358-0.35578-2.084-0.6736-3.1184-1.034-1.0176-0.32737-2.0149-0.70779-3.0024-1.1159-0.9676-0.39727-1.9-0.87238-2.8417-1.3257-1.4395-0.69072-2.9781-1.1374-4.5051-1.5876-1.9823-0.59979-4.0019-1.0683-6.0255-1.5048-1.8403-0.39386-3.6918-0.73199-5.5366-1.1035-0.92818-0.18825-1.8549-0.38095-2.7841-0.56346-0.75732-0.14409-1.5222-0.24291-2.288-0.32885-1.0279-0.11662-2.0614-0.24442-3.0977-0.24963-0.32767-3e-3 -0.65516 0.0153-0.98274 0.023-1.7788 0.0708-3.5477 0.28027-5.3153 0.48146-1.2331 0.13756-2.4653 0.2825-3.6872 0.49935-1.0938 0.25355-2.1822 0.53427-3.2647 0.83243-1.2363 0.31456-2.3897 0.84852-3.5166 1.4338-0.93874 0.53028-1.8685 1.0717-2.8544 1.5105-1.1002 0.4908-2.2598 0.82915-3.41 1.1799-1.279 0.38738-2.5465 0.81254-3.7899 1.3026-0.64754 0.28567-1.3034 0.54885-1.9663 0.79663-0.56042 0.21566-1.1403 0.37304-1.719 0.53049-0.89546 0.23559-1.7877 0.47718-2.6571 0.79685-0.97583 0.38809-1.8891 0.90987-2.7898 1.4452-0.62896 0.40468-1.2226 0.86005-1.805 1.3281-0.34256 0.25596-0.6841 0.51379-1.0146 0.78528-0.45309 0.37775-0.84635 0.81714-1.2071 1.282-0.04214 0.0576-0.08587 0.11417-0.12641 0.17293-0.15273 0.22149-0.29068 0.44805-0.42499 0.68075-0.01172 0.0204 0.0218-0.0415 0.0327-0.0623-0.02721 0.0449-0.05469 0.0896-0.08162 0.13473-0.03225 0.0539 0.0622-0.11038 0.10392-0.15743 0.05351-0.0603 0.12307-0.1075 0.16685-0.17526 0.03194-0.0494-0.08857 0.0775-0.13286 0.11626-0.73299 0.71414 0.17277-0.17238-0.32226 0.31274-0.03125 0.0306 0.12773-0.11962 0.09524-0.0903-0.07156 0.0645-0.143 0.12914-0.2145 0.19372 0.0554-0.0751 0.46385-0.35658 0.08152-0.0892-0.09641 0.0674 0.20164-0.12166 0.30642-0.17518-2.6334 1.0319-1.1741 4.7562 1.4593 3.7242 0.48414-0.22318 0.57484-0.27805 0.96112-0.61164-0.49069 0.41301 0.6816-0.59346 0.20744-0.20296 0.27722-0.23755 0.54826-0.48837 0.72963-0.80987 0.11223-0.18391 0.20059-0.34578 0.34845-0.54805 0.16055-0.24088 0.38121-0.44008 0.59245-0.63463 0.29225-0.26779 0.64058-0.47435 0.94494-0.72806 0.43737-0.35152 0.88154-0.69442 1.3464-1.0095 0.6951-0.41527 1.3983-0.82323 2.1467-1.1362 0.74798-0.28961 1.5328-0.46511 2.3036-0.68276 0.69723-0.18989 1.3943-0.38447 2.0697-0.64355 0.6855-0.25654 1.3654-0.52604 2.0346-0.82288 1.1431-0.45275 2.311-0.83896 3.4871-1.1968 1.3116-0.39997 2.6307-0.79393 3.8836-1.3578 1.0521-0.47659 2.0616-1.0301 3.06-1.6101 0.87757-0.45744 1.7692-0.88739 2.7356-1.1267 0.96336-0.26694 1.9336-0.50998 2.9039-0.75054 1.1379-0.20534 2.2874-0.33078 3.4356-0.46255 1.6554-0.18843 3.3117-0.38687 4.9773-0.45746 0.2327-8e-3 0.46525-0.0254 0.6981-0.0251 0.9454 3e-3 1.8881 0.12251 2.8256 0.22874 0.65666 0.0723 1.3124 0.15721 1.9619 0.27887 0.9225 0.18007 1.8419 0.37346 2.7633 0.55933 1.827 0.3675 3.6603 0.70305 5.483 1.0923 1.9273 0.41495 3.8508 0.86035 5.7386 1.4318 1.3202 0.38812 2.6544 0.76502 3.9016 1.3554 1.01 0.48488 2.0096 0.99412 3.0478 1.4177 1.0578 0.43666 2.1258 0.84513 3.2152 1.1968 0.99268 0.34494 1.9957 0.6576 2.993 0.98798 0.71749 0.27625 1.4284 0.56923 2.1452 0.8472 0.75622 0.28919 1.5125 0.5783 2.2758 0.84846 0.86322 0.33081 1.7015 0.71811 2.5346 1.1183 0.81776 0.44193 1.5886 0.95689 2.3627 1.4705 0.93028 0.58751 1.8929 1.1198 2.8352 1.6876 0.37018 0.22379 0.85974 0.51708 1.224 0.74816 0.91279 0.57904 1.7799 1.2271 2.7055 1.7869 1.3075 0.80266 2.6488 1.5458 4.0038 2.2653 1.2286 0.67064 2.4855 1.287 3.7068 1.9711 1.3975 0.77798 2.8243 1.4982 4.2275 2.2648 1.1875 0.69067 2.36 1.4196 3.6236 1.9663 1.1649 0.47853 2.3564 0.88583 3.5612 1.252 1.1648 0.35081 2.3433 0.63966 3.5398 0.86109 0.59869 0.12499 1.2055 0.23098 1.7744 0.46405 0.40545 0.18762 0.80731 0.38775 1.1748 0.64368 0.63414 0.40336 1.3158 0.70911 2.0011 1.0149 1.0879 0.49932 2.182 0.98465 3.2709 1.4816 0.73299 0.33369 1.4404 0.71316 2.1601 1.074 0.38182 0.19841 0.75898 0.40756 1.1488 0.58996 0.0079 4e-3 -0.01371-0.0108-0.02053-0.0161 0.28624 0.14798 0.58164 0.29067 0.8928 0.37926 0.02236 6e-3 -0.04188-0.0201-0.06282-0.0303-0.01939-0.0116-0.07835-0.0457-0.05818-0.0353 0.24364 0.12525 0.48228 0.25926 0.73018 0.37658 0.06289 0.0298 0.12785 0.055 0.19178 0.0824 0.07356 0.0309 1.0962 0.43784 1.1174 0.39722 1.8977-3.6223 2.704-3.1458 1.2515-3.8094-0.22245-0.0812-0.44742-0.15494-0.66567-0.24723-0.5232-0.24339-1.0369-0.50276-1.5375-0.79079-0.7191-0.396-1.4216-0.82261-2.1716-1.1592-0.68641-0.32115-1.3848-0.61899-2.0833-0.91244-2.6533-0.97964-4.0388 2.7727-1.3854 3.7524z" fill="#006ab5"/>
    <path d="m91.151 237.59c0.23499 0.0673 0.46674 0.1452 0.69805 0.22405 0.20247 0.0692 0.40097 0.14904 0.6013 0.22405 0.13618 0.0478 0.27316 0.094 0.41263 0.13139 0.088 0.0236 0.1334 0.0301 0.09659 0.0249 0.11916 0.0281 0.11191 0.0325 0.31668 0.0693-0.13084-0.0196-0.25755-0.0567-0.37861-0.10933 0.11617 0.0537-0.0033-3e-3 0.07879 0.0363 0.0075 3e-3 0.03004 0.014 0.02254 0.0103-0.10833-0.0509 0.08396 0.0393 0.11297 0.0522 0.0886 0.0412 0.17943 0.0771 0.27036 0.11279 0.10134 0.0401 0.20412 0.0766 0.30738 0.11136 0.07217 0.0238 0.14446 0.0468 0.21739 0.0682 0.07131 0.0209 0.03582 9e-3 0.06106 0.0175 0.01595 4e-3 0.03193 9e-3 0.0479 0.014 0.01172 3e-3 -0.04668-0.014-0.03514-0.0103 0.10328 0.0352 0.20963 0.0609 0.31582 0.0855-0.0016-2.4e-4 -0.0064 0-0.0048 0 0.07026 0.019 0.14154 0.0343 0.21255 0.0502 0.14787 0.0334 0.29871 0.0494 0.4499 0.0566-0.24091-0.0206-0.26886-0.0193-0.48941-0.0863-0.57399-0.24564-0.08947-5e-3 -0.73307-0.43061-0.03911-0.0259 0.13882 0.12589 0.10614 0.0923-0.07228-0.0744-0.14632-0.14729-0.22514-0.21468-0.04856-0.0415 0.08942 0.0913 0.13413 0.13689-0.20943-0.20198 0.06415 0.0546 0.09419 0.0841 0.02666 0.0262-0.05589-0.0496-0.08383-0.0744 2.0557 1.9427 4.8031-0.96446 2.7474-2.9072-0.03139-0.028-0.12364-0.11411-0.09416-0.0841 0.02117 0.0217 0.30466 0.28911 0.0682 0.0597 0.04055 0.0417 0.16515 0.16383 0.12164 0.1252-0.0814-0.0723-0.15699-0.15086-0.23548-0.2263 0.03182 0.0279 0.13052 0.10719 0.09545 0.0836-0.617-0.41537-0.19795-0.2078-0.7616-0.44942-0.2128-0.0654-0.35509-0.0904-0.58681-0.10568 0.08491 4e-3 0.16959 0.0146 0.25252 0.0339-0.05262-0.0119-0.08588-0.0188-0.16746-0.0404-0.01037-3e-3 -0.04091-0.0114-0.03114-7e-3 0.0127 6e-3 0.02674 7e-3 0.04003 0.0111 0.079 0.023-0.06767-0.0209-0.10126-0.0308-0.02349-7e-3 -0.04695-0.0138-0.07047-0.0206-0.0065-3e-3 -0.02566-8e-3 -0.01947-5e-3 0.01021 4e-3 0.02109 7e-3 0.03154 0.0103 0.0095 3e-3 -0.01916-6e-3 -0.02874-9e-3 -0.05384-0.0175-0.06996-0.0249-0.05027-0.0161-0.05213-0.0175-0.07224-0.0236-0.12658-0.0456-0.02019-8e-3 -0.03996-0.0169-0.06051-0.0238-0.01006-3e-3 0.03863 0.0175 0.02895 0.0132-0.02603-0.0117-0.05179-0.0238-0.07793-0.035-5e-3 -3e-3 -0.01979-9e-3 -0.01498-7e-3 0.01561 8e-3 0.06315 0.0309 0.04733 0.0233-0.05128-0.0249-0.10216-0.0506-0.15442-0.0734-0.22001-0.10133-0.44803-0.18507-0.68842-0.22307 0.08335 0.0159 0.03543 6e-3 0.12726 0.0275 0.0026 0-0.0053 0-0.0079-3e-3 -0.02775-7e-3 -0.0555-0.0138-0.08326-0.0206-0.0094-3e-3 0.01884 5e-3 0.02825 7e-3 0.0047 0-0.0093-3e-3 -0.01402-3e-3 -0.02154-6e-3 -0.04301-0.0114-0.06464-0.0167-0.0079-3e-3 0.01572 4e-3 0.02347 7e-3 5.29e-4 1.9e-4 0.0024 0 0.0016 0-0.02777-7e-3 -0.05435-0.0182-0.08225-0.0249-0.23697-0.088-0.47136-0.18301-0.7112-0.26326-0.27103-0.0922-0.54257-0.18322-0.81766-0.26268-2.7048-0.82687-3.8742 2.9983-1.1694 3.8252z" fill="#006ab5"/>
   </g>
   <path d="m162.57 45.588c-2.101-0.58892-3.1217-0.92514-5.5659-1.8333-5.6822-2.1112-12.305-5.2181-20.299-9.523-4.4934-2.4197-6.0887-3.1747-8.1664-3.865-1.9211-0.63829-3.3824-0.98614-5.4219-1.2906-2.0922-0.31238-4.9946-0.33539-7.2253-0.0573-3.1112 0.38789-6.4528 1.3195-9.4012 2.621-4.3684 1.9284-9.0137 5.0802-12.945 8.783-1.1202 1.0552-1.5511 1.4082-1.6028 1.3127-0.14458-0.26725-0.20422-4.0352-0.08845-5.5871l0.11397-1.5277 0.43216-0.4018c0.58354-0.54254 2.5874-2.2078 3.5659-2.9634 2.2562-1.7421 5.6425-3.7808 8.3255-5.0123 6.7505-3.0983 13.863-3.9094 20.439-2.3306 2.2586 0.54222 4.1415 1.2351 8.419 3.0983 14.878 6.4803 24.994 9.949 30.963 10.616 0.46305 0.0518 0.89452 0.0945 0.95883 0.0949 0.29413 2e-3 0.0198 4.2392-0.45575 7.04l-0.20251 1.1927-0.2906-6e-3c-0.15983-3e-3 -0.85888-0.16573-1.5534-0.36043z" fill="none" stroke-width=".093544"/>
   <path d="m163.55 37.465c-0.4116-0.065-0.89569-0.1381-1.0758-0.16251-0.18008-0.0244-0.61274-0.10767-0.96148-0.18502-0.34874-0.0773-0.66445-0.13358-0.70158-0.12498-0.0371 9e-3 -0.23589-0.0319-0.44169-0.09s-0.47941-0.12658-0.60804-0.15214c-0.39991-0.0795-2.2782-0.59577-2.5523-0.70156-0.14327-0.0553-0.2906-0.0942-0.3274-0.0865-0.0368 8e-3 -0.1932-0.0384-0.34755-0.10242-0.15434-0.064-0.3666-0.1261-0.47168-0.13789-0.10507-0.0118-0.23136-0.046-0.28063-0.0759-0.16196-0.0984-1.0718-0.34591-1.0718-0.29152 0 0.0292-0.0526 0.0115-0.11693-0.0394-0.10367-0.0821-0.92091-0.3765-1.2202-0.43953-0.0621-0.013-0.17598-0.0505-0.25315-0.0831-0.38868-0.16438-0.93545-0.32846-0.93545-0.28072 0 0.0298-0.0631 2e-3 -0.14031-0.0624-0.0772-0.0641-0.14032-0.0851-0.14032-0.0468s-0.0559 0.0233-0.12427-0.0334c-0.0684-0.0567-0.20516-0.11858-0.30402-0.13747-0.0989-0.0189-0.30603-0.0875-0.46038-0.15243-0.54454-0.22916-1.8241-0.64632-1.8241-0.5947 0 0.0288-0.0526 9e-3 -0.11693-0.0439-0.10904-0.0897-2.2707-0.9428-2.5267-0.99716-0.0637-0.0136-0.26884-0.0925-0.45578-0.17536-0.71106-0.31538-1.5634-0.60827-1.6163-0.5554-0.0303 0.0303-0.0551 9e-3 -0.0551-0.0466 0-0.0941-0.51871-0.26844-0.67819-0.22794-0.0386 0.01-0.0702-0.016-0.0702-0.0572 0-0.0595-0.83111-0.41501-1.029-0.44012-0.0257-4e-3 -0.13096-0.0527-0.23386-0.10979-0.36045-0.20007-1.3564-0.57738-1.3578-0.51439-1e-3 0.035-0.0323 0.0192-0.0701-0.0351-0.0634-0.0911-2.6974-1.2036-3.0154-1.2736-0.0772-0.017-0.16137-0.0548-0.18709-0.0841-0.0257-0.0292-0.22071-0.12165-0.43329-0.2053-0.21258-0.0836-1.6883-0.71999-3.2794-1.4141s-2.9536-1.2752-3.0278-1.2914c-0.0742-0.0162-0.15597-0.0529-0.18169-0.0816-0.18074-0.20179-3.274-1.3742-3.274-1.2409 0 0.0292-0.0526 0.0106-0.11693-0.0415-0.12728-0.10304-1.8984-0.68545-2.0118-0.66156-0.0383 8e-3 -0.13275-0.0101-0.20992-0.0403-0.32751-0.12828-2.2469-0.53088-2.8063-0.58863-0.93184-0.0962-1.1218-0.12-1.7774-0.22261-1.0702-0.16753-4.5528-0.1158-6.1272 0.091-0.77174 0.10137-1.5877 0.20632-1.8132 0.23323-0.22552 0.0269-0.45513 0.0768-0.51027 0.11085-0.0551 0.0341-0.22842 0.0754-0.38509 0.0918-0.15668 0.0164-0.34801 0.0563-0.42518 0.0885-0.0772 0.0323-0.26661 0.0743-0.42095 0.0935-0.15435 0.0192-0.34378 0.0613-0.42095 0.0935-0.0772 0.0323-0.2666 0.0745-0.42095 0.094-0.86152 0.1087-5.5903 1.8518-5.7749 2.1288-0.0378 0.0567-0.0694 0.0729-0.0702 0.036-4e-3 -0.18723-4.5072 2.1974-4.7006 2.4891-0.0378 0.057-0.06937 0.0711-0.07016 0.0313-0.0017-0.0839-2.616 1.6739-2.7713 1.8633-0.05712 0.0697-0.13327 0.12668-0.16922 0.12668-0.11297 0-1.466 1.0616-3.0488 2.392l-1.5241 1.2811 0.06404-0.64384c0.11193-1.1254 0.70656-3.9617 1.139-5.4331 0.64709-2.2016 1.2455-3.7273 2.3592-6.0151 1.7985-3.6946 3.6654-6.3376 6.6237-9.377 2.9776-3.0593 5.7596-5.1295 9.4952-7.0662 3.8364-1.9888 7.6206-3.173 12.159-3.805 1.5434-0.21493 1.9998-0.23783 4.7098-0.23635 2.9288 2e-3 3.0512 9e-3 5.1055 0.31825 4.1195 0.61969 7.2582 1.5992 10.991 3.4303 3.9534 1.9391 7.2039 4.2973 10.11 7.3348 3.0146 3.1511 4.841 5.7554 6.659 9.4948 1.6836 3.463 2.6598 6.4659 3.251 10 0.24121 1.4419 0.51002 3.9648 0.51211 4.8062l1e-3 0.44728-0.44434-0.0264c-0.24438-0.0145-0.78109-0.0795-1.1927-0.14446z" fill="none" stroke-width=".093544"/>
   <g>
    <g stroke-width=".066146">
     <path d="m124.78 75.039c-6.1682-0.71035-11.702-2.7019-16.633-5.986-1.5381-1.0244-3.773-2.8132-5.0275-4.024-0.538-0.51926-0.96951-0.95278-0.95892-0.96337 0.0179-0.0178 1.1565-0.13627 1.8379-0.19109 0.6225-0.0501 1.1608-0.11013 1.2444-0.13878 0.0478-0.0164 0.25612-0.0457 0.46302-0.0652s0.44394-0.0502 0.52676-0.0683c0.0828-0.0181 0.31614-0.0486 0.51851-0.0678 0.20236-0.0192 0.92339-0.10801 1.6023-0.19736 0.6789-0.0893 1.3683-0.17691 1.532-0.19457 0.16371-0.0177 0.41672-0.0516 0.56224-0.0754s0.33899-0.05 0.42994-0.0582c0.87308-0.0787 1.1634-0.11566 1.2917-0.16445 0.0825-0.0314 0.16341-0.0435 0.17992-0.027 0.0165 0.0165 0.25025-2e-3 0.51943-0.0421 0.26918-0.0397 0.57872-0.0812 0.68786-0.0923 0.10914-0.011 0.36215-0.0388 0.56224-0.0618 1.6204-0.18563 3.7786-0.32149 5.0602-0.31856 2.4276 6e-3 4.6534 0.0793 5.5562 0.1841 0.75419 0.0875 3.1012 0.42773 3.3657 0.48784 0.17763 0.0404 0.33781 0.0586 0.35596 0.0404 0.0182-0.0181 0.0855-5e-3 0.14971 0.0294 0.0642 0.0344 0.24631 0.0781 0.40471 0.0972 0.43906 0.053 1.1591 0.20696 2.0561 0.4396 0.44637 0.11577 0.85623 0.21659 0.9108 0.22404 0.0546 7e-3 0.14386 0.0311 0.19843 0.0526 0.0546 0.0214 0.56059 0.15813 1.1245 0.30372 0.5639 0.14558 1.5192 0.44233 2.1229 0.65943 0.6037 0.2171 1.1544 0.40454 1.2237 0.41653 0.0693 0.012 0.14095 0.0383 0.15914 0.0586 0.0182 0.0203 0.3605 0.15011 0.76068 0.28863 0.40018 0.13851 1.6057 0.63971 2.6789 1.1138 1.0732 0.47406 1.9885 0.86259 2.034 0.86341 0.0455 1e-3 0.0827 0.028 0.0827 0.0605s0.0272 0.0422 0.0605 0.0216c0.0333-0.0205 0.0705-0.0111 0.0827 0.0211s0.48355 0.29093 1.0474 0.57512c0.5639 0.28419 1.0774 0.56036 1.141 0.6137 0.0637 0.0534 0.11621 0.0701 0.11677 0.0371 5e-4 -0.0329 0.0237-0.0241 0.0514 0.0195 0.0277 0.0437 0.16867 0.13369 0.31318 0.20012 0.70707 0.32504 1.8172 0.96572 1.8172 1.0488 0 0.0566-0.84108 0.51422-2.1306 1.1592-1.8363 0.91848-2.3689 1.1513-3.8557 1.6853-2.336 0.83907-4.6937 1.4391-7.12 1.8121l-1.7622 0.27089-3.0544 0.0472c-2.8742 0.0443-3.1273 0.0387-4.2901-0.0952z" fill="#b9e1ec"/>
     <path d="m164.29 37.568c-0.3638-0.0317-0.98509-0.11635-1.3806-0.18823-0.39555-0.0719-0.74324-0.11583-0.77264-0.0977-0.0294 0.0182-0.0719 3e-3 -0.0944-0.0331-0.0225-0.0364-0.10642-0.065-0.18647-0.0635-0.29261 6e-3 -3.3554-0.71471-4.3624-1.0258-0.1728-0.0534-0.31419-0.08-0.31419-0.0591s-0.0372 9e-3 -0.0827-0.0267c-0.0765-0.0599-1.7184-0.57944-2.0059-0.63473-0.07-0.0135-0.172-0.0429-0.22657-0.0653-0.11042-0.0454-1.3824-0.45-1.4876-0.47318-0.0367-8e-3 -0.14127-0.0451-0.23222-0.0822-0.21134-0.0863-3.8836-1.349-3.9889-1.3716-0.0435-9e-3 -0.18722-0.065-0.31941-0.12357-0.4829-0.21419-1.1157-0.43486-1.1167-0.38942-5e-4 0.0257-0.0229 0.0153-0.0496-0.0231-0.0418-0.0599-1.065-0.47336-1.2926-0.52226-0.0434-9e-3 -0.18707-0.0649-0.31926-0.12355-0.44378-0.19683-1.1156-0.43643-1.1156-0.39786 0 0.021-0.0372 7e-3 -0.0827-0.0304-0.12005-0.0996-0.97546-0.4132-0.97666-0.35804-5e-4 0.0256-0.0229 0.0144-0.0496-0.0251-0.052-0.0768-1.0206-0.47241-1.0654-0.43518-0.0147 0.0122-0.0449-5e-3 -0.0672-0.0385-0.0222-0.0333-1.0823-0.48613-2.3556-1.0062-1.2733-0.52005-2.836-1.1694-3.4727-1.4431-0.63665-0.27365-1.1948-0.49809-1.2402-0.49877-0.0455-5e-4 -0.0827-0.0228-0.0827-0.0492 0-0.0452-0.28093-0.13872-0.37265-0.12397-0.0234 4e-3 -0.0607-0.0219-0.083-0.0569-0.0531-0.0837-0.99928-0.48476-1.0006-0.42413-5e-4 0.0257-0.0229 0.0149-0.0496-0.024-0.0463-0.0674-2.2553-1.0522-2.4629-1.098-0.0546-0.0121-0.1141-0.0387-0.13229-0.0591-0.0393-0.0443-1.7546-0.78406-1.8708-0.80688-0.0443-9e-3 -0.0953-0.0336-0.11355-0.0554-0.0845-0.10129-3.2257-1.1731-3.5719-1.2188-0.0546-7e-3 -0.14387-0.0298-0.19844-0.0502-0.11115-0.0416-0.75537-0.19026-0.95911-0.22137-0.1658-0.0253-0.30239-0.0598-0.42995-0.10855-0.12012-0.0459-0.76279-0.19253-0.99219-0.22638-0.59176-0.0873-1.1153-0.15607-1.4036-0.18437-0.13533-0.0133-0.29905-0.0405-0.3638-0.0606-0.3318-0.10281-1.2119-0.13645-3.5573-0.13597-1.4188 2.7e-4 -2.7285 0.0228-2.9104 0.05-0.1819 0.0272-0.37537 0.0522-0.42994 0.0555-0.67895 0.0414-2.3349 0.31612-3.5161 0.58334-1.38 0.31217-3.0254 0.79621-3.2142 0.94554-0.0455 0.036-0.0827 0.049-0.0827 0.0289 0-0.02-0.42416 0.10664-0.94258 0.28155-0.91927 0.31016-3.7648 1.5561-3.809 1.6678-0.0122 0.0309-0.0447 0.0422-0.0723 0.0251-0.0568-0.0351-1.4713 0.73627-1.5335 0.83626-0.0223 0.0358-0.0669 0.0665-0.0992 0.0683-0.10153 6e-3 -0.35641 0.13689-0.35641 0.18343 0 0.0245-0.0372 0.0453-0.0827 0.0464-0.18967 5e-3 -2.2986 1.3086-2.2986 1.4214 0 0.034-0.02998 0.0432-0.06661 0.0205-0.03664-0.0226-0.08441 5e-3 -0.10615 0.0619-0.02174 0.0567-0.06435 0.0877-0.09469 0.069-0.03033-0.0187-0.08198 0.0139-0.11477 0.0725-0.03279 0.0586-0.08006 0.1027-0.10505 0.098-0.1178-0.0222-2.4231 1.6172-2.4231 1.7231 0 0.0327-0.03934 0.0595-0.08743 0.0595-0.07176 0-0.83782 0.59717-1.2355 0.9631-0.08505 0.0783-0.6029 0.51582-1.1906 1.006-0.09095 0.0759-0.39812 0.33646-0.68259 0.57911-0.28447 0.24265-0.52594 0.43085-0.53658 0.41822-0.04954-0.0588 0.18434-1.5925 0.4598-3.0153 0.62515-3.2289 1.5258-5.8714 3.098-9.0898 1.2157-2.4885 2.2122-4.1094 3.8161-6.2074 0.85384-1.1168 1.359-1.6886 2.8171-3.1884 1.4988-1.5416 1.994-2.0026 3.1658-2.9465 2.1004-1.692 3.9305-2.8807 6.3169-4.1029 3.9474-2.0216 7.5801-3.1736 11.906-3.7755 1.3658-0.19003 1.5504-0.19957 4.6633-0.24101l3.2412-0.0432 2.0317 0.30168c2.6398 0.39197 4.6449 0.87433 7.024 1.6897 1.5643 0.53614 1.9476 0.70028 4.0893 1.7509 2.2137 1.086 2.469 1.23 4.0349 2.2763 2.4702 1.6506 4.1141 3.0122 6.0519 5.013 1.8471 1.9071 3.0637 3.4056 4.4522 5.4837 0.93085 1.3932 1.1138 1.7202 2.2008 3.9338 1.0405 2.1189 1.253 2.6089 1.7363 4.0043 1.0666 3.0794 1.6893 6.0038 1.9854 9.3241 0.0876 0.98227 0.15966 1.8529 0.16009 1.9348 1e-3 0.16703 0.0651 0.16213-0.95833 0.0731z" fill="#b9e1ec"/>
     <path d="m162.74 45.653c-1.9106-0.52009-3.2858-0.97073-5.7216-1.875-5.6348-2.0918-12.338-5.2431-20.671-9.7174-4.3941-2.3595-5.8504-3.0406-8.0251-3.7529-1.737-0.56895-3.2579-0.92886-5.0542-1.196-1.2081-0.17968-1.5558-0.20301-3.5719-0.23966-2.1554-0.0392-2.2832-0.0344-3.6556 0.13687-2.212 0.27603-4.2054 0.72249-6.2508 1.4-2.8547 0.94554-5.126 1.9984-7.8052 3.6183-3.0748 1.859-5.6501 3.8165-8.3893 6.3766-0.86698 0.81028-1.6037 1.4732-1.6371 1.4732-0.03344 0-0.06264-0.0819-0.06489-0.1819-0.0023-0.10005-0.0421-1.0005-0.08855-2.0009-0.07597-1.6364-0.07248-1.9844 0.03477-3.467 0.06557-0.90637 0.14262-1.6672 0.17123-1.6908 0.0286-0.0236 0.3199-0.28147 0.64732-0.57304 4.7835-4.2598 10.117-7.4626 15.28-9.1754 2.1582-0.71602 4.093-1.1624 6.2177-1.4346 1.4267-0.18273 1.6646-0.19488 3.824-0.19526 2.1793-4e-4 2.3837 0.0102 3.8155 0.19798 1.0805 0.14169 1.9347 0.30145 2.989 0.55902 1.555 0.37989 3.9793 1.1618 4.9819 1.6069 14.808 6.573 25.625 10.525 32.18 11.757 1.0791 0.20283 2.7078 0.42079 3.2016 0.42848 0.12063 2e-3 0.12421 0.0536 0.0858 1.2422-0.0491 1.5187-0.37686 4.6616-0.6261 6.0032l-0.18426 0.99176-0.26289 0.0115c-0.14459 6e-3 -0.78379-0.13023-1.4204-0.30353z" fill="#fff"/>
     <path d="m161.02 53.211c-0.38199-0.0892-0.77632-0.1681-0.87628-0.17539-0.1-7e-3 -0.18182-0.0301-0.1819-0.0508 0-0.03-0.69386-0.21524-1.0774-0.28772-0.0442-8e-3 -0.18448-0.0603-0.31181-0.11549-0.12733-0.0552-0.43987-0.16726-0.69453-0.24907-0.25467-0.0818-0.55232-0.18816-0.66146-0.23632-0.10914-0.0481-0.25797-0.0976-0.33073-0.10989-0.0728-0.0123-0.14718-0.0409-0.16537-0.0635-0.0182-0.0226-0.24143-0.1161-0.49609-0.20763-0.25466-0.0915-0.86486-0.33668-1.356-0.54478-0.49113-0.20811-1.0716-0.44691-1.2898-0.53067-0.92544-0.35509-2.4366-1.0622-5.3909-2.5225-1.7281-0.85419-3.1717-1.5585-3.2081-1.5651-0.0364-7e-3 -0.081-0.0307-0.0992-0.0534-0.0648-0.081-1.3891-0.7196-1.3901-0.6703-5e-4 0.0276-0.0229 0.0189-0.0496-0.0193-0.0692-0.099-0.80907-0.50409-0.81029-0.44367-5e-4 0.0276-0.0229 0.0171-0.0496-0.0234-0.0489-0.074-2.3724-1.3498-2.496-1.3705-0.0364-6e-3 -0.081-0.0295-0.0992-0.052s-0.43491-0.25646-0.92604-0.51986-0.98971-0.53761-1.1079-0.60936c-0.11824-0.0718-0.21543-0.1057-0.21599-0.0754-5e-4 0.0302-0.0229 0.0212-0.0496-0.02-0.0568-0.0877-5.3909-3.1107-5.4308-3.0778-0.0148 0.0122-0.0451-7e-3 -0.0674-0.0417-0.12366-0.19502-4.4755-2.2197-4.9136-2.2861-0.0483-7e-3 -0.12506-0.0366-0.17053-0.065-0.0455-0.0284-0.0827-0.0314-0.0827-7e-3 0 0.0248-0.0372 0.0147-0.0827-0.0224-0.0629-0.0514-0.81029-0.30605-0.81029-0.27612 0 4e-3 -0.0807-0.0247-0.17936-0.0622-0.0986-0.0375-0.24748-0.0796-0.33073-0.0935-0.0833-0.0139-0.23208-0.0586-0.33073-0.0992-0.0987-0.0406-0.24747-0.0832-0.33073-0.0947-0.0833-0.0115-0.18141-0.0397-0.21813-0.0628-0.0785-0.0494-0.81447-0.23631-0.9585-0.24345-0.0546-2e-3 -0.73918-0.12324-1.5214-0.26786l-1.4221-0.26294-2.8112-1e-3c-2.6736-1e-3 -2.8597 7e-3 -3.8034 0.16133-0.5457 0.0893-1.1112 0.1769-1.2568 0.19471-0.40227 0.0493-2.6981 0.57458-2.9435 0.67355-0.0546 0.022-0.17363 0.0497-0.26458 0.0616-0.29893 0.0389-1.5214 0.44482-1.5214 0.50511 0 0.0324-0.0311 0.0397-0.0691 0.0163s-0.14216 5e-3 -0.23151 0.0638c-0.0893 0.0585-0.16246 0.0921-0.16246 0.0746 0-0.0423-1.7417 0.55539-1.7852 0.6126-0.0186 0.0245-0.0785 0.0544-0.13306 0.0665-0.11984 0.0265-1.2761 0.55479-1.3229 0.60443-0.0182 0.0193-0.0653 0.0409-0.10463 0.0479-0.13326 0.0239-2.0431 0.90635-2.3428 1.0825-0.16371 0.0962-0.83343 0.48269-1.4883 0.85881-1.5925 0.91466-4.3964 2.7833-4.6496 3.0987-0.04704 0.0586-0.09574 0.0917-0.10823 0.0735-0.03333-0.0486-1.0961 0.78771-1.0961 0.8625 0 0.035-0.03722 0.0635-0.08271 0.0635s-0.20841 0.1149-0.36203 0.25533c-0.15363 0.14043-0.29161 0.24304-0.30662 0.22803-0.01501-0.015-0.08627 0.0476-0.15835 0.1393-0.07208 0.0916-0.14649 0.15117-0.16536 0.13229-0.01887-0.0188-0.09408 0.0417-0.16713 0.13454-0.07305 0.0929-0.154 0.16885-0.17989 0.16885-0.06055 0-0.4625 0.33726-0.46478 0.38998-0.0038 0.0872-0.15595 0.30121-0.19001 0.26715-0.04487-0.0449-0.44943-2.261-0.65729-3.6006-0.1379-0.88869-0.14304-0.99443-0.04933-1.0137 0.05754-0.0118 0.2088-0.12059 0.33613-0.24172 1.6344-1.5547 2.8595-2.6634 3.6546-3.3073 0.39109-0.31673 0.71107-0.60784 0.71107-0.6469 0-0.0391 0.01866-0.0524 0.04148-0.0296 0.02281 0.0228 0.2541-0.13226 0.51396-0.34461 0.7575-0.61897 3.1993-2.3255 4.0691-2.8437 0.43967-0.26199 0.7994-0.49952 0.7994-0.52784 0-0.0283 0.0372-0.052 0.0827-0.0525s0.36254-0.17134 0.70457-0.3795c1.7074-1.0392 4.5263-2.3034 6.8764-3.084 2.2702-0.75407 4.6965-1.2817 6.9215-1.5051 0.25466-0.0256 1.5197-0.0445 2.8112-0.042 2.3006 5e-3 2.3762 9e-3 3.7314 0.21686 1.6025 0.24602 3.3488 0.63578 4.3305 0.96652 0.37767 0.12724 0.70999 0.21693 0.73849 0.19932 0.0285-0.0176 0.0618-6e-3 0.074 0.0264 0.0122 0.0321 0.29008 0.13934 0.6175 0.23827 0.96456 0.29143 3.4073 1.4142 5.319 2.4449 0.97869 0.52765 1.8194 0.96772 1.8682 0.97794 0.0489 0.0102 0.10371 0.035 0.1219 0.0551 0.0857 0.0948 0.52929 0.33158 0.53018 0.28303 5e-4 -0.0302 0.0229-0.0227 0.0496 0.0168 0.051 0.0753 1.6322 0.94921 1.7604 0.97287 0.0408 8e-3 0.0891 0.0301 0.10725 0.0502 0.0785 0.0865 0.79384 0.45607 0.79476 0.41059 5e-4 -0.0276 0.0229-0.0189 0.0496 0.0194 0.0767 0.1098 0.78999 0.48995 0.83494 0.445 0.0223-0.0223 0.0405-4e-3 0.0405 0.0406s0.0297 0.0627 0.0661 0.0402 0.0661-5e-3 0.0661 0.0402c0 0.0446 0.0185 0.0627 0.041 0.0401 0.0225-0.0225 0.0845 2e-3 0.13762 0.0557 0.0532 0.0532 0.12404 0.0798 0.15749 0.0591 0.0335-0.0206 0.0608-5e-3 0.0608 0.0363 0 0.0406 0.0298 0.0556 0.0661 0.0331 0.0364-0.0225 0.0662-8e-3 0.0662 0.0331 0 0.0406 0.0272 0.0571 0.0605 0.0366 0.0333-0.0206 0.0705-0.01 0.0827 0.0242 0.0122 0.0339 0.0668 0.0713 0.12141 0.0831 0.0546 0.0118 0.1141 0.04 0.13229 0.0626 0.072 0.0894 0.84653 0.44633 0.88501 0.40785 0.0226-0.0226 0.0411-8e-3 0.0411 0.0317 0 0.0669 0.15971 0.14836 0.28348 0.14462 0.0286-1e-3 0.098 0.0444 0.15417 0.10062 0.0562 0.0562 0.12955 0.0853 0.163 0.0646 0.0334-0.0206 0.0608-4e-3 0.0608 0.0363 0 0.0406 0.0298 0.0556 0.0661 0.0331 0.0364-0.0225 0.0661-0.0113 0.0661 0.0247 0 0.064 0.17284 0.14392 0.29026 0.13421 0.0323-3e-3 0.077 0.0238 0.0992 0.0588 0.0572 0.0899 1.6608 0.88552 1.662 0.82461 5e-4 -0.0275 0.0232-0.0152 0.0504 0.0275 0.0541 0.0851 2.1797 1.0953 2.3133 1.0994 0.0454 1e-3 0.0827 0.0239 0.0827 0.05 0 0.0515 0.69364 0.34838 0.76714 0.32833 0.0247-7e-3 0.0631 0.0172 0.0854 0.0533 0.0487 0.0788 1.5209 0.76157 1.6421 0.76157 0.0468 0 0.0851 0.0216 0.0851 0.0479 0 0.0463 0.23578 0.12556 0.3564 0.1199 0.0323-1e-3 0.077 0.0231 0.0992 0.0546 0.0661 0.0936 1.009 0.48515 1.073 0.44558 0.0324-0.02 0.0589-3e-3 0.0589 0.0376s0.0298 0.0556 0.0662 0.0331 0.0661-0.0122 0.0661 0.0227c0 0.072 0.39632 0.22716 0.39789 0.15576 5e-4 -0.0254 0.0236-0.0106 0.0512 0.0328 0.0532 0.0837 1.9073 0.89969 2.0479 0.90126 0.0455 5e-4 0.0827 0.0234 0.0827 0.0508 0 0.0502 0.38725 0.16257 0.47955 0.13913 0.0273-7e-3 0.0496 0.0148 0.0496 0.0483 0 0.0583 0.37667 0.17628 0.47956 0.15014 0.0273-7e-3 0.0496 0.0133 0.0496 0.045 0 0.0579 0.58556 0.24958 0.678 0.22189 0.0273-8e-3 0.0496 0.0117 0.0496 0.0441 0 0.0538 0.27019 0.15994 0.42995 0.16885 0.0364 2e-3 0.081 0.0203 0.0992 0.0405 0.0974 0.10854 3.0031 1.1327 3.4426 1.2134 0.0893 0.0164 0.16977 0.0358 0.17887 0.043 9e-3 7e-3 0.0389 0.0195 0.0662 0.0272 0.0273 8e-3 0.0943 0.0315 0.14882 0.0528 0.39667 0.15527 1.4117 0.43963 1.4609 0.40926 0.0332-0.0205 0.0605-0.0115 0.0605 0.0202 0 0.0558 0.47529 0.19995 0.7996 0.24254 0.0877 0.0115 0.20417 0.0382 0.25874 0.0592 0.23679 0.0912 0.64485 0.17701 0.84336 0.17735 0.16894 2.6e-4 -0.53546 0.0518-0.53546 0.15324 0 0.30248 0.59316 0.81769 0.46381 0.95855-0.10023 0.10915-0.0547 0.26666-0.0613 0.20084-0.32122-3.1756-0.49845 2.2169-1.2433 4.2211l-0.67227 1.8088-0.20768-6e-3c-0.11422-4e-3 -0.52021-0.0795-0.9022-0.16866z" fill="#00ad68"/>
     <path d="m156.09 58.748c-3.8079-1.2813-7.3624-2.7719-12.204-5.1176-3.5476-1.7188-6.7279-3.4093-10.933-5.8113-3.8297-2.1876-4.948-2.7578-6.9183-3.5273-1.1741-0.45855-1.8448-0.67173-3.2434-1.0309-1.5645-0.40181-1.9681-0.47854-3.58-0.68059l-1.8167-0.22772-2.712 0.0892c-2.7054 0.089-2.7153 0.0899-4.101 0.35052-1.8544 0.34882-4.0455 0.94658-5.8208 1.588-2.1278 0.76872-5.4768 2.4216-7.4745 3.6889-0.80036 0.50776-1.892 1.2402-2.4259 1.6278-0.70946 0.51496-0.98787 0.68335-1.0345 0.62569-0.20594-0.25467-1.0522-3.5509-0.98267-3.8277 0.0474-0.18886 2.148-1.9063 3.6824-3.0107 5.6163-4.0424 11.362-6.5239 17.283-7.4645l1.4406-0.22885h5.5281l1.6823 0.29994c1.3196 0.23528 2.0133 0.39994 3.2176 0.76379 2.8763 0.86898 4.4473 1.6003 9.0811 4.2273 9.3067 5.2761 17.427 9.267 22.779 11.195 1.3087 0.47145 1.9574 0.66429 3.0511 0.90686 0.76399 0.16944 1.3834 0.33626 1.3764 0.37072-7e-3 0.0345-0.37771 0.82167-0.82385 1.7494-0.66627 1.3854-0.96269 1.9142-1.6594 2.96-0.57236 0.85918-0.88527 1.2716-0.96208 1.2681-0.0626-3e-3 -1.1556-0.35572-2.4289-0.78417z" fill="#00a49a"/>
     <path d="m156.52 58.847c-4.4629-1.5095-7.3445-2.7103-12.667-5.2784-3.2824-1.5838-5.8633-2.9539-10.749-5.706-3.7568-2.1164-4.5571-2.5391-5.9514-3.1434-2.6786-1.161-5.2137-1.8279-8.5676-2.254-1.0872-0.13813-1.2056-0.14027-3.5719-0.0646-2.8891 0.0923-3.2362 0.12527-4.9279 0.46767-3.22 0.65172-6.0454 1.625-9.1166 3.1403-2.1761 1.0737-3.7418 2.0012-5.8763 3.4813-0.62446 0.43299-1.1663 0.78726-1.2041 0.78726-0.13446 0-0.8788-2.6497-0.97658-3.4764l-0.03956-0.33452 0.48716-0.43082c1.5359-1.3583 3.9746-3.1456 6.0103-4.4051 4.9103-3.0379 9.4121-4.7492 14.828-5.6367 1.2282-0.20126 1.249-0.20236 3.8266-0.20236h2.5917l1.465 0.26616c0.80577 0.14638 1.8818 0.37111 2.3911 0.49941 1.149 0.28941 3.2006 0.9711 4.1672 1.3846 1.195 0.51121 3.2968 1.5995 5.7547 2.9797 10.065 5.6517 17.19 9.1771 22.622 11.193 1.5615 0.57955 2.271 0.79753 3.7207 1.1432 0.62756 0.14963 1.141 0.30261 1.141 0.33997 0 0.11295-1.0407 2.2852-1.4675 3.0629-0.41628 0.7587-1.3665 2.2347-1.6736 2.5997-0.0979 0.11632-0.22739 0.20942-0.28782 0.20689-0.0604-2e-3 -0.92843-0.28145-1.9289-0.61984z" fill="#00ad68"/>
     <path d="m153.76 64.73c-0.11887-0.0516-0.22995-0.0964-0.24685-0.0995-0.0169-3e-3 -0.14289-0.0526-0.27998-0.10999-0.13709-0.0574-0.27901-0.11124-0.31539-0.11959-0.0364-8e-3 -0.23293-0.0917-0.43677-0.18525-0.20384-0.0935-0.42709-0.17981-0.4961-0.19173-0.069-0.0119-0.14035-0.041-0.15854-0.0647-0.0182-0.0237-0.0926-0.0534-0.16536-0.0661-0.0728-0.0127-0.14986-0.0469-0.17132-0.0761-0.0214-0.0291-0.10332-0.0578-0.1819-0.0637-0.0786-6e-3 -0.14288-0.0294-0.14288-0.0522 0-0.0471-0.54847-0.23867-0.58791-0.20535-0.0141 0.0119-0.0465-0.0121-0.0721-0.0534-0.0255-0.0413-0.11072-0.0799-0.1893-0.0859-0.0786-6e-3 -0.14287-0.0314-0.14287-0.0566 0-0.06-0.59501-0.26266-0.59633-0.2031-5e-4 0.025-0.0229 0.0118-0.0496-0.0297-0.066-0.10219-0.5443-0.2966-0.61787-0.25113-0.0325 0.0201-0.0591 9e-3 -0.0591-0.0246 0-0.056-0.48958-0.27339-0.67962-0.30176-0.0789-0.0118-0.75697-0.32713-1.2533-0.58288-0.13544-0.0698-0.2545-0.12219-0.26459-0.11648-0.0203 0.0115-0.3674-0.14421-1.3045-0.58529-0.34361-0.16173-0.65615-0.30027-0.69453-0.30788-0.0384-8e-3 -0.20374-0.0775-0.36745-0.15524-1.1648-0.55339-1.488-0.69739-1.5655-0.69739-0.0485 0-0.0881-0.0265-0.0881-0.059s-0.0298-0.0406-0.0662-0.0182c-0.0364 0.0225-0.0661 8e-3 -0.0661-0.0331 0-0.0407-0.0298-0.0556-0.0661-0.0331-0.0364 0.0225-0.0662 8e-3 -0.0662-0.033 0-0.0406-0.0297-0.0556-0.0661-0.0331s-0.0661 8e-3 -0.0661-0.0331c0-0.0406-0.0298-0.0556-0.0661-0.0331-0.0364 0.0225-0.0662 5e-3 -0.0662-0.0402 0-0.0446-0.0184-0.0627-0.0409-0.0402s-0.0845-2e-3 -0.13763-0.0557c-0.0532-0.0532-0.12404-0.0798-0.15749-0.0591-0.0335 0.0206-0.0608 4e-3 -0.0608-0.0364 0-0.0406-0.0298-0.0556-0.0661-0.033-0.0364 0.0225-0.0661 8e-3 -0.0661-0.0331 0-0.0407-0.0298-0.0556-0.0661-0.0331-0.0364 0.0225-0.0661 8e-3 -0.0661-0.0331 0-0.0406-0.0298-0.0556-0.0662-0.0331s-0.0661 8e-3 -0.0661-0.0331c0-0.0406-0.0298-0.0556-0.0661-0.0331-0.0364 0.0225-0.0661 8e-3 -0.0661-0.0331 0-0.0406-0.0298-0.0556-0.0661-0.0331-0.0364 0.0225-0.0661 5e-3 -0.0661-0.0402 0-0.0446-0.0185-0.0626-0.041-0.0401s-0.0844-2e-3 -0.13762-0.0557c-0.0532-0.0532-0.12404-0.0798-0.15749-0.0591-0.0334 0.0206-0.0608 5e-3 -0.0608-0.0363 0-0.0407-0.0297-0.0556-0.0661-0.0331s-0.0661 8e-3 -0.0661-0.0331c0-0.0406-0.0298-0.0556-0.0661-0.0331-0.0364 0.0225-0.0662 8e-3 -0.0662-0.0331 0-0.0406-0.0297-0.0556-0.0661-0.0331s-0.0661 8e-3 -0.0661-0.0331c0-0.0406-0.0298-0.0556-0.0662-0.0331s-0.0661 8e-3 -0.0661-0.0331c0-0.0406-0.0298-0.0556-0.0661-0.0331-0.0364 0.0225-0.0661 8e-3 -0.0661-0.033 0-0.0406-0.0273-0.0571-0.0605-0.0366-0.0333 0.0205-0.0705 0.0109-0.0827-0.0214-0.0299-0.0791-1.9071-1.0148-1.9084-0.95119-5e-4 0.0275-0.0231 0.0152-0.0502-0.0274s-0.0929-0.0872-0.14624-0.0992c-0.0534-0.012-0.13733-0.0593-0.18661-0.10513-0.0493-0.0458-0.11695-0.0664-0.1504-0.0457-0.0334 0.0207-0.0608 0.01-0.0608-0.0245 0-0.066-0.39589-0.25262-0.47955-0.2261-0.0273 9e-3 -0.0496-0.0121-0.0496-0.046 0-0.0579-0.26734-0.17428-0.32334-0.1408-0.0141 8e-3 -0.0439-0.0112-0.0661-0.0436-0.0609-0.0888-0.93328-0.55253-0.93445-0.49677-5e-4 0.0266-0.0229 0.016-0.0496-0.0234-0.049-0.0724-3.5637-2.0104-3.6866-2.0328-0.0364-7e-3 -0.081-0.0283-0.0992-0.0483-0.0825-0.0904-0.66157-0.39361-0.66247-0.34688-5e-4 0.0288-0.0229 0.0212-0.0496-0.0169-0.0716-0.10208-0.67681-0.44126-0.678-0.37995-5e-4 0.0288-0.0237 0.0168-0.0513-0.0267-0.0682-0.1073-1.5454-0.8154-1.6134-0.77338-0.0298 0.0184-0.0541 6e-3 -0.0541-0.0276 0-0.0482-0.51086-0.2884-0.66146-0.31111-0.0182-2e-3 -0.12981-0.0566-0.24805-0.11966-0.11823-0.0631-0.21543-0.0916-0.21598-0.0634-5e-4 0.0282-0.0229 0.02-0.0496-0.0183-0.0268-0.0383-0.19743-0.13204-0.37933-0.20833-0.38984-0.16349-3.1929-1.0803-3.2607-1.0665-0.0256 5e-3 -0.0912-8e-3 -0.14578-0.0292-0.3871-0.15106-2.1993-0.51794-3.0427-0.616-0.20009-0.0232-0.43822-0.0532-0.52917-0.0666-0.091-0.0134-0.28442-0.0394-0.42994-0.0579s-0.36877-0.0548-0.4961-0.0807c-0.12733-0.0258-1.3668-0.057-2.7543-0.0693-2.3775-0.0211-2.6035-0.0126-3.9255 0.14739-1.2139 0.14687-2.8644 0.4297-3.1759 0.54424-0.0546 0.02-0.14386 0.0421-0.19843 0.0489-0.6565 0.0823-4.4648 1.1507-4.563 1.2802-0.0188 0.0248-0.0788 0.0539-0.13336 0.0647-0.14262 0.0282-1.019 0.36621-1.0583 0.40812-0.0182 0.0194-0.0926 0.0456-0.16537 0.0584-0.0728 0.0127-0.1505 0.0525-0.17276 0.0883-0.0223 0.0359-0.0669 0.0603-0.0992 0.0544-0.10695-0.0196-0.55484 0.15185-0.55484 0.21241 0 0.0327-0.0298 0.041-0.0662 0.0186-0.0364-0.0225-0.0661-5e-3 -0.0661 0.0402 0 0.0446-0.0169 0.0642-0.0375 0.0436-0.0478-0.0478-1.3021 0.5349-1.3671 0.63506-0.0267 0.0412-0.0491 0.0538-0.0496 0.0281-3e-3 -0.12767-2.9976 1.4231-3.1173 1.6141-0.02226 0.0356-0.06034 0.0606-0.08463 0.0556-0.10503-0.0214-1.1616 0.63552-1.1664 0.72534-0.01123 0.20694-1.4333-2.7408-1.9932-4.1316-0.32165-0.79899-0.58482-1.4752-0.58482-1.5027 0-0.0275 0.03721-0.0359 0.08268-0.0187 0.04547 0.0173 0.16917-0.0432 0.27487-0.13436 0.1057-0.0911 0.20988-0.16576 0.23151-0.1658 0.03385-7e-5 0.18388-0.11504 0.51609-0.3955 0.04394-0.0371 0.09931-0.0674 0.12305-0.0674 0.02374 0 0.25169-0.15167 0.50655-0.33704 0.78676-0.57224 3.1578-2.044 3.8546-2.3926 0.3638-0.18201 0.67967-0.35922 0.70193-0.39381 0.0223-0.0346 0.052-0.056 0.0662-0.0476 0.058 0.0347 0.32333-0.084 0.32333-0.14471 0-0.036 0.0298-0.0472 0.0661-0.0247 0.0364 0.0225 0.0662 5e-3 0.0662-0.0402 0-0.0446 0.0169-0.0641 0.0376-0.0435 0.0207 0.0207 0.66811-0.26921 1.4387-0.64426 2.4583-1.1965 5.3992-2.1436 8.5448-2.752l1.3891-0.26862 5.424-0.1768 1.7736 0.22589c4.2293 0.53865 7.6715 1.7598 12.018 4.2635 0.70942 0.40866 1.327 0.74409 1.3725 0.7454 0.0455 2e-3 0.0827 0.0216 0.0827 0.0451 0 0.0464 0.74845 0.48107 0.83806 0.48664 0.0302 2e-3 0.11261 0.0572 0.18314 0.12287 0.11848 0.11038 0.16401 0.12904 0.27778 0.11381 0.0232-3e-3 0.0604 0.0232 0.0827 0.0586 0.0568 0.0902 0.75057 0.49547 0.85076 0.49702 0.0455 5e-4 0.0827 0.0196 0.0827 0.0421 0 0.062 0.39672 0.28326 0.39789 0.22195 5e-4 -0.0293 0.0231-0.0186 0.0501 0.0239 0.0616 0.0968 0.87889 0.56787 0.99064 0.57094 0.0455 1e-3 0.0827 0.0289 0.0827 0.0613s0.0273 0.0422 0.0605 0.0216c0.0333-0.0206 0.0705-0.0137 0.0827 0.0153 0.0326 0.0775 0.78269 0.48722 0.78388 0.42821 5e-4 -0.0276 0.0229-0.0187 0.0496 0.0198 0.0692 0.0996 1.0736 0.63852 1.0749 0.57669 5e-4 -0.0282 0.0229-0.0194 0.0496 0.0196 0.0706 0.10296 1.0737 0.64298 1.0749 0.57866 5e-4 -0.0299 0.0229-0.0231 0.0496 0.0151 0.0792 0.11295 0.65596 0.42575 0.70135 0.38036 0.023-0.023 0.0418-5e-3 0.0418 0.0393 0 0.0446 0.0273 0.0643 0.0605 0.0437 0.0332-0.0205 0.0705-0.011 0.0827 0.0213 0.0299 0.0791 1.5102 0.81658 1.5115 0.75297 5e-4 -0.0276 0.0229-0.0179 0.0496 0.0216 0.0618 0.0913 1.9996 1.0265 2.0009 0.96575 5e-4 -0.0249 0.0229-0.0115 0.0496 0.0297 0.0655 0.10094 2.1139 1.0788 2.1611 1.0317 0.0205-0.0205 0.0373-1e-3 0.0373 0.0438 0 0.0446 0.0298 0.0627 0.0661 0.0402 0.0364-0.0225 0.0661-0.0153 0.0661 0.0159 0 0.0594 0.45967 0.25235 0.54571 0.22906 0.0273-7e-3 0.0496 0.0131 0.0496 0.0455 0 0.0575 0.31461 0.17192 0.41341 0.15032 0.0273-6e-3 0.0496 0.0166 0.0496 0.0502 0 0.0573 0.46622 0.24363 0.52176 0.20851 0.0141-9e-3 0.0439 0.0124 0.0661 0.0474 0.0473 0.0743 1.4564 0.69659 1.5784 0.69704 0.0455 2.7e-4 0.0827 0.0228 0.0827 0.0502s0.0957 0.0709 0.2128 0.0966c0.22255 0.0489 0.24734 0.0592 0.68738 0.28518 0.14949 0.0768 0.32808 0.14914 0.39687 0.16081 0.0688 0.0117 0.21462 0.0687 0.32406 0.12672 0.10944 0.058 0.25827 0.11592 0.33073 0.12863 0.0725 0.0127 0.14663 0.0401 0.16482 0.0607 0.041 0.0466 1.7424 0.7282 1.8635 0.74654 0.0483 7e-3 0.11761 0.0307 0.15399 0.0521 0.0364 0.0214 1.0707 0.37274 2.2986 0.78086s2.2324 0.7663 2.2324 0.79596c0 0.0907-1.3644 1.8319-2.2038 2.8124-0.8728 1.0195-2.1544 2.3496-2.2599 2.3456-0.037-1e-3 -0.16452-0.0448-0.28338-0.0965z" fill="#006ab5"/>
    </g>
    <path d="m153.57 51.81c0.22878 0.11612 0.45905 0.22927 0.68782 0.34543 0.15842 0.0794 0.31593 0.16129 0.48038 0.22778 0.0394 0.0159 0.0793 0.0304 0.11889 0.0456 0.21292 0.0787 0.42824 0.15053 0.64394 0.22116 0.21644 0.0698 0.43481 0.13351 0.65192 0.20121 0.0505 0.0162 0.10118 0.0317 0.15144 0.0485 0.0953 0.0319 0.26895 0.0945 0.35927 0.12713 0.22143 0.0799 0.44219 0.16159 0.66293 0.24342 0.30178 0.11091 0.60116 0.22817 0.90206 0.34144 0.16205 0.0589 0.32525 0.11456 0.48829 0.17062 0.13153 0.0452 0.2654 0.0828 0.40023 0.11663 0.11652 0.0284 0.23352 0.0547 0.35065 0.0805 0.15703 0.0336 0.31502 0.0623 0.47382 0.0861 0.11533 0.0164 0.23085 0.03 0.3471 0.0376 0.09 5e-3 0.18009 6e-3 0.27018 6e-3 0.0431 1e-3 0.0273 0 0.0974 6e-3 5e-3 0-0.0105 0-0.0158-1e-3 0.0584 8e-3 0.11713 0.0139 0.17594 0.0184 0.0505 3e-3 0.1012 4e-3 0.15184 4e-3 0.032 0 0.0641-7e-5 0.0961-1.2e-4 0.0335-2e-3 0.11826-4e-3 0.15919-0.0123 0.0604-0.0128 0.11601-0.0587 0.176-0.0732 1.3412-0.44836 0.71114-2.3154-0.63011-1.867 0.1184-0.0277 0.17894-0.0483 0.29203-0.0474-0.0303 5e-5 -0.0607 1e-4 -0.091 1.2e-4 -9e-3 0-0.0316 0-0.01 1e-3 -0.032-1e-3 -0.0636-8e-3 -0.0956-0.011-0.10037-0.01-0.20112-0.0186-0.30208-0.0179-0.0499-8e-5 -0.0999 1.2e-4 -0.14985-2e-3 -0.0601-3e-3 -0.11931-0.0128-0.17898-0.02-0.11304-0.0164-0.22525-0.0377-0.33706-0.061-0.0993-0.0218-0.19847-0.0441-0.29728-0.068-0.0785-0.0191-0.15611-0.0413-0.23264-0.0671-0.14483-0.0497-0.28973-0.0993-0.43387-0.15104-0.30404-0.1144-0.60649-0.233-0.91146-0.34495-0.42254-0.15662-0.84446-0.31609-1.2738-0.45321-0.20804-0.0648-0.41715-0.1261-0.62466-0.1925-0.18767-0.0614-0.37507-0.12363-0.56043-0.19177-0.13848-0.0499-0.2683-0.11939-0.39959-0.18538-0.23373-0.11865-0.46895-0.23429-0.70268-0.35289-1.2663-0.62968-2.1568 1.1611-0.8905 1.7908z" fill="#00ad68" stroke-width=".13229"/>
    <path d="m97.659 56.551c0.14387-0.0647 0.28867-0.12715 0.43378-0.18898 0.08876-0.0388 0.17936-0.0732 0.26946-0.10871 0.03558-0.0104 0.08604-0.0339 0.13421-0.0481 0.07923-0.0242 0.15261-0.063 0.22848-0.0954 0.02308-0.01 0.04734-0.0167 0.07084-0.0256 0.32491-0.11687 0.65256-0.22597 0.97973-0.3363 0.25629-0.0879 0.516-0.16579 0.77164-0.25566 0.0948-0.0333 0.315-0.11574 0.4157-0.15324 0.27004-0.10274 0.53145-0.2259 0.78889-0.35657 0.19107-0.10078 0.377-0.21096 0.56253-0.32151 0.20814-0.12139 0.39908-0.26893 0.58769-0.41812 0.16589-0.14103 0.34051-0.27133 0.52919-0.38019 0.12783-0.0804 0.26851-0.1331 0.40876-0.18676 0.18169-0.0695 0.15291-0.0582 0.33753-0.12601 0.35527-0.12252 0.70512-0.25934 1.0536-0.39986 0.31803-0.1223 0.63167-0.25546 0.9434-0.39292 0.26757-0.12642 0.53673-0.24954 0.80815-0.36748 0.22298-0.0972 0.45244-0.17626 0.68419-0.24928 0.3396-0.10899 0.6917-0.17068 1.0417-0.23558 0.40717-0.0695 0.81698-0.121 1.2289-0.15121 0.2752-0.0209 0.55091-0.0328 0.82588-0.0567 0.24354-0.0234 0.48702-0.0482 0.73003-0.0768 0.29226-0.0349 0.58001-0.0975 0.86774-0.15806 0.20094-0.0467 0.40222-0.0925 0.60148-0.146 0.18637-0.0541 0.37163-0.11111 0.56113-0.15314 0.12896-0.0243 0.25878-0.0441 0.38938-0.0571 0.0988-7e-3 0.19783-0.01 0.29675-0.0157 0.2862-0.0121 0.57211-0.0294 0.85817-0.0447 0.57138-0.0246 1.1427-0.0504 1.7138-0.0803 0.44497-0.0183 0.88893-0.0543 1.333-0.0875 0.10741-6e-3 0.21477-0.012 0.32222-0.0167 0.29748-0.0131 0.52952-0.0221 0.82967-0.0161 0.1594 3e-3 0.31865 0.012 0.4779 0.0197 0.29085 0.0139 0.5815 0.0315 0.87228 0.0467 0.10012 5e-3 0.42229 0.0172 0.54728 0.0345 0.0283 4e-3 0.0563 0.0122 0.0824 0.0238 5e-3 2e-3 9e-3 0.0125 4e-3 0.0146-0.0291 0.0133-0.0451-0.0191-0.0224 0.0141 0.15325 0.12397 0.31172 0.24585 0.49021 0.33202 0.19959 0.0964 0.2676 0.11263 0.46555 0.17811 0.37659 0.11909 0.76617 0.18665 1.1535 0.25989 0.14354 0.0307 0.28996 0.0539 0.42962 0.10055 0.0878 0.0293 0.17377 0.064 0.26053 0.0964 0.37214 0.13895 0.72837 0.31396 1.0788 0.49991 0.4061 0.21913 0.82376 0.4154 1.2512 0.58879 0.42572 0.1712 0.8601 0.31932 1.296 0.46211 0.33124 0.11516 0.66836 0.21232 1.0014 0.32196 0.18683 0.0615 0.37259 0.12876 0.5579 0.19456 0.0948 0.0358 0.18994 0.0708 0.28441 0.10758 0.15275 0.0594 0.43636 0.17392 0.58194 0.23992 0.34582 0.15677 0.67883 0.33912 1.0117 0.52118 0.43266 0.23819 0.85063 0.50145 1.2742 0.7551 0.24295 0.14548 0.36223 0.21431 0.60448 0.35582 0.47126 0.25971 0.92557 0.54773 1.3783 0.83798 0.60826 0.38061 1.2044 0.77992 1.8134 1.1594 0.0922 0.0557 0.18403 0.11199 0.27655 0.16713 0.2299 0.137 0.30528 0.18136 0.54762 0.30707 0.27801 0.14423 0.56213 0.27596 0.84627 0.40749 0.61034 0.28388 1.2388 0.52587 1.8692 0.76087 0.53987 0.20258 1.0816 0.40001 1.6182 0.6114 0.31342 0.12348 0.80172 0.32248 1.113 0.44874 0.62388 0.25755 1.248 0.51507 1.8647 0.78954 0.0339 0.0151 0.72423 0.32819 0.76733 0.34774 0.72713 0.33478 1.4491 0.68051 2.1744 1.0194 0.68545 0.31164 1.3748 0.61471 2.0461 0.95616 0.32575 0.16649 0.64222 0.35022 0.96374 0.52458 0.31272 0.16789 0.63902 0.30841 0.96789 0.44111 0.25126 0.10029 0.50885 0.18267 0.76747 0.26145 0.0799 0.0206 0.18487 0.0581 0.23125 0.076 0.13016 0.0448 0.0618 0.0232 0.18541 0.0654 0.0211 6e-3 0.0421 0.0123 0.0631 0.0186 0.0105 3e-3 -0.0223-0.0149-0.0318-9e-3 -9e-3 5e-3 0.0204 7e-3 0.0306 0.01 0.0223 7e-3 0.0447 0.0133 0.0673 0.0191 0.0547 0.0142 0.0715 0.0161 0.12654 0.026-0.0229-4e-3 -0.0459-9e-3 -0.0688-0.0135-5e-3 -1e-3 -0.0177-5e-3 -0.0132-4e-3 0.0586 0.0163 0.20058 0.0498-0.0409-0.0144-6e-3 -1e-3 0.0123 5e-3 0.0185 6e-3 0.20148 0.0623 0.0164 5e-3 0.0123 4e-3 -4e-3 -1e-3 7e-3 3e-3 0.0111 4e-3 0.0182 6e-3 0.0724 0.0255 0.0547 0.0181-0.0334-0.0139-0.0674-0.0263-0.10161-0.0377-0.0143-5e-3 0.0278 0.0118 0.0416 0.0176 0.0595-0.01 0.095 0.0521 0.15114 0.0501 0.0188-1e-3 -0.0357-0.0117-0.0538-0.0166-8e-3 -2e-3 0.0151 6e-3 0.0228 8e-3 0.0199 7e-3 0.0401 0.0127 0.0601 0.0191-0.0118-4e-3 -0.0235-8e-3 -0.0353-0.0111-5e-3 -1e-3 0.01 4e-3 0.0143 5e-3 0.0219 7e-3 0.20634 0.0675 0.11371 0.0337-0.0319-0.01-0.0639-0.0194-0.0959-0.0291-2.6e-4 -5e-5 -4e-4 -1.2e-4 -5e-4 0 0.0163 6e-3 0.0645 0.0241 0.0487 0.0173-0.29866-0.12975 0.12899 0.0717-0.19192-0.0902-0.0135-7e-3 0.0257 0.0163 0.0391 0.0234 0.0336 0.0179 0.0679 0.0344 0.10185 0.0516 1.2914 0.57654 2.1067-1.2497 0.81535-1.8262 0.0287 0.0148 0.0576 0.0292 0.0861 0.0445 8e-3 5e-3 0.0334 0.0197 0.0248 0.0152-0.15001-0.0803-0.0875-0.051-0.238-0.11403-0.01-4e-3 0.02 7e-3 0.0301 0.011-7e-3 -2e-3 -0.0128-5e-3 -0.0194-7e-3 -0.35229-0.11415 0.11912 0.0392-0.12055-0.04 0.01 4e-3 0.0196 7e-3 0.0295 0.01 3e-3 2e-3 -5e-3 -1e-3 -7e-3 -2e-3 -0.0281-9e-3 -0.0562-0.0182-0.0843-0.0275-8e-3 -2e-3 0.0311 0.01 0.0234 7e-3 -0.067-0.022-9e-3 -2e-3 0.0419 0.0166 0.0524 0.023 0.0722 0.0312-0.10076-0.0375-0.0107-4e-3 0.0217 8e-3 0.0326 0.0112 4e-3 1e-3 -7e-3 -2e-3 -0.0107-4e-3 -0.029-0.01-0.0581-0.0187-0.0871-0.0282-0.0178-6e-3 0.0357 0.0115 0.0536 0.0171-0.0474-0.0138-0.095-0.027-0.14223-0.0413-0.0758-0.023 0.0377 9e-3 0.036 9e-3 -0.0721-0.019-0.0142-5e-3 -0.13179-0.0298 0.0375 7e-3 0.18455 0.0513 0.0275 2e-3 -7e-3 -2e-3 0.0138 5e-3 0.0207 7e-3 0.0613 0.0236-0.099-0.0355-0.1077-0.0384-6e-3 -2e-3 0.0112 5e-3 0.0168 7e-3 -0.12007-0.0461-0.24216-0.087-0.36587-0.12227-0.20347-0.062-0.40656-0.12531-0.60438-0.20396-0.25845-0.10332-0.51478-0.21333-0.76086-0.34381-0.33719-0.18254-0.66862-0.37576-1.0107-0.5492-0.69124-0.35081-1.3993-0.66577-2.1054-0.98509-0.73209-0.34202-1.4608-0.69115-2.1949-1.0288-0.0802-0.0363-0.7302-0.33123-0.79178-0.35863-0.63322-0.28162-1.2739-0.54619-1.9145-0.81051-0.33323-0.13516-0.80931-0.32925-1.1434-0.4608-0.54414-0.21424-1.0934-0.4147-1.641-0.62005-0.58266-0.21713-1.164-0.43974-1.7281-0.70204-0.32404-0.14974-0.65069-0.29802-0.9625-0.47238-0.0799-0.0447-0.15834-0.0921-0.23706-0.13897-0.0848-0.0505-0.1689-0.10193-0.25335-0.1529-0.6018-0.37444-1.1901-0.76991-1.7912-1.1454-0.47598-0.30509-0.95382-0.60755-1.4489-0.88117-0.22584-0.13189-0.35246-0.20505-0.57827-0.34025-0.44884-0.26876-0.89196-0.54744-1.3508-0.79915-0.32753-0.1785-0.45335-0.25138-0.78823-0.41661-0.448-0.22105-0.90997-0.4108-1.3793-0.58149-0.23539-0.0835-0.38686-0.13868-0.62387-0.21668-0.32654-0.10746-0.65712-0.20264-0.98187-0.31569-0.39332-0.12872-0.78545-0.26176-1.1696-0.41597-0.36407-0.14607-0.71805-0.31569-1.0636-0.50148-0.42896-0.22697-0.86329-0.43775-1.3186-0.60746-0.14869-0.0551-0.2545-0.0963-0.40575-0.14408-0.19913-0.0629-0.405-0.1018-0.60929-0.1432-0.30559-0.0578-0.61364-0.10826-0.91186-0.19839-0.0322-0.01-0.0644-0.0196-0.0966-0.0293-7e-3 0-0.0132 3e-3 -0.0196 1e-3 -0.0932-0.0233-0.17368-0.13567-0.25326-0.17925-0.18801-0.13356-0.2508-0.19107-0.47946-0.28813-0.3884-0.16486-0.81174-0.17953-1.2265-0.19583-0.48757-0.0256-0.97572-0.0607-1.464-0.0691-0.32773-6e-3 -0.6015 4e-3 -0.92582 0.0188-0.122 6e-3 -0.24389 0.0129-0.36584 0.0195-0.4293 0.032-0.85851 0.0671-1.2887 0.0846-0.57169 0.0299-1.1436 0.0556-1.7155 0.0804-0.2916 0.0155-0.58302 0.0332-0.87475 0.0456-0.12627 8e-3 -0.25286 9e-3 -0.37878 0.0225-0.20884 0.0219-0.41681 0.0525-0.6225 0.0951-0.21883 0.0495-0.43442 0.11015-0.64917 0.17501-0.16098 0.0452-0.32518 0.0785-0.48748 0.11848-0.22933 0.0483-0.45845 0.0999-0.69122 0.12909-0.22342 0.0268-0.44747 0.0486-0.6714 0.0707-0.2654 0.0243-0.53192 0.0323-0.79752 0.0544-0.4845 0.0365-0.96682 0.0959-1.4456 0.17929-0.42988 0.0799-0.86123 0.15988-1.2781 0.2946-0.29836 0.0942-0.59341 0.19777-0.88052 0.32273-0.27468 0.11964-0.54773 0.24312-0.81825 0.37191-0.29171 0.12909-0.58569 0.25302-0.88344 0.36759-0.32918 0.13279-0.65966 0.26201-0.99542 0.37745-0.36801 0.13539-0.74083 0.26663-1.0779 0.47057-0.0549 0.0331-0.11051 0.065-0.16466 0.0992-0.20506 0.1298-0.39816 0.27789-0.58483 0.43264-0.11914 0.0946-0.23813 0.19079-0.3697 0.2678-0.14689 0.0875-0.29396 0.17498-0.44436 0.25638-0.18993 0.0965-0.38215 0.18885-0.58115 0.2655-0.0282 0.0106-0.32257 0.12032-0.35572 0.13199-0.25596 0.0901-0.51618 0.16766-0.77273 0.25602-0.35126 0.11844-0.7031 0.23541-1.0515 0.36203-0.10182 0.039-0.10449 0.0388-0.20791 0.0836-0.01392 6e-3 -0.02887 0.0104-0.04121 0.0193-0.0087 6e-3 0.01999-8e-3 0.03006-0.0114 8.5e-4 0-0.0016 1e-3 -0.0023 1e-3 -0.0072 2e-3 -0.01435 5e-3 -0.02153 8e-3 -0.07791 0.0274-0.14114 0.0508-0.21894 0.0796-0.10513 0.0427-0.21201 0.0813-0.31566 0.12776-0.16623 0.0711-0.33239 0.14233-0.49695 0.21725-1.2806 0.60001-0.43204 2.411 0.84856 1.811z" fill="#006ab5" stroke-width=".13229"/>
    <path d="m144.78 68.82c-6.5584-3.4696-12.305-5.3698-18.885-6.2445-1.3658-0.18157-1.9036-0.21727-4.4318-0.29428-2.857-0.087-2.8921-0.0865-4.9609 0.0757-1.9119 0.14984-3.771 0.36436-10.22 1.1792-1.2733 0.16089-2.7318 0.32739-3.2412 0.36999l-0.92604 0.0774-0.97516-1.0157c-1.1857-1.2349-2.2394-2.5716-3.1732-4.0253-0.60164-0.93663-1.6234-2.82-1.5607-2.877 0.0113-0.0102 0.5712-0.34276 1.2442-0.73888 1.4472-0.85175 4.2496-2.2049 5.9201-2.8585 2.6662-1.0432 6.012-1.8842 8.8497-2.2243 1.2267-0.14703 1.6313-0.16485 3.7447-0.16485 2.3518 0 2.3812 1e-3 3.9534 0.22838 1.9326 0.27866 3.3275 0.60808 5.2994 1.2515 2.1757 0.70992 3.6157 1.3823 7.5208 3.5114 6.3912 3.4847 12.44 6.3703 18.125 8.646 1.6371 0.6554 2.9898 1.2046 3.0061 1.2205 0.12397 0.12138-2.6837 2.5735-3.9134 3.4178-0.81247 0.55785-2.8297 1.705-2.9812 1.6953-0.0442-3e-3 -1.1221-0.55628-2.3954-1.2299z" fill="#30a8e1" stroke-width=".066146"/>
    <path d="m163.66 44.833c-0.81915 0.44813-1.8188-0.42737-2.7064-0.71816-0.12187-0.0456-0.24439-0.0897-0.36562-0.137-0.49883-0.19477-0.99461-0.39691-1.495-0.58778-0.69109-0.26361-0.70136-0.26328-1.4236-0.52324-0.63008-0.21524-1.2634-0.4208-1.8939-0.63496-0.79941-0.27156-1.131-0.40867-1.9474-0.62753-0.59594-0.15975-0.97255-0.22169-1.5597-0.33321-0.30559-0.09-0.35708-0.0566-0.55106-0.22641-0.0782-0.0685-0.10081-0.15493-0.1614-0.2347-0.0569-0.0749-0.11848-0.14627-0.17773-0.21942-0.0826-0.0798-0.16076-0.16455-0.24784-0.2395-0.18018-0.15507-0.35996-0.26872-0.56083-0.39453-0.30086-0.18845-0.61056-0.36048-0.92184-0.53086-1.0318-0.56912-2.111-1.0408-3.1916-1.5074-0.97248-0.4182-1.9451-0.83767-2.897-1.3013-0.58378-0.28433-1.1538-0.58293-1.7308-0.88076-1.2374-0.65071-2.4813-1.2888-3.7278-1.9221-0.27172-0.13803-0.54208-0.27878-0.81561-0.41319-0.26883-0.1321-0.5409-0.25752-0.81135-0.38626-1.6539-0.76433-3.3539-1.4218-5.038-2.1152-1.4097-0.59174-2.8376-1.1414-4.2863-1.6304-0.27251-0.092-0.54691-0.17827-0.82037-0.2674-1.5755-0.4707-3.1901-0.82335-4.8228-1.0255-0.3491-0.0432-0.69995-0.0709-1.0499-0.10629-1.3766-0.11155-2.7588-0.0445-4.1259 0.13873-0.70488 0.0945-1.0574 0.16627-1.748 0.29151-0.9302 0.18151-1.8593 0.374-2.7757 0.61715-0.56509 0.14994-0.73387 0.20655-1.282 0.37351-1.1244 0.34547-2.209 0.80218-3.3007 1.2363-1.4978 0.59771-2.9985 1.1882-4.4947 1.7898-0.27306 0.11326-0.54777 0.22263-0.81919 0.33978-0.56665 0.24459-1.016 0.452-1.5599 0.74607-0.43768 0.23666-1.0938 0.6295-1.5164 0.90219-0.21992 0.1419-0.43375 0.29301-0.65062 0.43953-0.90504 0.63279-1.6891 1.4134-2.504 2.1537-0.56671 0.51558-1.1528 1.0092-1.7191 1.5252-0.36536 0.31284-0.68128 0.67587-1.0039 1.031-0.28512 0.26295-0.48934 0.57868-0.67861 0.91333-0.09719 0.17479-0.18153 0.35579-0.26644 0.53668-0.01165 0.0257-0.02365 0.0512-0.03494 0.0771-0.03504 0.0802-0.06785 0.16118-0.0998 0.24266-0.0023 6e-3 0.0043-0.0121 0.0065-0.0183-0.04435 0.11323 0.10376 0.13016 0.0588 0.27665-0.36554 1.3661 1.4415 1.8015 1.8071 0.43539-0.02351 0.0682-0.01243 0.0417-0.02976 0.0808 0.03384-0.0819 0.06591-0.16448 0.10282-0.24507 0.06336-0.1352 0.12456-0.27092 0.19681-0.40178 0.04612-0.0816 0.10783-0.21852 0.16837-0.28934 0.03377-0.0395 0.07116-0.0758 0.10691-0.1135 0.04744-0.0501 0.0951-0.0999 0.14265-0.14989 0.2804-0.3087 0.55234-0.62697 0.87098-0.89788 0.56496-0.51562 1.1513-1.0071 1.7164-1.5227 0.74467-0.67656 1.4596-1.3918 2.2805-1.9779 0.19395-0.13166 0.38506-0.26761 0.58185-0.39499 0.36627-0.23705 0.98947-0.61266 1.371-0.82039 0.49553-0.26978 0.90053-0.45715 1.4192-0.68116 0.2647-0.11432 0.53265-0.22102 0.79897-0.33152 1.4938-0.60073 2.9922-1.1902 4.4876-1.787 1.0406-0.41387 2.074-0.85071 3.1452-1.1818 0.5027-0.15362 0.66893-0.20921 1.1866-0.34698 0.87317-0.23241 1.7588-0.41535 2.6452-0.58889 0.83328-0.15187 1.6672-0.30193 2.5116-0.37914 0.93227-0.0852 1.8712-0.0983 2.805-0.0289 0.32018 0.0318 0.64118 0.0562 0.96054 0.0953 1.5206 0.18623 3.0244 0.51269 4.4923 0.94812 1.6795 0.54649 3.3392 1.1532 4.9646 1.8455 1.6512 0.67988 3.318 1.3245 4.9404 2.072 0.25553 0.12141 0.51266 0.23951 0.76658 0.36428 0.27223 0.13376 0.54131 0.27384 0.81173 0.41121 1.2433 0.63161 2.4841 1.2682 3.7183 1.9172 0.61701 0.31834 1.1704 0.60853 1.7944 0.91215 0.97211 0.47301 1.9648 0.90188 2.9577 1.3288 1.0241 0.44217 2.0478 0.88712 3.0256 1.4265 0.39301 0.2142 0.78684 0.43171 1.1529 0.69012 0.2631 0.29256-0.30437-0.34423 0.23842 0.3128 0.0882 0.10676 0.17689 0.21439 0.27957 0.3073 0.43712 0.39551 0.96219 0.6303 1.5375 0.74528 0.47976 0.09 0.87945 0.15696 1.3577 0.2841 0.77338 0.20558 1.1147 0.34607 1.8856 0.60795 0.6163 0.20937 1.2354 0.41059 1.8515 0.62025 0.69614 0.25038 0.71029 0.25156 1.3783 0.50631 0.50866 0.19401 1.0121 0.4009 1.5198 0.59721 0.14694 0.0568 0.29548 0.10937 0.44323 0.16408 0.96951 0.31492 1.9583 0.56548 2.9544 0.78179 1.3895 0.26311 1.6416-2.6595 0.40088-1.9808z" fill="#fff" stroke-width=".13229"/>
    <path d="m160.75 53.121c-1.8267-0.41113-3.0154-0.81335-5.92-2.0031-2.0114-0.82387-2.6699-1.1135-4.1341-1.8185-4.6194-2.2241-7.4213-3.6338-9.476-4.7676-0.53695-0.29628-0.98895-0.5387-1.0044-0.5387s-0.56342-0.29766-1.2176-0.66146c-0.6542-0.3638-1.2071-0.66146-1.2286-0.66146-0.0215 0-0.56722-0.30724-1.2126-0.68275-1.7851-1.0386-4.6488-2.6263-5.5524-3.0784-3.092-1.547-5.5559-2.3874-8.5526-2.9171l-1.5544-0.27479-3.1089 0.0233c-3.0124 0.0225-3.1418 0.0288-4.1706 0.20136-2.0988 0.35212-3.874 0.80324-5.8836 1.4951-1.5058 0.51843-1.7264 0.60783-3.7516 1.5201-1.4321 0.6451-1.825 0.84787-3.1937 1.648-1.5635 0.91406-3.2879 2.0255-4.1724 2.6891-0.39121 0.29354-0.75833 0.56347-0.81581 0.59985-0.24743 0.1566-0.65125 0.46871-0.86571 0.6691-0.227 0.21211-0.46361 0.39319-0.92604 0.70873-0.12733 0.0869-0.33236 0.25236-0.45563 0.36773-0.12326 0.11536-0.31224 0.27251-0.41996 0.3492-0.10771 0.0767-0.25115 0.2304-0.31874 0.34155-0.08721 0.14341-0.13282 0.17436-0.15705 0.10659-0.05445-0.15226-0.49309-2.6133-0.63185-3.5451l-0.12656-0.84988 0.14508-0.0992c0.07979-0.0546 0.56245-0.48617 1.0726-0.95912 2.9065-2.6947 4.0466-3.6167 6.7568-5.4647 1.4634-0.99781 2.058-1.3743 3.1312-1.9826 3.3534-1.9005 7.1705-3.346 10.718-4.0584 2.0385-0.40947 2.4515-0.44894 5.0431-0.48209 2.614-0.0334 3.2666 4e-3 4.8996 0.28124 2.4643 0.4183 4.7516 1.0669 6.6906 1.8972 1.6006 0.68538 4.7957 2.3116 7.4916 3.8131 0.3366 0.18747 0.6257 0.34085 0.64244 0.34085 0.0168 0 0.36642 0.18337 0.77706 0.40748 0.99978 0.54564 4.0942 2.1061 4.1765 2.1061 0.036 0 0.11311 0.0432 0.17139 0.0959 0.0583 0.0527 0.9536 0.50146 1.9896 0.99715 1.036 0.49569 2.0589 0.98832 2.2732 1.0947s0.43294 0.19348 0.48588 0.19348c0.0529 0 0.17526 0.0534 0.27183 0.11864 0.0966 0.0653 0.45835 0.24563 0.80396 0.40083s0.71265 0.32505 0.81565 0.37745c0.10299 0.0524 0.22575 0.0953 0.27279 0.0953 0.0471 0 0.21884 0.0745 0.38177 0.16558 0.16294 0.0911 0.45953 0.22175 0.65909 0.29041 0.19956 0.0687 0.41974 0.15654 0.48929 0.19528 0.18218 0.10149 2.0627 0.93623 2.1092 0.93623 0.0214 0 0.14968 0.0487 0.28493 0.10828 0.23464 0.10331 1.003 0.3949 1.5688 0.59533 0.14552 0.0515 0.32412 0.12188 0.39688 0.15629 0.0728 0.0344 0.25135 0.10499 0.39687 0.15685 0.14552 0.0519 0.66642 0.24376 1.1576 0.42645 0.74597 0.27748 2.5114 0.84733 4.3326 1.3985 0.34234 0.10361 1.3841 0.34926 1.8774 0.4427 0.14797 0.0281 0.1552 0.0504 0.11801 0.36437-0.0218 0.18398-0.25989 1.0861-0.3339 1.2115-0.074 0.12543 0.0252-0.3087 0.0252-0.17157 0 0.45196-0.53244 2.1824-1.3914 4.5221l-0.4796 1.3064-0.27166-6e-3c-0.14941-4e-3 -0.64373-0.09-1.0985-0.19237z" fill="#00a49a" stroke-width=".066146"/>
   </g>
  </g>
  <text x="24.231108" y="114.19603" fill="#000000" font-family="sans-serif" font-size="50.8px" stroke-width=".26458" style="line-height:1.25" xml:space="preserve"><tspan x="24.231108" y="114.19603" fill="#006ab5" font-family="'DM Serif Text'" font-size="50.8px" stroke-width=".26458">OpenArk</tspan></text>
 </g>
</svg>
