<?xml version="1.0" encoding="UTF-8"?>
<!-- Created with Inkscape (http://www.inkscape.org/) -->
<svg width="147mm" height="146.75mm" version="1.1" viewBox="0 0 147 146.75" xmlns="http://www.w3.org/2000/svg">
 <g transform="translate(-24.994 -78.459)">
  <g stroke-width=".26458">
   <path d="m28.061 144.24c0.4036-0.39682 0.79821-0.80261 1.1975-1.2038 0.2445-0.25445 0.5176-0.47646 0.80041-0.68625 0.43532-0.31636 0.88202-0.61481 1.3112-0.9398 0.73446-0.6006 1.4382-1.2381 2.1535-1.8615 0.12244-0.10708 0.24549-0.21344 0.3673-0.32123 0.12432-0.10999 0.24586-0.2231 0.37108-0.33208 0.37371-0.3252 0.76724-0.62646 1.1585-0.92991 0.36753-0.27916 0.77294-0.50276 1.1809-0.71638 0.56357-0.26885 1.1148-0.55925 1.66-0.86321 0.55776-0.29625 1.1309-0.56443 1.7118-0.81187 0.83379-0.32795 1.6891-0.59732 2.5399-0.87709 0.8799-0.28549 1.7624-0.56891 2.6096-0.94351 0.17282-0.0764 0.34242-0.15997 0.51362-0.23995 0.73165-0.3806 1.4215-0.84566 2.0427-1.389 0.30805-0.26943 0.44099-0.41476 0.71998-0.699 0.55736-0.60751 1.0062-1.3022 1.478-1.9755 0.31774-0.42733 0.65082-0.84294 0.99009-1.2533 0.13404-0.1229 0.24644-0.33904 0.39018-0.44898 0.0016 0 0.0011 4e-3 0.0019 6e-3 0.02003-0.0164 0.04006-0.0331 0.06009-0.0496-0.01471 0.0148-0.03694 0.0246-0.04413 0.0442-0.0037 0.01 0.02093-4e-3 0.03074-8e-3 0.03929-0.0159 0.07721-0.0349 0.11621-0.0514 0.21034-0.089 0.42297-0.17243 0.63623-0.25414 0.61778-0.23399 1.2722-0.33938 1.9187-0.46101 0.85702-0.15745 1.7157-0.30488 2.5711-0.47143 1.0433-0.16706 2.0695-0.41394 3.0932-0.67175 0.94569-0.24837 1.8917-0.51128 2.8529-0.69496 0.73749-0.14094 0.95674-0.14919 1.7303-0.23592 0.37872-0.0275 0.75724-0.0578 1.1362-0.0823 1.0192-0.0661 1.6785-0.0923 2.7032-0.15367 1.1989-0.0718 2.3956-0.16195 3.5921-0.26467 1.0241-0.0856 2.0415-0.22193 3.0498-0.41923 0.73032-0.15356 1.4673-0.27313 2.203-0.39783 1.2867-0.21923 2.5839-0.3597 3.8853-0.44995 1.4651-0.11737 2.9267 0.11949 4.3734 0.3229 2.7524 0.41611 5.5084 0.80867 8.2658 1.1899 1.2255 0.17893 2.456 0.34507 3.6676 0.60637 0.53453 0.11528 0.93299 0.22802 1.4626 0.36875 1.1606 0.36777 2.3257 0.74266 3.4345 1.2503 0.17484 0.08 0.34596 0.16798 0.51894 0.25196 0.17651 0.0955 0.35443 0.18841 0.52955 0.28641 0.62163 0.3479 0.6945 0.40891 1.3468 0.78856 0.8012 0.46636 1.6063 0.92369 2.4011 1.401 0.61968 0.39338 1.2299 0.80825 1.7949 1.2781 0.21472 0.17856 0.42357 0.36406 0.63596 0.54541 0.11922 0.0973 0.23931 0.19351 0.35767 0.29183 0.39255 0.32615 0.30089 0.27718 0.80824 0.63593 0.59828 0.42307 1.233 0.77422 1.8762 1.1226 1.7041 0.84476 3.5427 1.3457 5.3642 1.8632 1.7455 0.44993 3.3823 1.2128 5.047 1.8862 0.47295 0.19129 0.94908 0.37465 1.4236 0.562 2.9423 1.1352 5.9847 1.9774 8.9974 2.8995 1.4827 0.47109 2.9724 0.9272 4.428 1.4788 0.59518 0.22555 0.92019 0.37105 1.498 0.61782 1.2444 0.57182 2.4261 1.268 3.6348 1.91 1.6409 0.86974 3.4171 1.4307 5.1878 1.9668 1.4402 0.42852 2.9113 0.7356 4.3786 1.0531 0.56522 0.11785 1.1262 0.24689 1.6795 0.41151 0.57603 0.16558 1.1648 0.27993 1.7471 0.41963 0.55908 0.13295 1.1164 0.27003 1.6684 0.42995 0.4992 0.13417 0.99088 0.29292 1.4826 0.45164 0.53964 0.15867 1.0758 0.3288 1.6119 0.49906 0.3854 0.12888 0.77219 0.25373 1.1573 0.38354 0.42236 0.15324 0.84714 0.29948 1.2746 0.43833 0.45555 0.14965 0.91492 0.28787 1.3776 0.41373 0.31347 0.0855 0.62799 0.1669 0.94191 0.25075 0.20726 0.0667 0.41616 0.12888 0.6257 0.18812 0.33306 0.10525 0.67135 0.19523 1.0096 0.28252 0.27304 0.0802 0.54809 0.15335 0.82431 0.22172 0.0583 0.0132 0.11676 0.0259 0.175 0.0396 0.0891 0.0209 0.17785 0.0438 0.26667 0.0659 0.12151 0.0303 0.16173 0.0342 0.10203 0.0273 0.26744 0.0939 0.54452 0.14608 0.82573 0.17603 0.16926 0.0143 0.33916 0.0172 0.50893 0.0172 0.069-2.4e-4 0.13797 0 0.20696 0 0.52829-0.0303 1.0793-0.15799 1.4635-0.56944 0.23276-0.24919 0.3635-0.57703 0.54525-0.86556 0.0305-0.24482 0.23491-0.40041 0.26541-0.64523-0.15341-2.8242-4.3214-2.6965-4.168 0.12776 0.0311-0.23416 0.0621-0.46831 0.0932-0.70247 0.17914-0.28033 0.30908-0.59904 0.5374-0.84103 0.33205-0.3519 0.79282-0.48683 1.2496-0.50398-0.0656 2.4e-4 -0.1311 0-0.19665 0-0.0469 8e-5 -0.0938 0-0.14069 0 0.22656 0.0406 0.13946 0.0416-0.0204-0.0177-0.25224-0.0729-0.50688-0.13684-0.76335-0.19327-0.26178-0.0626-0.52024-0.1382-0.77947-0.21045-0.31192-0.0797-0.6228-0.1642-0.92981-0.26115-0.22483-0.0604-0.44533-0.13557-0.66901-0.19994-0.30996-0.0827-0.6205-0.16307-0.93001-0.24755-0.39897-0.10681-0.79378-0.22886-1.1864-0.35689-0.41442-0.13444-0.82585-0.27692-1.2354-0.42537-0.40644-0.13632-0.81402-0.26924-1.2209-0.40431-0.53009-0.16833-1.0601-0.3374-1.594-0.49332-0.53046-0.17119-1.0611-0.34179-1.5993-0.48739-0.61498-0.1778-1.2355-0.33224-1.8583-0.4799-0.51029-0.1198-1.0242-0.2249-1.5304-0.36187-0.65001-0.19264-1.3082-0.34854-1.972-0.48644-1.3624-0.29482-2.7289-0.57705-4.0668-0.97242-1.5227-0.45979-3.0559-0.92863-4.4697-1.6708-1.3092-0.69493-2.588-1.4512-3.9425-2.0569-0.68877-0.29297-0.99203-0.42974-1.7066-0.6999-1.5181-0.57388-3.0707-1.0514-4.617-1.5418-2.9124-0.89122-5.8538-1.7039-8.7-2.7955-0.45196-0.17817-0.90552-0.35238-1.3559-0.53454-1.8097-0.73208-3.5923-1.5513-5.4896-2.0404-1.5428-0.43828-3.1032-0.85101-4.5596-1.5367-0.58468-0.31303-1.1785-0.62632-1.7014-1.0389-0.12184-0.0961-0.23611-0.20148-0.35551-0.30065-0.0943-0.0783-0.19028-0.15441-0.28542-0.23161-0.055-0.047-0.71821-0.61339-0.73908-0.63053-0.70466-0.57865-1.4587-1.0966-2.2306-1.5806-0.80105-0.48056-1.6119-0.94194-2.4192-1.4118-0.66288-0.38584-0.84182-0.51062-1.4955-0.87254-0.22654-0.12544-0.45693-0.24381-0.68539-0.36573-0.22458-0.1075-0.44694-0.21977-0.67373-0.32253-1.29-0.58439-2.6408-1.0261-3.9922-1.4429-0.68649-0.18108-1.0252-0.27887-1.7231-0.42841-1.2831-0.27501-2.5853-0.45339-3.8829-0.64217-2.7551-0.38087-5.5087-0.7733-8.2589-1.1889-1.7233-0.2404-3.4627-0.49739-5.207-0.35181-1.432 0.1008-2.8596 0.25482-4.2753 0.49654-0.77016 0.13073-1.5417 0.25633-2.3063 0.41674-0.86591 0.17159-1.7405 0.28414-2.6202 0.35867-1.1561 0.0996-2.3123 0.1868-3.4707 0.25609-0.88583 0.053-1.8911 0.0994-2.7769 0.15844-0.43304 0.0289-0.86556 0.0651-1.2983 0.0976-0.38033 0.0447-0.76185 0.0801-1.141 0.13396-1.3418 0.19056-2.654 0.54684-3.962 0.89186-0.3477 0.0876-0.69405 0.18071-1.0431 0.26257-0.6081 0.14261-1.2243 0.24937-1.8384 0.36193-0.847 0.16526-1.6977 0.31004-2.5463 0.46667-0.88384 0.16663-1.7731 0.33099-2.6147 0.65873-0.65831 0.25413-1.3297 0.50829-1.8888 0.95076-0.35049 0.30011-0.66236 0.63539-0.94935 0.99668-0.40658 0.49228-0.806 0.99087-1.1828 1.5064-0.34837 0.49758-0.68126 1.0085-1.0665 1.4786-0.1203 0.12481-0.28194 0.2971-0.41172 0.41424-0.36199 0.32673-0.76616 0.60817-1.1907 0.84679-0.86009 0.40984-1.7589 0.72028-2.6682 1.0023-0.96117 0.31607-1.9276 0.62084-2.8661 1.0004-0.70685 0.30438-1.4064 0.62831-2.0836 0.99457-0.16761 0.0934-0.3331 0.19069-0.50208 0.28162-0.35278 0.18984-0.7219 0.34774-1.0752 0.53671-0.61297 0.32443-1.2179 0.66895-1.7677 1.0944-0.32958 0.25564-0.6599 0.51009-0.98083 0.77663-0.46529 0.38643-0.30448 0.25813-0.73054 0.63514-0.12013 0.10631-0.24148 0.21119-0.36222 0.31681-0.64783 0.5647-1.2879 1.1389-1.9455 1.6921-0.4191 0.32009-0.86248 0.60497-1.2852 0.9202-0.43741 0.32834-0.85982 0.67619-1.2415 1.0691-0.38805 0.39007-0.51742 3.05-0.9095 3.4361-0.57302 3.5331 1.0916 1.9162 2.5471 0.5884z" fill="#fff"/>
   <path d="m48.041 203.91c0.37819 0.1334 0.77304 0.22836 1.1722 0.27172 0.10159 0.0111 0.20372 0.0164 0.30558 0.0246 0.3574 0.0193 0.71431 0 1.0688-0.0465 0.06148-0.0132 0.12294-0.0122 0.18521-0.0138 0.13919 0 0.27781-4e-3 0.41687-0.0106 0.18162-0.0148 0.32954-0.0482 0.51672-0.0954 0.0481-0.0122 0.09404-0.0317 0.14095-0.0478 0.0098-3e-3 0.03922-0.0135 0.02923-0.0109-0.09219 0.0259-0.18392 0.0533-0.27589 0.08-0.03575 6e-3 -0.0715 0.0122-0.10725 0.0182-5.3e-4 0-0.0021 3e-3 -0.0013 3e-3 0.32036-0.0188 0.6346-0.0736 0.94974-0.13142 0.70582-0.14338 1.413-0.27874 2.1216-0.40719 0.60498-0.11581 1.2191-0.15952 1.8334-0.18426 0.54815-0.027 1.0965-0.0422 1.6439-0.082 0.60574-0.056 1.2108-0.11959 1.8145-0.19439 0.95424-0.11914 1.9063-0.25513 2.8613-0.36777 1.5981-0.19245 3.2026-0.32236 4.8054-0.46778 1.5006-0.14563 2.9988-0.31361 4.4989-0.46376 1.4437-0.1402 2.8955-0.14759 4.3446-0.16291 1.3582-0.01 2.7182-0.0116 4.074-0.10363 0.20567-0.014 0.41094-0.0331 0.61641-0.0497 0.96481-0.10507 1.9294-0.20508 2.8987-0.25704 1.2143-0.0491 2.4301-0.0465 3.6452-0.0491 0.98576 8e-3 1.9721-0.0167 2.9577 9e-3 0.7901 0.0201 0.95307 0.038 1.7598 0.088 2.3378 0.14756 4.6643 0.4223 6.9847 0.7371 1.2287 0.17656 2.4554 0.37126 3.6729 0.61442 0.59654 0.11914 0.74653 0.15798 1.3347 0.2931 1.9161 0.45524 3.8261 0.93483 5.7344 1.4218 0.89362 0.23071 1.7776 0.50022 2.6347 0.84383 0.36479 0.14624 0.77682 0.33324 1.1356 0.49263 1.0495 0.48837 2.0796 1.0165 3.1203 1.5231 0.80525 0.38248 1.6172 0.75033 2.4305 1.1152 0.46922 0.21318 0.93336 0.43768 1.3964 0.66398 0.4843 0.24802 0.97793 0.47688 1.4669 0.71527 0.39696 0.2045 0.80867 0.38563 1.1894 0.62048 0.0904 0.0558 0.67276 0.4587 0.67825 0.46246 1.0904 0.75499 2.2317 1.4324 3.3944 2.069 0.69846 0.3811 1.4181 0.72088 2.1372 1.0605 0.34754 0.16566 0.70544 0.30758 1.049 0.48144 0.31935 0.15108 0.63814 0.30318 0.95676 0.45582 0.16697 0.0841 0.33682 0.16275 0.50206 0.25025 0.1833 0.0907 0.36418 0.18576 0.54941 0.27268 0.16301 0.0792 0.32747 0.15472 0.4954 0.22291 0.13206 0.0551 0.26931 0.0947 0.40668 0.13369 2.7322 0.73149 3.7667-3.1324 1.0345-3.8639 0.0197 7e-3 0.0433 0.013 0.0615 0.0233-0.0359-0.0145-0.21304-0.0928-0.3207-0.14719-0.13196-0.0548-0.2519-0.1343-0.38321-0.19119-0.20448-0.10541-0.41127-0.20605-0.61756-0.30789-0.2953-0.14145-0.59036-0.28327-0.8871-0.42162-0.37407-0.18748-0.75829-0.35134-1.1388-0.52522-0.64765-0.30581-1.2964-0.61026-1.9258-0.95284-1.0451-0.57082-2.0705-1.1792-3.05-1.8574-0.34354-0.23534-0.62653-0.43653-0.98249-0.65185-0.44972-0.27202-0.92933-0.49157-1.3972-0.72935-0.48803-0.23757-0.98032-0.4663-1.4636-0.71363-0.50212-0.24498-1.0051-0.48861-1.5141-0.71909-0.77527-0.34782-1.5493-0.69829-2.3172-1.0622-1.0833-0.52729-2.1552-1.0782-3.2493-1.5831-0.48317-0.21397-0.85153-0.38238-1.3462-0.57896-0.99519-0.3955-2.0204-0.70853-3.0565-0.97674-1.94-0.49514-3.8819-0.98261-5.83-1.445-0.66001-0.15092-0.81192-0.1905-1.4802-0.32361-1.2874-0.25641-2.5844-0.46247-3.8837-0.64873-2.4175-0.32742-4.8415-0.61272-7.2772-0.76587-0.91505-0.0555-1.0598-0.0728-1.9558-0.0952-1.0048-0.0251-2.0104 0-3.0153-9e-3 -1.2846 3e-3 -2.5698 0-3.8534 0.055-1.0053 0.0553-2.0067 0.15161-3.0072 0.2644-1.4658 0.1215-2.937 0.13825-4.4073 0.14031-1.5679 0.0167-3.1386 0.0285-4.7005 0.18254-1.4878 0.14896-2.9737 0.31517-4.4619 0.46027-1.6391 0.14869-3.2798 0.28207-4.9141 0.47913-0.96274 0.11427-1.9227 0.24956-2.8846 0.3706-0.53841 0.0672-1.0782 0.1229-1.6182 0.17489-0.50337 0.0388-1.0082 0.0466-1.5123 0.0744-0.79799 0.0338-1.5953 0.096-2.3812 0.24495-0.71399 0.12938-1.4266 0.26498-2.1376 0.4101-0.11582 0.0217-0.23547 0.0508-0.35312 0.0638-0.08852 0.01-0.17794 0.01-0.2665 0.0188-0.07873 8e-3 -0.15696 0.0209-0.23544 0.0312-0.12067 0.0321-0.24152 0.0635-0.36201 0.0963-0.0078 3e-3 -0.03063 0.0109-0.02286 8e-3 0.0286-9e-3 0.05625-0.0209 0.0854-0.0275 0.09854-0.0225 0.1983-0.0393 0.29724-0.06 0.0083-3e-3 -0.03373 3e-3 -0.02524 3e-3 0.0159 0 0.0317-3e-3 0.04754-4e-3 0.03917 0 0.07836 0 0.11751-3e-3 0.01688 0-0.03379-3e-5 -0.05069 0-0.0918 1.1e-4 -0.18359 0-0.27537 3e-3 -0.20121 6e-3 -0.40248 0.0161-0.60174 0.0463-0.09887 0.0135-0.1908 0.0236-0.297 0.0204-0.05575 0.019-0.2947-0.0381-0.36415-0.0641-2.6586-0.96536-4.0238 2.7944-1.3652 3.7598z" fill="#b9e1ec"/>
   <path d="m50.174 199.2c-0.41401 0.14854-0.80226 0.35751-1.2061 0.5297 0.0016 0.0236-0.33341 0.0959-0.18857 0.0592 0.21783-0.0172-0.07054-0.0254-0.1113-0.0291-0.04772-0.0156-0.28194-7e-3 -0.0496-3e-3 0.01669 2.6e-4 -0.03298-5e-3 -0.0495-8e-3 -0.09352-0.014-0.08169-0.0119-0.18-0.0246-0.15644-0.0201-0.31389-0.0296-0.47147-0.0339-0.21639-9e-3 -0.43226 0.0135-0.64507 0.0517-0.08332 0.0138-0.11304 0.022-0.22956 0.0462-2.7469 0.67392-1.7939 4.5587 0.95307 3.8848-0.28906 0.0551-0.07968 0.0153-0.01336 6e-3 0.0085-3e-3 0.03423-5e-3 0.02556-5e-3 -0.08534-3e-3 -0.3784 0.0201-0.18944 0.0154 0.02254 2.1e-4 0.04506-1.6e-4 0.06744 3e-3 0.14154 0.0164 0.28193 0.0437 0.42446 0.0514 0.32916 0.0295 0.66098 0.0555 0.99035 0.0108 0.43371-0.0654 0.8571-0.17769 1.2594-0.35575 0.19002-0.0832 0.37735-0.17095 0.56576-0.25768 0.05531-0.0254 0.25195-0.11435 0.31236-0.14648 2.6834-0.8941 1.4189-4.6889-1.2645-3.7948z" fill="#b9e1ec"/>
  </g>
  <g transform="translate(61.568 -43.658)" stroke-width=".26458">
   <g fill="#00ad68">
    <path d="m-31.67 206.72c-5.56e-4 0-0.0011 3e-3 -0.0017 3e-3 -0.0048 8e-3 -0.0094 0.0159-0.01429 0.0238-3.97e-4 0-0.0017 3e-3 -0.0016 3e-3 2.92e-4 -3e-3 0.0035-6e-3 0.0021-5e-3 -0.01016 0.0124-0.0052 8e-3 -0.01362 0.0146-0.0087 0.0101-0.01722 0.0204-0.02611 0.0305-0.02108 0.0238-0.03724 0.04-0.05976 0.0628-0.05312 0.0538-0.10732 0.10637-0.16185 0.1587-0.01961 0.0185-0.0391 0.037-0.05883 0.0554-0.01615 0.0151-0.03248 0.0298-0.04879 0.0446-0.01551 0.014-0.05289 0.0485-0.07353 0.0652-4.49e-4 0 1.71e-4 0 5.56e-4 -3e-3 2e-3 -3e-3 0.0043-4e-3 0.0065-6e-3 0.07327-0.0581 0.15484-0.10523 0.23876-0.14611 0.0046-3e-3 0.01855-8e-3 0.0138-6e-3 -0.01861 7e-3 -0.03639 0.0159-0.05461 0.0238-0.0046 3e-3 0.01852-5e-3 0.01371-6e-3 -5e-3 -3e-3 -0.0095 4e-3 -0.01432 6e-3 -0.0017 0-0.0033 0-5e-3 3e-3 -0.13321 0.0544-0.26223 0.1193-0.38447 0.19529-0.02696 0.0167-0.05349 0.0342-0.08024 0.0513-0.07919 0.053-0.15749 0.10766-0.23224 0.16685-0.07803 0.0618-0.09063 0.0739-0.15931 0.13366-0.08696 0.076-0.16666 0.15947-0.24508 0.24403-0.02569 0.0277-0.05066 0.0561-0.07688 0.0833-8.47e-4 0-0.0018 0-0.0025 3e-3 -0.04999 0.0482-0.09769 0.0987-0.14872 0.14584-0.0758 0.0665-0.15205 0.13255-0.22828 0.19862-0.07088 0.0579-0.14312 0.11409-0.21533 0.17029-0.05621 0.0442-0.11261 0.0883-0.1689 0.13242-0.07212 0.0555-0.1413 0.11454-0.20892 0.17539-0.0862 0.0788-0.16676 0.16378-0.2403 0.25453-0.04404 0.0543-0.05396 0.0695-0.09519 0.12613-0.08829 0.12636-0.1621 0.25958-0.22277 0.40177-0.02766 0.0649-0.05025 0.13179-0.07213 0.19878-0.02867 0.0878-0.03987 0.14944-0.0586 0.23693-0.53194 2.7779 3.3966 3.5302 3.9286 0.75229-0.01585 0.0723-0.02543 0.12351-0.04974 0.19627-0.01986 0.0594-0.04022 0.11885-0.06517 0.17635-0.05294 0.12199-0.11566 0.2359-0.19216 0.34406-0.01151 0.0156-0.02276 0.0315-0.03454 0.0469-0.0621 0.0814-0.13153 0.15725-0.20748 0.22588-0.01424 0.0124-0.02874 0.0246-0.0435 0.0364-7.94e-4 0 0.0015-3e-3 0.0024-3e-3 0.0051-4e-3 0.01024-8e-3 0.01537-0.0122 0.0054-4e-3 0.01085-8e-3 0.01628-0.013 0.05112-0.0405 0.1029-0.0801 0.15395-0.12073 0.12766-0.0994 0.25528-0.19897 0.37825-0.30416 0.12091-0.10486 0.24267-0.20881 0.35984-0.31787 0.10613-0.10129 0.21061-0.20431 0.31269-0.30967 0.07563-0.0809 0.02787-0.0293 0.07944-0.0856 0.01052-0.0114 0.02128-0.0228 0.0316-0.0344 2e-3 -3e-3 -0.0045 4e-3 -0.0067 6e-3 -0.03788 0.0357-0.01797 0.0177-0.05318 0.0484-0.01495 0.01 4e-3 -3e-3 -0.03574 0.0273-0.0048 4e-3 -0.0099 7e-3 -0.01488 0.0106-0.0013 0-5e-3 4e-3 -0.0041 3e-3 0.0011-3e-3 0.0034-3e-3 0.0048-3e-3 8.73e-4 0-0.0022 0-0.0034 3e-3 -0.01237 8e-3 -0.02466 0.0153-0.03712 0.023-0.06026 0.0364-0.12423 0.0668-0.18925 0.0936 0.0668-0.0273 0.13315-0.0556 0.19905-0.085 0.06914-0.0323 0.09598-0.0438 0.16818-0.0824 0.13395-0.0716 0.26156-0.15471 0.38177-0.24752 0.08253-0.0649 0.09203-0.0711 0.17477-0.14171 0.11244-0.096 0.21984-0.19783 0.32738-0.29922 0.07919-0.0765 0.11961-0.1147 0.19749-0.19341 0.15024-0.15187 0.29518-0.30919 0.42737-0.47718 0.03282-0.0429 0.06634-0.0852 0.09847-0.12858 0.08345-0.11272 0.15984-0.23054 0.23074-0.35148 1.4277-2.4416-2.0252-4.4607-3.453-2.0191z"/>
    <path d="m-25.022 206.92c1.1808-0.88847 2.4214-1.6942 3.6611-2.497 1.1481-0.74789 2.2924-1.5024 3.4212-2.2792 0.99494-0.68472 1.9785-1.3868 2.9647-2.084 0.46581-0.32089 1.1818-0.8241 1.6698-1.1219 0.59509-0.3632 1.1582-0.65858 1.7934-0.94639 0.87353-0.39571 1.0466-0.43267 1.9532-0.74766 2.0612-0.61595 4.1693-1.0566 6.2681-1.5218 1.7329-0.36947 3.447-0.81658 5.1566-1.28 1.0051-0.26715 1.9973-0.57896 2.9948-0.87235 0.52082-0.16426 1.0471-0.30753 1.5815-0.41977 0.60323-0.12535 1.2027-0.26749 1.8033-0.40481 0.23414-0.051 0.46708-0.10723 0.70029-0.16229 2.7527-0.64985 1.8337-4.5428-0.91905-3.893-0.22427 0.0529-0.44824 0.10724-0.67346 0.15602-0.58016 0.13283-1.1593 0.27017-1.7421 0.39135-0.63419 0.13576-1.2613 0.29948-1.8798 0.49519-0.96992 0.28562-1.9349 0.58862-2.9121 0.84897-1.6496 0.44723-3.3034 0.8795-4.9756 1.2354-2.2548 0.49975-4.5203 0.97272-6.7293 1.6535-1.0974 0.3895-1.342 0.44797-2.3954 0.93366-0.80834 0.37272-1.4587 0.72343-2.2163 1.1879-0.30464 0.18677-0.59992 0.38846-0.89644 0.58785-0.29925 0.20125-0.59384 0.40934-0.89076 0.614-0.96435 0.6818-1.9259 1.3687-2.8987 2.0384-1.1062 0.76144-2.2276 1.5009-3.3528 2.2338-1.3316 0.86302-2.6638 1.7298-3.9301 2.6874-2.2392 1.728 0.20459 4.8947 2.4438 3.1667z"/>
    <path d="m-28.199 208.68c0.75461-0.35483 1.5339-0.65315 2.3137-0.94713 0.52473-0.19235 0.27508-0.10266 0.74863-0.27001 2.6664-0.94334 1.3323-4.7143-1.3341-3.7709-0.52854 0.1872-0.25288 0.088-0.82667 0.29853-0.89336 0.3374-1.7854 0.68146-2.6486 1.0913-2.5443 1.2354-0.79725 4.8336 1.7471 3.5982z"/>
    <path d="m11.872 192.41c1.9264 0.0266 3.8488 0.20582 5.7674 0.37095 1.7681 0.14938 3.5343 0.32019 5.3059 0.42386 0.17362 8e-3 0.3472 0.0169 0.52087 0.0238 0.40092 0.0159 0.80184 0.0228 1.2018 0.0569 0.25093 0.0214 0.50107 0.0514 0.75159 0.0772 0.51011 0.0753 1.0224 0.14697 1.527 0.25508 0.09942 0.0214 1.0067 0.24085 1.0104 0.24175 1.7175 0.47482 3.442 0.92192 5.1731 1.3442 1.3632 0.3287 2.7344 0.62537 4.087 0.9965 0.59867 0.14473 1.156 0.40482 1.7203 0.64374 0.74701 0.30138 1.5091 0.56263 2.2536 0.87042 0.51206 0.22339 0.99217 0.50684 1.4766 0.78275 1.0838 0.61724-0.03974-0.0325 1.0292 0.58859 1.2099 0.72959 2.489 1.3279 3.7736 1.911 0.81615 0.34882 1.6141 0.73959 2.3784 1.1914 0.53681 0.31734 0.97331 0.60111 1.503 0.93763 1.5661 1.0176 3.1687 1.9765 4.79 2.9029 1.3205 0.7517 2.6581 1.4726 3.981 2.22 1.4705 0.80635 2.8229 1.7979 4.1799 2.777 1.2325 0.90834 2.5051 1.7594 3.7756 2.6129 1.1367 0.79796 2.3636 1.4511 3.5769 2.1221 1.4531 0.80253 2.9008 1.6203 4.3987 2.3379 1.1914 0.57073 1.6396 0.74189 2.8545 1.2528 1.2666 0.49588 2.5577 0.92628 3.8512 1.3458 0.28724 0.0932 0.57313 0.19111 0.86371 0.27323 0.41431 0.11708 0.89076 0.21252 1.3162 0.30292 0.76948 0.14891 1.5383 0.30261 2.3174 0.39164 0.2175 0.0287 0.43913 0.0423 0.65449 0.0863 0.04018 8e-3 0.07835 0.0243 0.11758 0.0362 0.34075 0.10367 0.13836 0.0382 0.50069 0.16145 0.51694 0.17696 1.0318 0.35806 1.5371 0.56634 0.8078 0.32533 1.6007 0.68403 2.3836 1.065 0.78615 0.40304 1.558 0.83325 2.3359 1.2518 0.34655 0.17177 0.16692 0.0898 0.53958 0.24442 2.6369 1.023 4.0836-2.7062 1.4467-3.7292 0.06151 0.0423 0.03519 0.0222-0.09175-0.0381-0.82625-0.44411-1.6451-0.90237-2.4819-1.3266-0.85852-0.41679-1.7274-0.81078-2.6128-1.1676-0.58836-0.24082-1.1861-0.45521-1.788-0.65971-0.31338-0.10358-0.51176-0.17531-0.83219-0.25659-0.4176-0.10594-0.84218-0.1683-1.2706-0.20968-0.64904-0.0668-1.2861-0.21535-1.9278-0.32906-0.1067-0.0225-0.82587-0.17172-0.93847-0.20352-0.27368-0.0773-0.54301-0.16931-0.81354-0.25702-1.1945-0.3873-2.3873-0.78317-3.5588-1.2363-1.0742-0.45014-1.556-0.63649-2.6051-1.1379-1.4517-0.69379-2.8528-1.4881-4.2606-2.265-1.1126-0.61526-2.2408-1.2091-3.2823-1.9421-1.2335-0.8286-2.4694-1.654-3.6657-2.5363-1.4769-1.0656-2.9534-2.1377-4.5531-3.016-1.3174-0.74395-2.6487-1.4626-3.964-2.2104-1.5675-0.89543-3.1168-1.8226-4.6306-2.8068-0.59911-0.38005-1.0687-0.68559-1.6791-1.0432-0.86758-0.50829-1.7695-0.95477-2.6932-1.3514-1.1633-0.52769-2.3237-1.0648-3.418-1.7276-0.97935-0.56825-1.9543-1.1518-2.9911-1.6108-0.73353-0.3011-1.4801-0.56706-2.2184-0.85577-0.72823-0.30771-1.4529-0.62868-2.2239-0.81817-1.3887-0.37833-2.794-0.69043-4.1939-1.0241-0.91265-0.22252-1.8241-0.44821-2.7326-0.68734-1.6166-0.42547-0.15298-0.0433-1.7096-0.4641-0.24677-0.0667-0.4944-0.13023-0.74161-0.19532-0.29169-0.0703-0.90148-0.21947-1.202-0.283-0.61525-0.13007-1.2396-0.21801-1.8621-0.30403-0.1844-0.019-0.72141-0.0752-0.89261-0.0893-0.5854-0.0482-1.1728-0.052-1.7591-0.0828-1.7349-0.10081-3.4645-0.27101-5.1961-0.41598-2.0326-0.17468-4.0691-0.3625-6.1102-0.38563-2.8284 0-2.8284 4 0 4z"/>
   </g>
   <path d="m87.76 236.31c0.58453 0.26008 1.1813 0.49757 1.7576 0.77557 0.67615 0.30083 1.305 0.69017 1.9522 1.047 0.58034 0.33115 1.1749 0.63217 1.7804 0.91403 0.30863 0.15102 0.64381 0.23881 0.95978 0.37007-1.4973-0.40402 1.2931-3.7468 1.0356-3.8478-0.14317-0.0561-0.28804-0.0981-0.42801-0.16288-0.28516-0.12793-0.55855-0.28025-0.84182-0.41421-0.17593-0.0728-0.35892-0.12594-0.53783-0.1902-0.02671-0.01 0.09618 0.0491 0.08144 0.0249-0.01609-0.0265-0.0553-0.028-0.08294-0.042-0.40129-0.18314-0.78717-0.39677-1.1785-0.60042-0.77906-0.39349-1.5492-0.79941-2.343-1.1633-1.0868-0.49604-2.179-0.98033-3.2647-1.4788-0.48869-0.25691-1.0335-0.41571-1.4894-0.7331-0.52522-0.35835-1.0928-0.64823-1.6677-0.91686-0.84149-0.37971-1.7458-0.56523-2.644-0.75293-1.0821-0.19952-2.1482-0.4555-3.2009-0.77465-1.0787-0.33102-2.1497-0.68789-3.1922-1.1204-1.0902-0.48961-2.1066-1.126-3.1378-1.7261-1.422-0.78476-2.8737-1.5116-4.293-2.3021-1.2294-0.69197-2.4976-1.3104-3.7353-1.9869-1.2937-0.68903-2.5782-1.3938-3.8265-2.1624-0.89245-0.54549-1.7334-1.1683-2.6153-1.7298-0.42677-0.27173-0.90488-0.5578-1.339-0.82042-0.91712-0.55764-1.8602-1.0708-2.7669-1.6454-0.84289-0.56835-1.6966-1.1151-2.5886-1.6032-0.98448-0.48718-1.9841-0.94094-3.0085-1.3374-0.76618-0.27223-1.5259-0.56168-2.2853-0.85212-0.71273-0.27783-1.4208-0.56731-2.1344-0.84304-1.0358-0.35578-2.084-0.6736-3.1184-1.034-1.0176-0.32737-2.0149-0.70779-3.0024-1.1159-0.9676-0.39727-1.9-0.87238-2.8417-1.3257-1.4395-0.69072-2.9781-1.1374-4.5051-1.5876-1.9823-0.59979-4.0019-1.0683-6.0255-1.5048-1.8403-0.39386-3.6918-0.73199-5.5366-1.1035-0.92818-0.18825-1.8549-0.38095-2.7841-0.56346-0.75732-0.14409-1.5222-0.24291-2.288-0.32885-1.0279-0.11662-2.0614-0.24442-3.0977-0.24963-0.32767-3e-3 -0.65516 0.0153-0.98274 0.023-1.7788 0.0708-3.5477 0.28027-5.3153 0.48146-1.2331 0.13756-2.4653 0.2825-3.6872 0.49935-1.0938 0.25355-2.1822 0.53427-3.2647 0.83243-1.2363 0.31456-2.3897 0.84852-3.5166 1.4338-0.93874 0.53028-1.8685 1.0717-2.8544 1.5105-1.1002 0.4908-2.2598 0.82915-3.41 1.1799-1.279 0.38738-2.5465 0.81254-3.7899 1.3026-0.64754 0.28567-1.3034 0.54885-1.9663 0.79663-0.56042 0.21566-1.1403 0.37304-1.719 0.53049-0.89546 0.23559-1.7877 0.47718-2.6571 0.79685-0.97583 0.38809-1.8891 0.90987-2.7898 1.4452-0.62896 0.40468-1.2226 0.86005-1.805 1.3281-0.34256 0.25596-0.6841 0.51379-1.0146 0.78528-0.45309 0.37775-0.84635 0.81714-1.2071 1.282-0.04214 0.0576-0.08587 0.11417-0.12641 0.17293-0.15273 0.22149-0.29068 0.44805-0.42499 0.68075-0.01172 0.0204 0.0218-0.0415 0.0327-0.0623-0.02721 0.0449-0.05469 0.0896-0.08162 0.13473-0.03225 0.0539 0.0622-0.11038 0.10392-0.15743 0.05351-0.0603 0.12307-0.1075 0.16685-0.17526 0.03194-0.0494-0.08857 0.0775-0.13286 0.11626-0.73299 0.71414 0.17277-0.17238-0.32226 0.31274-0.03125 0.0306 0.12773-0.11962 0.09524-0.0903-0.07156 0.0645-0.143 0.12914-0.2145 0.19372 0.0554-0.0751 0.46385-0.35658 0.08152-0.0892-0.09641 0.0674 0.20164-0.12166 0.30642-0.17518-2.6334 1.0319-1.1741 4.7562 1.4593 3.7242 0.48414-0.22318 0.57484-0.27805 0.96112-0.61164-0.49069 0.41301 0.6816-0.59346 0.20744-0.20296 0.27722-0.23755 0.54826-0.48837 0.72963-0.80987 0.11223-0.18391 0.20059-0.34578 0.34845-0.54805 0.16055-0.24088 0.38121-0.44008 0.59245-0.63463 0.29225-0.26779 0.64058-0.47435 0.94494-0.72806 0.43737-0.35152 0.88154-0.69442 1.3464-1.0095 0.6951-0.41527 1.3983-0.82323 2.1467-1.1362 0.74798-0.28961 1.5328-0.46511 2.3036-0.68276 0.69723-0.18989 1.3943-0.38447 2.0697-0.64355 0.6855-0.25654 1.3654-0.52604 2.0346-0.82288 1.1431-0.45275 2.311-0.83896 3.4871-1.1968 1.3116-0.39997 2.6307-0.79393 3.8836-1.3578 1.0521-0.47659 2.0616-1.0301 3.06-1.6101 0.87757-0.45744 1.7692-0.88739 2.7356-1.1267 0.96336-0.26694 1.9336-0.50998 2.9039-0.75054 1.1379-0.20534 2.2874-0.33078 3.4356-0.46255 1.6554-0.18843 3.3117-0.38687 4.9773-0.45746 0.2327-8e-3 0.46525-0.0254 0.6981-0.0251 0.9454 3e-3 1.8881 0.12251 2.8256 0.22874 0.65666 0.0723 1.3124 0.15721 1.9619 0.27887 0.9225 0.18007 1.8419 0.37346 2.7633 0.55933 1.827 0.3675 3.6603 0.70305 5.483 1.0923 1.9273 0.41495 3.8508 0.86035 5.7386 1.4318 1.3202 0.38812 2.6544 0.76502 3.9016 1.3554 1.01 0.48488 2.0096 0.99412 3.0478 1.4177 1.0578 0.43666 2.1258 0.84513 3.2152 1.1968 0.99268 0.34494 1.9957 0.6576 2.993 0.98798 0.71749 0.27625 1.4284 0.56923 2.1452 0.8472 0.75622 0.28919 1.5125 0.5783 2.2758 0.84846 0.86322 0.33081 1.7015 0.71811 2.5346 1.1183 0.81776 0.44193 1.5886 0.95689 2.3627 1.4705 0.93028 0.58751 1.8929 1.1198 2.8352 1.6876 0.37018 0.22379 0.85974 0.51708 1.224 0.74816 0.91279 0.57904 1.7799 1.2271 2.7055 1.7869 1.3075 0.80266 2.6488 1.5458 4.0038 2.2653 1.2286 0.67064 2.4855 1.287 3.7068 1.9711 1.3975 0.77798 2.8243 1.4982 4.2275 2.2648 1.1875 0.69067 2.36 1.4196 3.6236 1.9663 1.1649 0.47853 2.3564 0.88583 3.5612 1.252 1.1648 0.35081 2.3433 0.63966 3.5398 0.86109 0.59869 0.12499 1.2055 0.23098 1.7744 0.46405 0.40545 0.18762 0.80731 0.38775 1.1748 0.64368 0.63414 0.40336 1.3158 0.70911 2.0011 1.0149 1.0879 0.49932 2.182 0.98465 3.2709 1.4816 0.73299 0.33369 1.4404 0.71316 2.1601 1.074 0.38182 0.19841 0.75898 0.40756 1.1488 0.58996 0.0079 4e-3 -0.01371-0.0108-0.02053-0.0161 0.28624 0.14798 0.58164 0.29067 0.8928 0.37926 0.02236 6e-3 -0.04188-0.0201-0.06282-0.0303-0.01939-0.0116-0.07835-0.0457-0.05818-0.0353 0.24364 0.12525 0.48228 0.25926 0.73018 0.37658 0.06289 0.0298 0.12785 0.055 0.19178 0.0824 0.07356 0.0309 1.0962 0.43784 1.1174 0.39722 1.8977-3.6223 2.704-3.1458 1.2515-3.8094-0.22245-0.0812-0.44742-0.15494-0.66567-0.24723-0.5232-0.24339-1.0369-0.50276-1.5375-0.79079-0.7191-0.396-1.4216-0.82261-2.1716-1.1592-0.68641-0.32115-1.3848-0.61899-2.0833-0.91244-2.6533-0.97964-4.0388 2.7727-1.3854 3.7524z" fill="#006ab5"/>
   <path d="m91.151 237.59c0.23499 0.0673 0.46674 0.1452 0.69805 0.22405 0.20247 0.0692 0.40097 0.14904 0.6013 0.22405 0.13618 0.0478 0.27316 0.094 0.41263 0.13139 0.088 0.0236 0.1334 0.0301 0.09659 0.0249 0.11916 0.0281 0.11191 0.0325 0.31668 0.0693-0.13084-0.0196-0.25755-0.0567-0.37861-0.10933 0.11617 0.0537-0.0033-3e-3 0.07879 0.0363 0.0075 3e-3 0.03004 0.014 0.02254 0.0103-0.10833-0.0509 0.08396 0.0393 0.11297 0.0522 0.0886 0.0412 0.17943 0.0771 0.27036 0.11279 0.10134 0.0401 0.20412 0.0766 0.30738 0.11136 0.07217 0.0238 0.14446 0.0468 0.21739 0.0682 0.07131 0.0209 0.03582 9e-3 0.06106 0.0175 0.01595 4e-3 0.03193 9e-3 0.0479 0.014 0.01172 3e-3 -0.04668-0.014-0.03514-0.0103 0.10328 0.0352 0.20963 0.0609 0.31582 0.0855-0.0016-2.4e-4 -0.0064 0-0.0048 0 0.07026 0.019 0.14154 0.0343 0.21255 0.0502 0.14787 0.0334 0.29871 0.0494 0.4499 0.0566-0.24091-0.0206-0.26886-0.0193-0.48941-0.0863-0.57399-0.24564-0.08947-5e-3 -0.73307-0.43061-0.03911-0.0259 0.13882 0.12589 0.10614 0.0923-0.07228-0.0744-0.14632-0.14729-0.22514-0.21468-0.04856-0.0415 0.08942 0.0913 0.13413 0.13689-0.20943-0.20198 0.06415 0.0546 0.09419 0.0841 0.02666 0.0262-0.05589-0.0496-0.08383-0.0744 2.0557 1.9427 4.8031-0.96446 2.7474-2.9072-0.03139-0.028-0.12364-0.11411-0.09416-0.0841 0.02117 0.0217 0.30466 0.28911 0.0682 0.0597 0.04055 0.0417 0.16515 0.16383 0.12164 0.1252-0.0814-0.0723-0.15699-0.15086-0.23548-0.2263 0.03182 0.0279 0.13052 0.10719 0.09545 0.0836-0.617-0.41537-0.19795-0.2078-0.7616-0.44942-0.2128-0.0654-0.35509-0.0904-0.58681-0.10568 0.08491 4e-3 0.16959 0.0146 0.25252 0.0339-0.05262-0.0119-0.08588-0.0188-0.16746-0.0404-0.01037-3e-3 -0.04091-0.0114-0.03114-7e-3 0.0127 6e-3 0.02674 7e-3 0.04003 0.0111 0.079 0.023-0.06767-0.0209-0.10126-0.0308-0.02349-7e-3 -0.04695-0.0138-0.07047-0.0206-0.0065-3e-3 -0.02566-8e-3 -0.01947-5e-3 0.01021 4e-3 0.02109 7e-3 0.03154 0.0103 0.0095 3e-3 -0.01916-6e-3 -0.02874-9e-3 -0.05384-0.0175-0.06996-0.0249-0.05027-0.0161-0.05213-0.0175-0.07224-0.0236-0.12658-0.0456-0.02019-8e-3 -0.03996-0.0169-0.06051-0.0238-0.01006-3e-3 0.03863 0.0175 0.02895 0.0132-0.02603-0.0117-0.05179-0.0238-0.07793-0.035-5e-3 -3e-3 -0.01979-9e-3 -0.01498-7e-3 0.01561 8e-3 0.06315 0.0309 0.04733 0.0233-0.05128-0.0249-0.10216-0.0506-0.15442-0.0734-0.22001-0.10133-0.44803-0.18507-0.68842-0.22307 0.08335 0.0159 0.03543 6e-3 0.12726 0.0275 0.0026 0-0.0053 0-0.0079-3e-3 -0.02775-7e-3 -0.0555-0.0138-0.08326-0.0206-0.0094-3e-3 0.01884 5e-3 0.02825 7e-3 0.0047 0-0.0093-3e-3 -0.01402-3e-3 -0.02154-6e-3 -0.04301-0.0114-0.06464-0.0167-0.0079-3e-3 0.01572 4e-3 0.02347 7e-3 5.29e-4 1.9e-4 0.0024 0 0.0016 0-0.02777-7e-3 -0.05435-0.0182-0.08225-0.0249-0.23697-0.088-0.47136-0.18301-0.7112-0.26326-0.27103-0.0922-0.54257-0.18322-0.81766-0.26268-2.7048-0.82687-3.8742 2.9983-1.1694 3.8252z" fill="#006ab5"/>
  </g>
  <path d="m166.64 166.07c-4.202-1.1778-6.2435-1.8503-11.132-3.6665-11.364-4.2225-24.609-10.436-40.598-19.046-8.9869-4.8393-12.177-6.3493-16.333-7.7299-3.8422-1.2766-6.7648-1.9723-10.844-2.5813-4.1844-0.62475-9.9892-0.67077-14.451-0.11455-6.2225 0.77577-12.906 2.639-18.802 5.242-8.7369 3.8567-18.027 10.16-25.889 17.566-2.2405 2.1105-3.1023 2.8163-3.2055 2.6254-0.28915-0.5345-0.40845-8.0704-0.1769-11.174l0.22793-3.0555 0.86433-0.8036c1.1671-1.0851 5.1747-4.4156 7.1318-5.9268 4.5123-3.4843 11.285-7.5616 16.651-10.025 13.501-6.1966 27.727-7.8188 40.879-4.6613 4.5173 1.0844 8.283 2.4702 16.838 6.1966 29.755 12.961 49.989 19.898 61.926 21.233 0.92609 0.10354 1.789 0.18895 1.9177 0.1898 0.58825 4e-3 0.0396 8.4784-0.9115 14.08l-0.40503 2.3854-0.58119-0.0129c-0.31967-7e-3 -1.7178-0.33147-3.1069-0.72086z" fill="none" stroke-width=".18709"/>
  <path d="m168.6 149.82c-0.82319-0.12994-1.7914-0.2762-2.1515-0.32502-0.36015-0.0488-1.2255-0.21534-1.923-0.37003-0.69748-0.15468-1.3289-0.26716-1.4032-0.24996-0.0743 0.0172-0.47178-0.0638-0.88337-0.18003-0.4116-0.11622-0.95883-0.25315-1.2161-0.30428-0.79982-0.15898-4.5563-1.1915-5.1047-1.4031-0.28654-0.11057-0.5812-0.18841-0.65481-0.17299-0.0736 0.0154-0.38639-0.0768-0.69509-0.20484-0.30869-0.12809-0.73321-0.2522-0.94336-0.27579-0.21015-0.0236-0.46272-0.0919-0.56126-0.1518-0.32393-0.19689-2.1436-0.69181-2.1436-0.58303 0 0.0585-0.10524 0.023-0.23386-0.0789-0.20733-0.16422-1.8418-0.753-2.4403-0.87906-0.12412-0.0261-0.35196-0.10094-0.5063-0.16621-0.77735-0.32875-1.8709-0.65691-1.8709-0.56144 0 0.0595-0.12629 3e-3 -0.28063-0.12475-0.15435-0.1281-0.28064-0.17019-0.28064-0.0935 0 0.0766-0.11184 0.0465-0.24854-0.0669-0.1367-0.11345-0.41032-0.23717-0.60804-0.27494-0.19772-0.0378-0.61206-0.17496-0.92076-0.30487-1.0891-0.45831-3.6482-1.2926-3.6482-1.1894 0 0.0575-0.10524 0.018-0.23386-0.0878-0.21808-0.17942-4.5414-1.8856-5.0535-1.9943-0.12749-0.0271-0.5377-0.1849-0.91158-0.35073-1.4221-0.63075-3.1268-1.2165-3.2325-1.1108-0.0606 0.0606-0.11011 0.0186-0.11011-0.0933 0-0.18822-1.0374-0.53688-1.3564-0.45587-0.0772 0.0196-0.14032-0.0319-0.14032-0.11449 0-0.11905-1.6622-0.83001-2.058-0.88024-0.0514-7e-3 -0.26192-0.10534-0.46772-0.21957-0.72089-0.40015-2.7128-1.1548-2.7156-1.0288-2e-3 0.07-0.0647 0.0384-0.14031-0.0702-0.12685-0.18221-5.3949-2.4072-6.0308-2.5471-0.15435-0.034-0.32273-0.10965-0.37418-0.16818-0.0514-0.0585-0.44141-0.24331-0.86657-0.4106-0.42517-0.16729-3.3767-1.44-6.5589-2.8282-3.1822-1.3882-5.9073-2.5505-6.0557-2.5828-0.14841-0.0323-0.31193-0.10576-0.36338-0.1632-0.36148-0.40358-6.5481-2.7484-6.5481-2.4818 0 0.0585-0.10524 0.0212-0.23386-0.083-0.25455-0.20608-3.7967-1.3709-4.0235-1.3231-0.0766 0.0161-0.2655-0.0201-0.41985-0.0806-0.65501-0.25657-4.4938-1.0618-5.6127-1.1773-1.8637-0.19239-2.2437-0.23999-3.5547-0.44521-2.1404-0.33506-9.1055-0.23161-12.254 0.18201-1.5435 0.20275-3.1754 0.41265-3.6264 0.46646-0.45103 0.0538-0.91026 0.15357-1.0205 0.22171-0.11026 0.0682-0.45685 0.15079-0.7702 0.18364-0.31335 0.0329-0.69601 0.1125-0.85036 0.17697-0.15435 0.0645-0.5332 0.14867-0.8419 0.18709-0.3087 0.0384-0.68755 0.12261-0.8419 0.18709-0.15435 0.0645-0.5332 0.14909-0.8419 0.18805-1.723 0.2174-11.181 3.7036-11.55 4.2575-0.0756 0.11338-0.13874 0.14576-0.14032 0.072-8e-3 -0.37445-9.0144 4.3947-9.4012 4.9782-0.0756 0.11403-0.13874 0.14222-0.14032 0.0626-0.0033-0.16776-5.2321 3.3479-5.5426 3.7266-0.11424 0.13936-0.26655 0.25337-0.33845 0.25337-0.22593 0-2.932 2.1231-6.0975 4.784l-3.0481 2.5622 0.12808-1.2877c0.22386-2.2507 1.4131-7.9234 2.278-10.866 1.2942-4.4032 2.4909-7.4545 4.7183-12.03 3.597-7.3893 7.3309-12.675 13.247-18.754 5.9553-6.1186 11.519-10.259 18.99-14.132 7.6728-3.9777 15.241-6.3461 24.318-7.61 3.0869-0.42985 3.9997-0.47566 9.4196-0.47269 5.8576 3e-3 6.1025 0.0185 10.211 0.6365 8.2389 1.2394 14.516 3.1985 21.983 6.8606 7.9069 3.8781 14.408 8.5946 20.22 14.67 6.0292 6.3023 9.6821 11.511 13.318 18.99 3.3671 6.9259 5.3196 12.932 6.502 20 0.48242 2.8839 1.02 7.9295 1.0242 9.6124l2e-3 0.89457-0.88867-0.0527c-0.48877-0.029-1.5622-0.15898-2.3854-0.28892z" fill="none" stroke-width=".18709"/>
  <g>
   <g stroke-width=".13229">
    <path d="m91.057 224.97c-12.336-1.4207-23.404-5.4038-33.267-11.972-3.0762-2.0488-7.546-5.6264-10.055-8.048-1.076-1.0385-1.939-1.9056-1.9178-1.9267 0.03576-0.0357 2.3131-0.27254 3.6757-0.38219 1.245-0.10018 2.3216-0.22025 2.4888-0.27756 0.09552-0.0328 0.51224-0.0914 0.92604-0.1304 0.4138-0.039 0.88788-0.10047 1.0535-0.13665 0.16564-0.0362 0.63229-0.0972 1.037-0.1356 0.40472-0.0384 1.8468-0.21602 3.2046-0.39472s2.7366-0.35382 3.064-0.38914c0.32742-0.0353 0.83344-0.1032 1.1245-0.15083 0.29104-0.0476 0.678-0.10001 0.8599-0.11641 1.7462-0.15741 2.3267-0.23132 2.5834-0.32891 0.1649-0.0627 0.32682-0.087 0.35983-0.054 0.03301 0.033 0.5005-5e-3 1.0389-0.0843 0.53836-0.0794 1.1574-0.16241 1.3757-0.1845 0.21828-0.0221 0.7243-0.0777 1.1245-0.12351 3.2409-0.37126 7.5571-0.64299 10.12-0.63712 4.8553 0.0111 9.3067 0.15859 11.112 0.36819 1.5084 0.17509 6.2024 0.85547 6.7314 0.97569 0.35526 0.0808 0.67563 0.11711 0.71192 0.0808 0.0363-0.0363 0.17103-0.01 0.29942 0.0589 0.12839 0.0687 0.49263 0.15622 0.80943 0.19446 0.87811 0.10601 2.3183 0.41391 4.1122 0.8792 0.89274 0.23154 1.7125 0.43317 1.8216 0.44807s0.28773 0.0622 0.39687 0.10512c0.10914 0.0429 1.1212 0.31627 2.249 0.60744 1.1278 0.29117 3.0384 0.88466 4.2458 1.3189 1.2074 0.4342 2.3087 0.80908 2.4474 0.83306 0.13867 0.024 0.2819 0.0767 0.31828 0.11718 0.0364 0.0405 0.72099 0.30023 1.5214 0.57726 0.80037 0.27703 3.2114 1.2794 5.3578 2.2276 2.1464 0.94812 3.977 1.7252 4.068 1.7268 0.091 2e-3 0.16537 0.0561 0.16537 0.121s0.0545 0.0844 0.12099 0.0433c0.0666-0.0411 0.14096-0.0222 0.16537 0.0421 0.0244 0.0643 0.9671 0.58187 2.0949 1.1502 1.1278 0.56837 2.1547 1.1207 2.282 1.2274 0.12733 0.1067 0.23242 0.14012 0.23354 0.0743 1e-3 -0.0658 0.0474-0.0483 0.10288 0.0389 0.0555 0.0873 0.33734 0.26737 0.62636 0.40023 1.4141 0.65008 3.6344 1.9314 3.6344 2.0975 0 0.11321-1.6822 1.0284-4.2612 2.3184-3.6725 1.837-4.7378 2.3026-7.7114 3.3707-4.6721 1.6781-9.3873 2.8782-14.24 3.6242l-3.5244 0.54179-6.1088 0.0943c-5.7484 0.0887-6.2546 0.0775-8.5802-0.19037z" fill="#b9e1ec"/>
    <path d="m170.08 150.03c-0.72761-0.0633-1.9702-0.23271-2.7613-0.37647-0.79109-0.14377-1.4865-0.23165-1.5453-0.1953-0.0588 0.0363-0.14375 6e-3 -0.18877-0.0663-0.045-0.0728-0.21283-0.12995-0.37294-0.12692-0.58522 0.0111-6.7107-1.4294-8.7247-2.0517-0.34561-0.10679-0.62839-0.15996-0.62839-0.11815 0 0.0418-0.0744 0.0178-0.16536-0.0534-0.15311-0.11982-3.4367-1.1589-4.0117-1.2695-0.14008-0.0269-0.34399-0.0857-0.45313-0.13057-0.22085-0.0908-2.7648-0.9-2.9751-0.94637-0.0735-0.0162-0.28254-0.0902-0.46444-0.16448-0.42269-0.17256-7.7671-2.698-7.9778-2.7432-0.087-0.0187-0.37443-0.1299-0.63881-0.24715-0.96581-0.42837-2.2314-0.86971-2.2333-0.77884-1e-3 0.0513-0.0458 0.0305-0.0992-0.0462-0.0835-0.11985-2.13-0.94672-2.5852-1.0445-0.0868-0.0187-0.37414-0.12985-0.63852-0.24711-0.88756-0.39366-2.2313-0.87286-2.2313-0.79571 0 0.042-0.0744 0.0147-0.16536-0.0608-0.24011-0.19922-1.9509-0.8264-1.9533-0.71609-1e-3 0.0513-0.0458 0.0287-0.0992-0.0503-0.10389-0.1535-2.0412-0.94481-2.1309-0.87035-0.0294 0.0244-0.0898-0.0102-0.13434-0.0769-0.0445-0.0667-2.1645-0.97227-4.7112-2.0124-2.5466-1.0401-5.672-2.3389-6.9453-2.8862s-2.3895-0.99617-2.4805-0.99753c-0.0909-1e-3 -0.16536-0.0456-0.16536-0.0984 0-0.0905-0.56186-0.27744-0.74529-0.24795-0.0468 8e-3 -0.12145-0.0437-0.16596-0.11387-0.10622-0.16738-1.9986-0.96952-2.0012-0.84827-1e-3 0.0513-0.0458 0.0297-0.0992-0.0481-0.0926-0.13471-4.5106-2.1044-4.9258-2.196-0.10914-0.0241-0.2282-0.0773-0.26459-0.11825-0.0787-0.0886-3.5092-1.5681-3.7417-1.6138-0.0885-0.0174-0.1907-0.0673-0.22709-0.11085-0.16907-0.20259-6.4515-2.3462-7.1438-2.4375-0.10914-0.0144-0.28773-0.0596-0.39687-0.1004-0.22231-0.0831-1.5107-0.38053-1.9182-0.44275-0.3316-0.0506-0.60478-0.1196-0.85989-0.21709-0.24024-0.0918-1.5256-0.38507-1.9844-0.45276-1.1835-0.17461-2.2305-0.31214-2.8072-0.36875-0.27067-0.0266-0.59809-0.0811-0.7276-0.12127-0.66359-0.20562-2.4238-0.2729-7.1147-0.27194-2.8377 5.3e-4 -5.457 0.0456-5.8208 0.10005-0.3638 0.0544-0.75076 0.10443-0.8599 0.11108-1.3579 0.0828-4.6699 0.63225-7.0323 1.1667-2.7599 0.62435-6.0507 1.5924-6.4284 1.8911-0.09095 0.0719-0.16536 0.098-0.16536 0.0578 0-0.0401-0.84832 0.21329-1.8852 0.56311-1.8385 0.62031-7.5296 3.1122-7.6181 3.3357-0.02439 0.0617-0.08943 0.0843-0.14449 0.0502-0.11359-0.0702-2.9427 1.4725-3.0671 1.6725-0.04452 0.0716-0.13381 0.13307-0.19844 0.1367-0.20306 0.0114-0.71281 0.27377-0.71281 0.36686 0 0.049-0.07441 0.0907-0.16536 0.0929-0.37934 9e-3 -4.5971 2.6171-4.5971 2.8429 0 0.0679-0.05995 0.0864-0.13323 0.0411-0.07328-0.0453-0.16881 0.0104-0.2123 0.12372-0.04349 0.11334-0.12871 0.17539-0.18937 0.1379-0.06067-0.0375-0.16396 0.0277-0.22954 0.1449-0.06558 0.11719-0.16013 0.20539-0.2101 0.19598-0.23559-0.0443-4.8463 3.2344-4.8463 3.4463 0 0.0654-0.07869 0.119-0.17487 0.119-0.14352 0-1.6756 1.1943-2.471 1.9262-0.17011 0.15654-1.2058 1.0316-2.3812 2.012-0.1819 0.15171-0.79623 0.67291-1.3652 1.1582-0.56895 0.4853-1.0519 0.8617-1.0732 0.83644-0.09908-0.11757 0.36867-3.1849 0.91961-6.0306 1.2503-6.4578 3.0516-11.743 6.1961-18.18 2.4314-4.9769 4.4244-8.2189 7.6322-12.415 1.7077-2.2337 2.7179-3.3771 5.6343-6.3768 2.9976-3.0833 3.9881-4.0051 6.3316-5.893 4.2007-3.384 7.861-5.7614 12.634-8.2058 7.8947-4.0432 15.16-6.3471 23.813-7.5509 2.7317-0.38006 3.1008-0.39914 9.3266-0.48201l6.4823-0.0863 4.0634 0.60335c5.2797 0.78395 9.2899 1.7487 14.048 3.3794 3.1286 1.0723 3.8953 1.4006 8.1786 3.5018 4.4274 2.1719 4.9379 2.46 8.0698 4.5527 4.9405 3.3012 8.2282 6.0245 12.104 10.026 3.6943 3.8142 6.1275 6.8111 8.9044 10.967 1.8617 2.7864 2.2276 3.4405 4.4017 7.8677 2.081 4.2378 2.506 5.2177 3.4726 8.0086 2.1331 6.1587 3.3785 12.008 3.9709 18.648 0.17524 1.9645 0.31931 3.7058 0.32017 3.8695 2e-3 0.33406 0.13021 0.32426-1.9167 0.1462z" fill="#b9e1ec"/>
    <path d="m166.97 166.2c-3.8212-1.0402-6.5716-1.9415-11.443-3.7499-11.27-4.1835-24.676-10.486-41.341-19.435-8.7881-4.7191-11.701-6.0812-16.05-7.5058-3.474-1.1379-6.5159-1.8577-10.108-2.392-2.4162-0.35936-3.1116-0.40602-7.1438-0.47932-4.3109-0.0784-4.5664-0.0688-7.3112 0.27374-4.424 0.55207-8.4109 1.445-12.502 2.7999-5.7095 1.8911-10.252 3.9968-15.61 7.2366-6.1496 3.718-11.3 7.633-16.779 12.753-1.734 1.6206-3.2073 2.9465-3.2742 2.9465-0.06687 0-0.12528-0.16371-0.12979-0.3638-0.0045-0.2001-0.0842-2.0009-0.17709-4.0018-0.15194-3.2728-0.14496-3.9689 0.06954-6.9339 0.13114-1.8127 0.28525-3.3345 0.34246-3.3817 0.05721-0.0472 0.6398-0.56293 1.2946-1.1461 9.5671-8.5196 20.234-14.925 30.559-18.351 4.3164-1.432 8.1859-2.3248 12.435-2.8691 2.8534-0.36547 3.3293-0.38977 7.648-0.39053 4.3586-7.9e-4 4.7674 0.0204 7.631 0.39596 2.161 0.28339 3.8694 0.6029 5.9781 1.118 3.1101 0.75978 7.9585 2.3236 9.9638 3.2138 29.615 13.146 51.25 21.051 64.36 23.515 2.1583 0.40566 5.4156 0.84159 6.4033 0.85696 0.24126 4e-3 0.24841 0.10712 0.1716 2.4844-0.0982 3.0374-0.75373 9.3232-1.2522 12.006l-0.36851 1.9835-0.52578 0.0231c-0.28919 0.0127-1.5676-0.26047-2.8409-0.60707z" fill="#fff"/>
    <path d="m163.53 181.32c-0.76399-0.17836-1.5526-0.33621-1.7526-0.35078-0.19993-0.0146-0.36364-0.0603-0.3638-0.10153 0-0.06-1.3877-0.43047-2.1548-0.57544-0.0883-0.0167-0.36896-0.12064-0.62362-0.23098-0.25466-0.11035-0.87974-0.33451-1.3891-0.49814-0.50933-0.16363-1.1046-0.37631-1.3229-0.47263-0.21828-0.0963-0.51594-0.19522-0.66146-0.21978-0.14552-0.0246-0.29435-0.0818-0.33073-0.12709-0.0364-0.0453-0.48286-0.2322-0.99219-0.41525-0.50932-0.18305-1.7297-0.67336-2.712-1.0896-0.98226-0.41622-2.1431-0.89382-2.5797-1.0613-1.8509-0.71018-4.8732-2.1244-10.782-5.045-3.4561-1.7084-6.3434-3.117-6.4162-3.1302-0.0728-0.0133-0.16206-0.0613-0.19844-0.10683-0.12952-0.16201-2.7782-1.4392-2.7802-1.3406-1e-3 0.0552-0.0458 0.0378-0.0992-0.0386-0.13834-0.19793-1.6181-1.0082-1.6206-0.88734-1e-3 0.0552-0.0458 0.0341-0.0992-0.0469-0.0977-0.14804-4.7448-2.6997-4.992-2.741-0.0728-0.0122-0.16206-0.059-0.19844-0.10405-0.0364-0.0451-0.86982-0.51293-1.8521-1.0397-0.98227-0.5268-1.9794-1.0752-2.2159-1.2187s-0.43086-0.2114-0.43197-0.15089c-1e-3 0.0605-0.0458 0.0425-0.0992-0.04-0.11366-0.17538-10.782-6.2214-10.862-6.1557-0.0296 0.0244-0.0903-0.0131-0.13479-0.0833-0.24733-0.39004-8.951-4.4395-9.8271-4.5722-0.0966-0.0146-0.25011-0.0731-0.34106-0.12991-0.091-0.0568-0.16537-0.0627-0.16537-0.0131s-0.0744 0.0294-0.16536-0.0448c-0.12583-0.10272-1.6206-0.6121-1.6206-0.55225 0 7e-3 -0.16143-0.0494-0.35873-0.1244-0.19729-0.075-0.49495-0.15919-0.66145-0.18705-0.16651-0.0279-0.46417-0.11717-0.66146-0.19844-0.1973-0.0813-0.49495-0.1665-0.66146-0.1894s-0.36282-0.0794-0.43626-0.12562c-0.157-0.0988-1.6289-0.47263-1.917-0.4869-0.10914-5e-3 -1.4784-0.24648-3.0427-0.53572l-2.8443-0.52589-5.6224-2e-3c-5.3473-2e-3 -5.7195 0.0139-7.6068 0.32266-1.0914 0.17857-2.2225 0.35381-2.5135 0.38943-0.80453 0.0985-5.3963 1.1492-5.887 1.3471-0.10914 0.044-0.34726 0.0994-0.52917 0.12315-0.59784 0.0779-3.0427 0.88964-3.0427 1.0102 0 0.0649-0.06215 0.0795-0.13811 0.0326-0.07596-0.0469-0.28432 0.0104-0.46302 0.12754-0.1787 0.11708-0.32491 0.18426-0.32491 0.14928 0-0.0846-3.4834 1.1108-3.5703 1.2252-0.03722 0.049-0.15698 0.1088-0.26612 0.13293-0.23969 0.053-2.5522 1.1096-2.6458 1.2089-0.03638 0.0386-0.13055 0.0817-0.20926 0.0958-0.26651 0.0478-4.0862 1.8127-4.6855 2.165-0.32742 0.19246-1.6669 0.96539-2.9766 1.7176-3.185 1.8293-8.7928 5.5666-9.2992 6.1974-0.09408 0.11719-0.19148 0.18331-0.21645 0.14693-0.06666-0.0971-2.1922 1.5754-2.1922 1.725 0 0.0699-0.07444 0.12708-0.16542 0.12708-0.09098 0-0.41681 0.2298-0.72407 0.51065-0.30726 0.28086-0.58322 0.48609-0.61325 0.45606-0.03003-0.03-0.17255 0.0953-0.3167 0.27861-0.14416 0.18327-0.29299 0.30233-0.33073 0.26458-0.03775-0.0377-0.18816 0.0833-0.33426 0.26907-0.1461 0.18574-0.308 0.3377-0.35979 0.3377-0.12111 0-0.925 0.67452-0.92956 0.77996-0.0075 0.17449-0.3119 0.60242-0.38002 0.53431-0.08975-0.0898-0.89887-4.5221-1.3146-7.2012-0.27579-1.7774-0.28608-1.9889-0.09867-2.0274 0.11508-0.0236 0.4176-0.24119 0.67226-0.48344 3.2688-3.1095 5.7189-5.3268 7.3091-6.6146 0.78217-0.63347 1.4221-1.2157 1.4221-1.2938 0-0.0781 0.03733-0.10471 0.08296-0.0591 0.04563 0.0456 0.50819-0.26452 1.0279-0.68921 1.515-1.238 6.3986-4.6509 8.1382-5.6875 0.87935-0.52397 1.5988-0.99903 1.5988-1.0557 0-0.0566 0.07441-0.10392 0.16536-0.10504 0.09095-1e-3 0.72506-0.34267 1.4091-0.759 3.4149-2.0783 9.0526-4.6068 13.753-6.168 4.5404-1.5081 9.3931-2.5633 13.843-3.0101 0.50932-0.0511 3.0394-0.0889 5.6224-0.084 4.6013 9e-3 4.7524 0.0176 7.4628 0.43371 3.2051 0.49205 6.6977 1.2716 8.6611 1.933 0.75533 0.25448 1.42 0.43387 1.477 0.39864 0.057-0.0352 0.12361-0.0115 0.14802 0.0527 0.0244 0.0642 0.58015 0.27869 1.235 0.47654 1.9291 0.58286 6.8146 2.8285 10.638 4.8898 1.9574 1.0553 3.6388 1.9354 3.7365 1.9559 0.0977 0.0204 0.20742 0.0701 0.2438 0.11029 0.17148 0.1896 1.0586 0.66315 1.0604 0.56605 1e-3 -0.0605 0.0458-0.0454 0.0992 0.0335 0.10206 0.15069 3.2645 1.8984 3.5207 1.9458 0.0816 0.0151 0.17811 0.0602 0.21449 0.10031 0.15692 0.17296 1.5877 0.91214 1.5895 0.82119 1e-3 -0.0552 0.0458-0.0378 0.0992 0.0387 0.15349 0.2196 1.58 0.97989 1.6699 0.89 0.0445-0.0445 0.081-8e-3 0.081 0.0812s0.0595 0.12535 0.13229 0.0804c0.0728-0.045 0.13229-9e-3 0.13229 0.0804 0 0.0892 0.0369 0.1253 0.0819 0.0802 0.045-0.045 0.1689 5e-3 0.27525 0.11146 0.10634 0.10635 0.24808 0.15953 0.31498 0.11819 0.0669-0.0413 0.12162-9e-3 0.12162 0.0727 0 0.0813 0.0595 0.11112 0.1323 0.0661 0.0728-0.045 0.13229-0.0152 0.13229 0.0661s0.0544 0.11425 0.12099 0.0731c0.0665-0.0411 0.14096-0.0193 0.16536 0.0484 0.0244 0.0678 0.13367 0.14254 0.24281 0.16619 0.10915 0.0236 0.22821 0.08 0.26459 0.12515 0.1439 0.17874 1.6931 0.89266 1.77 0.81571 0.0451-0.0451 0.0821-0.0166 0.0821 0.0634 0 0.13377 0.31942 0.29672 0.56696 0.28924 0.0572-2e-3 0.19592 0.0888 0.30833 0.20124 0.1124 0.1124 0.25911 0.17055 0.326 0.1292 0.0669-0.0413 0.12163-9e-3 0.12163 0.0727 0 0.0813 0.0595 0.11112 0.13229 0.0661 0.0728-0.045 0.13229-0.0227 0.13229 0.0494 0 0.128 0.34569 0.28784 0.58052 0.26842 0.0646-5e-3 0.15392 0.0476 0.19844 0.11756 0.11432 0.17976 3.3216 1.771 3.3241 1.6492 1e-3 -0.0551 0.0465-0.0303 0.10082 0.0551 0.10825 0.1702 4.3594 2.1906 4.6266 2.1988 0.0909 3e-3 0.16536 0.0478 0.16536 0.1 0 0.10301 1.3873 0.69677 1.5343 0.65667 0.0494-0.0135 0.12623 0.0345 0.17078 0.10656 0.0974 0.1576 3.0417 1.5231 3.2841 1.5231 0.0936 0 0.17018 0.0432 0.17018 0.0959 0 0.0925 0.47157 0.25112 0.71281 0.23979 0.0646-3e-3 0.15392 0.0461 0.19844 0.10915 0.13212 0.18718 2.0179 0.9703 2.146 0.89116 0.0648-0.04 0.1178-6e-3 0.1178 0.0751 0 0.0813 0.0595 0.11112 0.13229 0.0661 0.0728-0.045 0.13229-0.0245 0.13229 0.0454 0 0.14402 0.79264 0.45432 0.79578 0.31152 1e-3 -0.0508 0.0472-0.0213 0.10245 0.0656 0.10646 0.16746 3.8146 1.7994 4.0958 1.8025 0.0909 1e-3 0.16537 0.0467 0.16537 0.10158 0 0.10045 0.7745 0.32514 0.95911 0.27825 0.0546-0.0139 0.0992 0.0296 0.0992 0.0966 0 0.1167 0.75333 0.35256 0.95912 0.30029 0.0546-0.0139 0.0992 0.0266 0.0992 0.0899 0 0.11587 1.1711 0.49915 1.356 0.44378 0.0546-0.0163 0.0992 0.0234 0.0992 0.0882 0 0.10766 0.54038 0.31987 0.8599 0.33769 0.0728 4e-3 0.16206 0.0405 0.19844 0.0811 0.19482 0.21709 6.0062 2.2653 6.8852 2.4267 0.17857 0.0328 0.33955 0.0715 0.35774 0.086 0.0182 0.0145 0.0777 0.0389 0.1323 0.0543s0.18851 0.0629 0.29765 0.10564c0.79333 0.31053 2.8235 0.87926 2.9217 0.81851 0.0665-0.0411 0.12097-0.023 0.12097 0.0403 0 0.11155 0.95058 0.3999 1.5992 0.48509 0.17547 0.023 0.40833 0.0763 0.51747 0.11834 0.47358 0.18239 1.2897 0.35401 1.6867 0.35469 0.33788 5.3e-4 -1.0709 0.10367-1.0709 0.30648 0 0.60496 1.1863 1.6354 0.92761 1.9171-0.20045 0.2183-0.10937 0.53331-0.12268 0.40168-0.64243-6.3512-0.99689 4.4338-2.4867 8.4422l-1.3445 3.6176-0.41535-0.013c-0.22844-7e-3 -1.0404-0.15895-1.8044-0.33731z" fill="#00ad68"/>
    <path d="m153.67 192.39c-7.6158-2.5626-14.725-5.5437-24.408-10.235-7.0951-3.4376-13.456-6.8186-21.866-11.623-7.6594-4.3752-9.896-5.5155-13.837-7.0545-2.3482-0.9171-3.6896-1.3434-6.4869-2.0619-3.1289-0.80361-3.9361-0.95707-7.1599-1.3612l-3.6334-0.45544-5.424 0.17845c-5.4109 0.17803-5.4306 0.17971-8.2021 0.70104-3.7088 0.69765-8.091 1.8932-11.642 3.176-4.2555 1.5374-10.954 4.8432-14.949 7.3778-1.6007 1.0155-3.784 2.4805-4.8518 3.2556-1.4189 1.0299-1.9757 1.3667-2.069 1.2514-0.41187-0.50935-2.1043-7.1017-1.9653-7.6554 0.09481-0.37773 4.296-3.8126 7.3648-6.0214 11.233-8.0848 22.724-13.048 34.565-14.929l2.8812-0.4577h11.056l3.3646 0.59988c2.6392 0.47055 4.0266 0.79988 6.4352 1.5276 5.7525 1.738 8.8946 3.2006 18.162 8.4546 18.613 10.552 34.854 18.534 45.558 22.39 2.6173 0.94291 3.9149 1.3286 6.1023 1.8137 1.528 0.33888 2.7667 0.67253 2.7527 0.74145-0.0139 0.0689-0.75542 1.6433-1.6477 3.4987-1.3325 2.7708-1.9254 3.8283-3.3188 5.92-1.1447 1.7184-1.7705 2.5432-1.9242 2.5363-0.12522-6e-3 -2.3113-0.71144-4.8579-1.5683z" fill="#00a49a"/>
    <path d="m154.53 192.59c-8.9257-3.019-14.689-5.4205-25.334-10.557-6.5648-3.1675-11.727-5.9077-21.497-11.412-7.5136-4.2327-9.1142-5.0781-11.903-6.2868-5.3572-2.3219-10.427-3.6558-17.135-4.508-2.1744-0.27625-2.4111-0.28053-7.1438-0.12928-5.7783 0.18467-6.4724 0.25054-9.8557 0.93534-6.4399 1.3034-12.091 3.2499-18.233 6.2806-4.3521 2.1473-7.4835 4.0025-11.753 6.9626-1.2489 0.86598-2.3326 1.5745-2.4081 1.5745-0.26892 0-1.7576-5.2994-1.9532-6.9529l-0.07913-0.66903 0.97433-0.86165c3.0718-2.7165 7.9492-6.2913 12.021-8.8102 9.8207-6.0758 18.824-9.4985 29.656-11.273 2.4563-0.40251 2.4979-0.40471 7.6532-0.40471h5.1835l2.9301 0.53231c1.6115 0.29276 3.7635 0.74223 4.7822 0.99882 2.298 0.57882 6.4013 1.9422 8.3344 2.7692 2.3899 1.0224 6.5937 3.199 11.509 5.9593 20.13 11.303 34.38 18.354 45.244 22.386 3.1231 1.1591 4.542 1.5951 7.4414 2.2864 1.2551 0.29926 2.282 0.60523 2.282 0.67995 0 0.22589-2.0814 4.5703-2.9349 6.1258-0.83256 1.5174-2.733 4.4694-3.3473 5.1994-0.19575 0.23263-0.45479 0.41883-0.57565 0.41377-0.12087-5e-3 -1.8569-0.5629-3.8578-1.2397z" fill="#00ad68"/>
    <path d="m149.01 204.35c-0.23773-0.10331-0.45989-0.19287-0.4937-0.19901-0.0338-6e-3 -0.28578-0.10513-0.55995-0.21997-0.27418-0.11485-0.55803-0.22248-0.63079-0.23919-0.0728-0.0167-0.46585-0.18343-0.87354-0.3705-0.40768-0.18707-0.85417-0.35962-0.99219-0.38346-0.13801-0.0238-0.2807-0.082-0.31708-0.12933-0.0364-0.0473-0.18521-0.10683-0.33073-0.13229-0.14552-0.0254-0.29971-0.0939-0.34263-0.15214-0.0429-0.0582-0.20664-0.11553-0.36381-0.12737-0.15716-0.0118-0.28575-0.0589-0.28575-0.10449 0-0.0942-1.0969-0.47734-1.1758-0.41069-0.0282 0.0239-0.0931-0.0242-0.1442-0.10683-0.0511-0.0826-0.22143-0.1599-0.37859-0.17174-0.15717-0.0118-0.28575-0.0628-0.28575-0.11323 0-0.12003-1.19-0.52533-1.1927-0.4062-1e-3 0.0501-0.0458 0.0235-0.0992-0.0593-0.132-0.20438-1.0886-0.5932-1.2357-0.50227-0.065 0.0402-0.11824 0.0181-0.11824-0.0491 0-0.11201-0.97917-0.54677-1.3592-0.60351-0.15776-0.0236-1.514-0.65426-2.5067-1.1658-0.27087-0.13956-0.50899-0.24439-0.52917-0.23296-0.0406 0.023-0.73481-0.28842-2.6091-1.1706-0.68721-0.32346-1.3123-0.60054-1.3891-0.61575-0.0768-0.0152-0.40748-0.15492-0.7349-0.31048-2.3296-1.1068-2.9761-1.3948-3.131-1.3948-0.097 0-0.17629-0.0531-0.17629-0.11805 0-0.0649-0.0595-0.0813-0.1323-0.0363s-0.13229 0.0152-0.13229-0.0661c0-0.0814-0.0595-0.11111-0.13229-0.0661-0.0728 0.045-0.13229 0.0152-0.13229-0.0661s-0.0595-0.11111-0.13229-0.0661c-0.0728 0.045-0.13229 0.0152-0.13229-0.0661s-0.0595-0.11112-0.1323-0.0661c-0.0728 0.045-0.13229 9e-3 -0.13229-0.0804 0-0.0892-0.0368-0.1253-0.0819-0.0803-0.045 0.045-0.16891-5e-3 -0.27525-0.11146-0.10635-0.10634-0.24809-0.15952-0.31498-0.11818-0.0669 0.0413-0.12163 9e-3 -0.12163-0.0727 0-0.0813-0.0595-0.11111-0.13229-0.0661-0.0728 0.045-0.13229 0.0152-0.13229-0.0661 0-0.0814-0.0595-0.11111-0.13229-0.0661-0.0728 0.045-0.13229 0.0152-0.13229-0.0661s-0.0595-0.11112-0.1323-0.0661c-0.0728 0.045-0.13229 0.0152-0.13229-0.0661s-0.0595-0.11112-0.13229-0.0661c-0.0728 0.045-0.13229 0.0152-0.13229-0.0661s-0.0595-0.11112-0.13229-0.0661c-0.0728 0.045-0.13229 9e-3 -0.13229-0.0804 0-0.0892-0.0369-0.12529-0.0819-0.0803-0.045 0.045-0.1689-5e-3 -0.27525-0.11146-0.10634-0.10634-0.24808-0.15953-0.31498-0.11818-0.0669 0.0413-0.12162 9e-3 -0.12162-0.0727 0-0.0814-0.0595-0.11112-0.1323-0.0662-0.0728 0.045-0.13229 0.0152-0.13229-0.0661s-0.0595-0.11112-0.13229-0.0661c-0.0728 0.045-0.13229 0.0152-0.13229-0.0661s-0.0595-0.11112-0.13229-0.0661c-0.0728 0.045-0.13229 0.0152-0.13229-0.0661s-0.0595-0.11111-0.1323-0.0661c-0.0728 0.045-0.13229 0.0152-0.13229-0.0661s-0.0595-0.11111-0.13229-0.0661c-0.0728 0.045-0.13229 0.0152-0.13229-0.0661s-0.0545-0.11426-0.12099-0.0731c-0.0666 0.0411-0.14096 0.0219-0.16537-0.0428-0.0597-0.15825-3.8141-2.0296-3.8167-1.9024-1e-3 0.0551-0.0463 0.0305-0.10047-0.0547-0.0541-0.0851-0.18576-0.17441-0.29248-0.19843-0.10672-0.024-0.27467-0.11864-0.37322-0.21026-0.0986-0.0916-0.23391-0.13276-0.3008-0.0914-0.0669 0.0414-0.12163 0.0194-0.12163-0.0489 0-0.13193-0.79179-0.50524-0.95911-0.45219-0.0546 0.0173-0.0992-0.0241-0.0992-0.0919 0-0.11573-0.53468-0.34857-0.64667-0.2816-0.0282 0.0169-0.0878-0.0224-0.13229-0.0873-0.1218-0.17751-1.8666-1.1051-1.8689-0.99355-1e-3 0.0532-0.0458 0.0321-0.0992-0.0469-0.098-0.14481-7.1273-4.0208-7.3732-4.0656-0.0728-0.0133-0.16206-0.0567-0.19844-0.0966-0.16493-0.18077-1.3231-0.78722-1.3249-0.69376-1e-3 0.0576-0.0458 0.0424-0.0992-0.0339-0.14314-0.20417-1.3536-0.88253-1.356-0.7599-1e-3 0.0576-0.0473 0.0336-0.10258-0.0534-0.13643-0.2146-3.0908-1.6308-3.2268-1.5468-0.0595 0.0368-0.10823 0.0119-0.10823-0.0552 0-0.0963-1.0217-0.5768-1.3229-0.62221-0.0364-5e-3 -0.25962-0.11319-0.49609-0.23933-0.23647-0.12616-0.43086-0.18319-0.43197-0.12675-1e-3 0.0564-0.0458 0.04-0.0992-0.0366-0.0535-0.0766-0.39485-0.26409-0.75865-0.41666-0.77968-0.32699-6.3859-2.1606-6.5215-2.133-0.0512 0.0104-0.18241-0.0159-0.29155-0.0585-0.7742-0.30212-4.3986-1.0359-6.0854-1.232-0.40018-0.0465-0.87643-0.10642-1.0583-0.13311-0.1819-0.0267-0.56885-0.0788-0.8599-0.11588-0.29104-0.037-0.73753-0.10964-0.99219-0.16132-0.25466-0.0517-2.7335-0.11406-5.5086-0.13861-4.755-0.0421-5.2071-0.0251-7.851 0.29477-2.4279 0.29374-5.7288 0.8594-6.3519 1.0885-0.10914 0.0401-0.28773 0.0842-0.39688 0.0978-1.313 0.16456-8.9297 2.3014-9.126 2.5603-0.03755 0.0495-0.15758 0.10773-0.26672 0.12936-0.28524 0.0565-2.038 0.73243-2.1167 0.81624-0.03638 0.0388-0.18521 0.0913-0.33073 0.11678-0.14552 0.0254-0.301 0.10496-0.34552 0.17666-0.04452 0.0717-0.13381 0.12067-0.19844 0.10881-0.2139-0.0392-1.1097 0.30369-1.1097 0.42482 0 0.0654-0.05953 0.0821-0.13229 0.0372-0.07276-0.045-0.13229-9e-3 -0.13229 0.0804 0 0.0892-0.03376 0.12839-0.07502 0.0871-0.09557-0.0956-2.6042 1.0698-2.7342 1.2701-0.05346 0.0824-0.0981 0.10767-0.09922 0.0561-0.0055-0.25535-5.9952 2.8461-6.2345 3.2283-0.04452 0.0711-0.12068 0.12111-0.16926 0.11117-0.21006-0.0429-2.3231 1.271-2.3329 1.4507-0.02246 0.41387-2.8666-5.4816-3.9864-8.2632-0.6433-1.598-1.1696-2.9504-1.1696-3.0055 0-0.055 0.07441-0.0718 0.16536-0.0374 0.09095 0.0345 0.33833-0.0864 0.54974-0.26873 0.21141-0.18229 0.41977-0.33151 0.46302-0.3316 0.06771-1.3e-4 0.36776-0.23008 1.0322-0.79099 0.08788-0.0742 0.19863-0.13489 0.2461-0.13489 0.04748 0 0.50338-0.30333 1.0131-0.67408 1.5735-1.1445 6.3157-4.088 7.7091-4.7851 0.7276-0.36402 1.3593-0.71845 1.4039-0.78762 0.04452-0.0692 0.10405-0.11194 0.13229-0.0951 0.1161 0.0694 0.64667-0.16803 0.64667-0.28942 0-0.0721 0.05953-0.0944 0.13229-0.0494 0.07276 0.045 0.13229 9e-3 0.13229-0.0804 0-0.0892 0.03388-0.12827 0.07528-0.0869 0.04141 0.0414 1.3362-0.53843 2.8773-1.2885 4.9165-2.3929 10.798-4.2873 17.09-5.5039l2.7781-0.53725 10.848-0.35368 3.5472 0.45179c8.4585 1.0773 15.343 3.5197 24.036 8.5271 1.4188 0.81732 2.6541 1.4882 2.745 1.4908 0.0909 3e-3 0.16536 0.0432 0.16536 0.0902 0 0.0929 1.4969 0.96215 1.6761 0.97328 0.0604 4e-3 0.22522 0.11434 0.36627 0.24575 0.23696 0.22076 0.32803 0.25808 0.55557 0.22762 0.0464-6e-3 0.12085 0.0465 0.16537 0.11716 0.11364 0.18036 1.5011 0.99094 1.7015 0.99403 0.091 1e-3 0.16536 0.0393 0.16536 0.0843 0 0.12393 0.79345 0.56653 0.79578 0.44391 1e-3 -0.0587 0.0462-0.0372 0.10028 0.0478 0.12321 0.19368 1.7578 1.1357 1.9813 1.1419 0.091 2e-3 0.16536 0.0577 0.16536 0.1226s0.0545 0.0844 0.12099 0.0433c0.0666-0.0411 0.14096-0.0273 0.16537 0.0307 0.0652 0.15493 1.5654 0.97445 1.5678 0.85642 1e-3 -0.0552 0.0458-0.0374 0.0992 0.0395 0.13844 0.19925 2.1473 1.277 2.1497 1.1534 1e-3 -0.0565 0.0458-0.0388 0.0992 0.0392 0.14114 0.20591 2.1473 1.286 2.1497 1.1573 1e-3 -0.0597 0.0458-0.0461 0.0992 0.0302 0.15836 0.22589 1.3119 0.8515 1.4027 0.76072 0.046-0.046 0.0836-0.0106 0.0836 0.0786s0.0545 0.1285 0.12099 0.0874c0.0665-0.0411 0.14096-0.022 0.16537 0.0426 0.0598 0.1583 3.0204 1.6332 3.023 1.5059 1e-3 -0.0552 0.0458-0.0358 0.0992 0.0431 0.1237 0.18254 3.9991 2.053 4.0018 1.9315 1e-3 -0.0498 0.0458-0.0231 0.0992 0.0593 0.13097 0.20188 4.2279 2.1577 4.3222 2.0634 0.041-0.041 0.0745-2e-3 0.0745 0.0877 0 0.0892 0.0595 0.12536 0.13229 0.0804 0.0728-0.045 0.13229-0.0307 0.13229 0.0318 0 0.11881 0.91933 0.50469 1.0914 0.45812 0.0546-0.0148 0.0992 0.0262 0.0992 0.0911 0 0.11506 0.62923 0.34384 0.82682 0.30063 0.0546-0.0119 0.0992 0.0332 0.0992 0.10033 0 0.11465 0.93245 0.48726 1.0435 0.41701 0.0282-0.0179 0.0878 0.0248 0.1323 0.0947 0.0946 0.14862 2.9127 1.3932 3.1567 1.3941 0.0909 5.3e-4 0.16537 0.0455 0.16537 0.10035 0 0.0548 0.19152 0.1418 0.4256 0.19321 0.4451 0.0978 0.49468 0.11833 1.3748 0.57036 0.29898 0.15356 0.65616 0.29828 0.79375 0.32161 0.13759 0.0233 0.42924 0.13738 0.64812 0.25345 0.21887 0.11608 0.51653 0.23184 0.66145 0.25726 0.14493 0.0254 0.29327 0.0801 0.32965 0.12147 0.0819 0.0932 3.4847 1.4564 3.7269 1.4931 0.0966 0.0146 0.23523 0.0615 0.30799 0.10425 0.0728 0.0427 2.1415 0.74548 4.5971 1.5617 2.4557 0.81624 4.4648 1.5326 4.4648 1.5919 0 0.18147-2.7288 3.6639-4.4076 5.6248-1.7456 2.039-4.3088 4.6993-4.5199 4.6912-0.074-3e-3 -0.32905-0.0897-0.56677-0.19301z" fill="#006ab5"/>
   </g>
   <path d="m148.64 178.51c0.45756 0.23225 0.9181 0.45855 1.3756 0.69086 0.31685 0.15875 0.63186 0.32258 0.96076 0.45556 0.0787 0.0318 0.15853 0.0608 0.23779 0.0913 0.42583 0.15745 0.85647 0.30107 1.2879 0.44233 0.43288 0.13965 0.86961 0.26702 1.3038 0.40241 0.10096 0.0323 0.20235 0.0634 0.30287 0.097 0.19058 0.0638 0.53791 0.18907 0.71854 0.25426 0.44286 0.15984 0.88439 0.32319 1.3259 0.48684 0.60357 0.22182 1.2023 0.45635 1.8041 0.68289 0.32411 0.11781 0.6505 0.22912 0.97659 0.34123 0.26305 0.0904 0.5308 0.16555 0.80045 0.23326 0.23305 0.0568 0.46705 0.10945 0.70131 0.16097 0.31406 0.0672 0.63003 0.12462 0.94764 0.17211 0.23065 0.0328 0.46169 0.0599 0.69419 0.0752 0.17992 0.0109 0.36019 0.0117 0.54036 0.0119 0.0863 3e-3 0.0545 0 0.19481 0.0119 0.0105 0-0.021 0-0.0315-3e-3 0.11684 0.0164 0.23426 0.0279 0.35189 0.0368 0.10106 7e-3 0.20239 8e-3 0.30367 9e-3 0.0641 0 0.12811-1.3e-4 0.19216-2.4e-4 0.0671-3e-3 0.23652-7e-3 0.31838-0.0246 0.12074-0.0257 0.23203-0.11747 0.35201-0.14637 2.6825-0.89672 1.4223-4.6308-1.2602-3.734 0.2368-0.0554 0.35787-0.0967 0.58405-0.0949-0.0607 1.1e-4 -0.12133 2.1e-4 -0.182 2.4e-4 -0.0179 0-0.0632 0-0.02 3e-3 -0.0641-3e-3 -0.12731-0.0167-0.19118-0.022-0.20074-0.0198-0.40223-0.0371-0.60415-0.0358-0.0999-1.6e-4 -0.19987 2.4e-4 -0.2997-4e-3 -0.12011-6e-3 -0.23863-0.0257-0.35797-0.04-0.22607-0.0327-0.45049-0.0754-0.67411-0.12195-0.19858-0.0436-0.39694-0.0882-0.59457-0.13594-0.15691-0.0382-0.31222-0.0826-0.46527-0.1342-0.28966-0.0995-0.57946-0.19865-0.86775-0.30208-0.60808-0.22881-1.213-0.46601-1.8229-0.6899-0.84509-0.31324-1.6889-0.63219-2.5477-0.90643-0.41608-0.12954-0.83429-0.2522-1.2493-0.385-0.37534-0.12282-0.75014-0.24725-1.1209-0.38354-0.27695-0.0998-0.53659-0.23878-0.79918-0.37076-0.46745-0.2373-0.93789-0.46858-1.4054-0.70577-2.5326-1.2594-4.3136 2.3222-1.781 3.5816z" fill="#00ad68" stroke-width=".26458"/>
   <path d="m36.811 188c0.28774-0.12936 0.57734-0.25429 0.86755-0.37796 0.17752-0.0777 0.35873-0.14634 0.53892-0.21741 0.07115-0.0209 0.17208-0.0677 0.26841-0.0962 0.15846-0.0484 0.30523-0.126 0.45697-0.19085 0.04617-0.0196 0.09469-0.0334 0.14168-0.0511 0.64982-0.23374 1.3051-0.45194 1.9595-0.6726 0.51258-0.17587 1.032-0.33158 1.5433-0.51131 0.18956-0.0666 0.62999-0.23148 0.8314-0.30649 0.54007-0.20548 1.0629-0.4518 1.5778-0.71313 0.38215-0.20156 0.75401-0.42193 1.1251-0.64302 0.41628-0.24278 0.79816-0.53787 1.1754-0.83624 0.33177-0.28207 0.68101-0.54266 1.0584-0.76039 0.25564-0.16073 0.53702-0.26619 0.81751-0.37351 0.36338-0.13901 0.30583-0.11644 0.67507-0.25202 0.71054-0.24505 1.4102-0.51868 2.1071-0.79972 0.63606-0.24461 1.2633-0.51092 1.8868-0.78584 0.53515-0.25284 1.0735-0.49909 1.6163-0.73496 0.44596-0.19442 0.90489-0.35253 1.3684-0.49856 0.67919-0.21799 1.3834-0.34136 2.0833-0.47117 0.81434-0.13909 1.634-0.24199 2.4578-0.30242 0.5504-0.0417 1.1018-0.0656 1.6518-0.11334 0.48709-0.0469 0.97404-0.0965 1.4601-0.15357 0.58453-0.0697 1.16-0.19508 1.7355-0.31612 0.40189-0.0934 0.80445-0.18497 1.203-0.292 0.37272-0.10821 0.74325-0.22222 1.1223-0.30628 0.25791-0.0487 0.51755-0.0882 0.77875-0.11425 0.19759-0.0148 0.39567-0.0193 0.59351-0.0315 0.57239-0.0241 1.1442-0.0589 1.7163-0.0893 1.1427-0.0493 2.2854-0.10078 3.4276-0.16052 0.88994-0.0366 1.7779-0.10869 2.6659-0.17489 0.21481-0.0111 0.42954-0.0241 0.64444-0.0334 0.59496-0.0262 1.059-0.0442 1.6593-0.0322 0.31881 6e-3 0.6373 0.0241 0.95581 0.0394 0.58169 0.0278 1.163 0.0629 1.7446 0.0934 0.20024 0.01 0.84459 0.0344 1.0946 0.0691 0.05663 8e-3 0.11253 0.0243 0.16477 0.0476 0.0093 4e-3 0.01744 0.0251 0.0082 0.0293-0.0582 0.0266-0.09027-0.0382-0.04488 0.0282 0.30649 0.24794 0.62344 0.4917 0.98041 0.66403 0.3992 0.19272 0.5352 0.22526 0.9311 0.35623 0.75318 0.23818 1.5323 0.3733 2.3069 0.51977 0.28708 0.0613 0.57992 0.10785 0.85925 0.20111 0.17565 0.0587 0.34754 0.12801 0.52105 0.19273 0.74429 0.27791 1.4568 0.62793 2.1576 0.99983 0.81219 0.43826 1.6475 0.83079 2.5025 1.1776 0.85143 0.3424 1.7202 0.63863 2.592 0.92422 0.66248 0.23032 1.3367 0.42463 2.0027 0.64391 0.37366 0.12301 0.74518 0.25752 1.1158 0.38913 0.18961 0.0717 0.37988 0.14168 0.56882 0.21516 0.3055 0.11879 0.87272 0.34784 1.1639 0.47984 0.69165 0.31354 1.3577 0.67824 2.0234 1.0424 0.86531 0.47638 1.7013 1.0029 2.5484 1.5102 0.48591 0.29096 0.72446 0.42862 1.209 0.71164 0.94252 0.51943 1.8511 1.0955 2.7566 1.676 1.2165 0.76123 2.4089 1.5598 3.6269 2.3188 0.18436 0.11142 0.36805 0.22397 0.55309 0.33425 0.4598 0.274 0.61057 0.36272 1.0952 0.61415 0.55603 0.28845 1.1243 0.55192 1.6925 0.81497 1.2207 0.56777 2.4777 1.0517 3.7385 1.5218 1.0797 0.40516 2.1632 0.80002 3.2363 1.2228 0.62684 0.24696 1.6034 0.64495 2.2259 0.89747 1.2478 0.51511 2.4961 1.0302 3.7295 1.5791 0.0678 0.0302 1.4484 0.65638 1.5347 0.69549 1.4543 0.66955 2.8982 1.361 4.3487 2.0387 1.3709 0.62327 2.7496 1.2294 4.0922 1.9123 0.65149 0.33298 1.2844 0.70044 1.9275 1.0492 0.62543 0.33578 1.278 0.61682 1.9358 0.88222 0.50252 0.20058 1.0177 0.36534 1.5349 0.5229 0.15987 0.0412 0.36974 0.11628 0.46251 0.15195 0.26032 0.0896 0.12368 0.0464 0.37081 0.13086 0.0421 0.0124 0.0842 0.0246 0.12625 0.0373 0.0211 6e-3 -0.0445-0.0298-0.0635-0.0185-0.0184 0.0108 0.0407 0.0138 0.0612 0.0198 0.0447 0.0132 0.0894 0.0266 0.13457 0.0383 0.10932 0.0283 0.14294 0.0322 0.25308 0.0521-0.0458-9e-3 -0.0917-0.0177-0.13752-0.027-9e-3 -3e-3 -0.0353-9e-3 -0.0265-7e-3 0.11715 0.0325 0.40117 0.0997-0.0817-0.0288-0.0126-3e-3 0.0246 9e-3 0.0369 0.013 0.40297 0.12451 0.0328 0.01 0.0246 7e-3 -8e-3 -3e-3 0.0147 6e-3 0.0222 8e-3 0.0364 0.0122 0.14483 0.0511 0.10938 0.0363-0.0667-0.0278-0.13471-0.0525-0.20321-0.0755-0.0286-0.01 0.0556 0.0236 0.0833 0.0352 0.11896-0.019 0.19005 0.10424 0.30228 0.10014 0.0375-3e-3 -0.0715-0.0233-0.10767-0.0332-0.0155-4e-3 0.0303 0.0111 0.0456 0.0161 0.0399 0.013 0.0801 0.0254 0.12015 0.0382-0.0236-7e-3 -0.047-0.0154-0.0707-0.0222-0.01-3e-3 0.019 7e-3 0.0286 0.0101 0.0438 0.0146 0.41268 0.13501 0.22742 0.0675-0.0639-0.0193-0.12789-0.0388-0.19182-0.0582-5.3e-4 -1e-4 -8e-4 -2.4e-4 -1e-3 0 0.0325 0.0116 0.12901 0.0483 0.0974 0.0346-0.59732-0.2595 0.25798 0.14335-0.38384-0.18047-0.0271-0.0138 0.0513 0.0326 0.0781 0.0469 0.0672 0.0358 0.1358 0.0688 0.2037 0.10314 2.5827 1.1531 4.2134-2.4994 1.6307-3.6525 0.0574 0.0297 0.11523 0.0584 0.1721 0.089 0.0171 9e-3 0.0667 0.0395 0.0496 0.0304-0.30003-0.16055-0.17497-0.102-0.47601-0.22805-0.0197-8e-3 0.04 0.0148 0.0601 0.022-0.0129-5e-3 -0.0256-0.0106-0.0387-0.0148-0.70458-0.22831 0.23824 0.0784-0.2411-0.0799 0.0197 7e-3 0.0393 0.0132 0.059 0.0199 5e-3 3e-3 -0.01-3e-3 -0.0148-5e-3 -0.0562-0.0185-0.11245-0.0365-0.16859-0.0551-0.0155-5e-3 0.0622 0.0198 0.0467 0.0148-0.13399-0.0441-0.0175-4e-3 0.0839 0.0333 0.10471 0.0459 0.14442 0.0625-0.20152-0.0751-0.0214-8e-3 0.0434 0.0151 0.0652 0.0225 7e-3 3e-3 -0.0142-5e-3 -0.0214-8e-3 -0.058-0.019-0.11619-0.0373-0.17414-0.0564-0.0356-0.0116 0.0714 0.023 0.10717 0.0343-0.0948-0.0276-0.18997-0.054-0.28446-0.0827-0.15157-0.046 0.0754 0.0188 0.072 0.018-0.14423-0.038-0.0283-0.0101-0.26357-0.0597 0.075 0.0148 0.36909 0.10261 0.055 5e-3 -0.0139-4e-3 0.0276 9e-3 0.0415 0.0135 0.12264 0.0471-0.19793-0.0711-0.2154-0.0768-0.0115-4e-3 0.0224 9e-3 0.0336 0.0132-0.24014-0.0922-0.48433-0.17401-0.73174-0.24455-0.40694-0.12393-0.81313-0.25061-1.2088-0.40791-0.51691-0.20664-1.0296-0.42667-1.5217-0.68762-0.67437-0.36508-1.3372-0.75153-2.0213-1.0984-1.3825-0.70162-2.7985-1.3315-4.2109-1.9702-1.4642-0.68403-2.9217-1.3823-4.3899-2.0577-0.16029-0.0727-1.4604-0.66246-1.5836-0.71726-1.2664-0.56324-2.5479-1.0924-3.829-1.621-0.66645-0.27033-1.6186-0.6585-2.2868-0.9216-1.0883-0.42849-2.1869-0.82941-3.2819-1.2401-1.1653-0.43426-2.328-0.87948-3.4563-1.4041-0.64807-0.29948-1.3014-0.59603-1.925-0.94475-0.15989-0.0894-0.31669-0.18425-0.47412-0.27794-0.16952-0.10092-0.3378-0.20387-0.5067-0.30581-1.2036-0.74888-2.3801-1.5398-3.5825-2.2907-0.95196-0.61018-1.9076-1.2151-2.8978-1.7623-0.45169-0.26378-0.70493-0.4101-1.1565-0.6805-0.89769-0.53753-1.7839-1.0949-2.7016-1.5983-0.65505-0.357-0.90669-0.50276-1.5764-0.83322-0.896-0.4421-1.82-0.82161-2.7587-1.163-0.47078-0.16693-0.77372-0.27736-1.2477-0.43336-0.65308-0.21492-1.3142-0.40529-1.9637-0.63138-0.78664-0.25744-1.5709-0.52353-2.3393-0.83195-0.72815-0.29213-1.4361-0.63138-2.1272-1.003-0.85792-0.45394-1.7266-0.8755-2.6373-1.2149-0.29738-0.11015-0.50899-0.19265-0.81149-0.28816-0.39827-0.12573-0.81-0.2036-1.2186-0.28641-0.61118-0.11557-1.2273-0.21651-1.8237-0.39677-0.06442-0.0196-0.12884-0.0391-0.19325-0.0587-0.01307 0-0.02647 7e-3 -0.03919 3e-3 -0.18643-0.0466-0.34735-0.27135-0.50652-0.35851-0.37602-0.26712-0.5016-0.38213-0.95892-0.57626-0.77679-0.32972-1.6235-0.35906-2.4531-0.39166-0.97515-0.0512-1.9514-0.12142-2.928-0.13825-0.65545-0.0114-1.203 8e-3 -1.8516 0.0377-0.24399 0.0111-0.48778 0.0259-0.73168 0.039-0.8586 0.0641-1.717 0.13412-2.5774 0.16926-1.1434 0.0598-2.2872 0.1111-3.4311 0.16071-0.5832 0.0311-1.166 0.0664-1.7495 0.0912-0.25253 0.0156-0.50571 0.0185-0.75754 0.045-0.41769 0.0438-0.83364 0.10509-1.245 0.19028-0.43765 0.099-0.86884 0.2203-1.2983 0.35002-0.32197 0.0903-0.65037 0.1569-0.97495 0.23696-0.45867 0.0966-0.91692 0.19971-1.3824 0.25818-0.44684 0.0536-0.89495 0.0972-1.3428 0.1414-0.5308 0.0486-1.0639 0.0647-1.595 0.10874-0.96901 0.073-1.9336 0.19174-2.8912 0.35859-0.85977 0.15983-1.7225 0.31975-2.5562 0.5892-0.59671 0.18841-1.1868 0.39553-1.761 0.64545-0.54935 0.23929-1.0955 0.48625-1.6365 0.74382-0.58342 0.25819-1.1714 0.50605-1.7669 0.73518-0.65836 0.26558-1.3193 0.52403-1.9908 0.75491-0.73604 0.27077-1.4817 0.53326-2.1558 0.94114-0.10977 0.0662-0.22103 0.12991-0.32932 0.19847-0.41012 0.25961-0.79631 0.55578-1.1697 0.86529-0.23828 0.18913-0.47626 0.38158-0.73939 0.5356-0.29378 0.1751-0.58792 0.34996-0.88872 0.51276-0.37986 0.19307-0.76431 0.37769-1.1623 0.53099-0.05649 0.0212-0.64514 0.24064-0.71144 0.26398-0.51192 0.18021-1.0324 0.33533-1.5455 0.51205-0.70251 0.23688-1.4062 0.47082-2.103 0.72405-0.20364 0.078-0.20899 0.0777-0.41582 0.16719-0.02784 0.0119-0.05774 0.0209-0.08241 0.0386-0.01741 0.0124 0.03997-0.0154 0.06011-0.0228 0.0017 0-0.0031 3e-3 -0.0047 3e-3 -0.01435 5e-3 -0.0287 0.0101-0.04305 0.0151-0.15582 0.0549-0.28228 0.1016-0.43789 0.1592-0.21026 0.0855-0.42403 0.1627-0.63133 0.25551-0.33245 0.14219-0.66478 0.28467-0.9939 0.4345-2.5612 1.2-0.86409 4.8221 1.6971 3.6221z" fill="#006ab5" stroke-width=".26458"/>
   <path d="m131.05 212.53c-13.117-6.9391-24.611-10.74-37.769-12.489-2.7316-0.36314-3.8071-0.43455-8.8635-0.58856-5.7139-0.17403-5.7842-0.17295-9.9219 0.15132-3.8238 0.29967-7.542 0.72871-20.439 2.3584-2.5466 0.32179-5.4636 0.65478-6.4823 0.73998l-1.8521 0.1549-1.9503-2.0314c-2.3714-2.4699-4.4788-5.1433-6.3463-8.0506-1.2033-1.8733-3.2468-5.6401-3.1215-5.754 0.0226-0.0205 1.1424-0.68552 2.4885-1.4778 2.8944-1.7035 8.4991-4.4097 11.84-5.717 5.3323-2.0864 12.024-3.7684 17.699-4.4486 2.4533-0.29407 3.2625-0.3297 7.4894-0.3297 4.7036 0 4.7625 3e-3 7.9067 0.45676 3.8652 0.55731 6.6551 1.2162 10.599 2.503 4.3514 1.4198 7.2315 2.7646 15.042 7.0229 12.782 6.9694 24.881 12.741 36.25 17.292 3.2742 1.3108 5.9797 2.4093 6.0121 2.441 0.24794 0.24277-5.3674 5.147-7.8268 6.8356-1.6249 1.1157-5.6594 3.41-5.9623 3.3906-0.0883-6e-3 -2.2442-1.1126-4.7908-2.4598z" fill="#30a8e1" stroke-width=".13229"/>
   <path d="m168.8 164.56c-1.6383 0.89625-3.6375-0.85474-5.4127-1.4363-0.24375-0.0913-0.48878-0.17933-0.73125-0.274-0.99766-0.38955-1.9892-0.79383-2.9901-1.1756-1.3822-0.52721-1.4027-0.52655-2.8472-1.0465-1.2602-0.43048-2.5269-0.84159-3.7878-1.2699-1.5988-0.54311-2.2621-0.81733-3.8948-1.255-1.1919-0.31951-1.9451-0.44339-3.1194-0.66643-0.61117-0.18005-0.71415-0.11314-1.1021-0.45281-0.15645-0.13698-0.20162-0.30986-0.32279-0.4694-0.11385-0.14991-0.23697-0.29255-0.35546-0.43884-0.16522-0.15967-0.32153-0.32911-0.49568-0.479-0.36036-0.31014-0.71993-0.53745-1.1217-0.78907-0.60172-0.3769-1.2211-0.72096-1.8437-1.0617-2.0635-1.1382-4.222-2.0816-6.3831-3.0149-1.945-0.8364-3.8902-1.6753-5.7941-2.6027-1.1676-0.56867-2.3076-1.1659-3.4617-1.7615-2.4748-1.3014-4.9627-2.5777-7.4555-3.8441-0.54344-0.27606-1.0842-0.55755-1.6312-0.82637-0.53766-0.26421-1.0818-0.51504-1.6227-0.77253-3.3079-1.5287-6.7078-2.8436-10.076-4.2305-2.8194-1.1835-5.6752-2.2828-8.5727-3.2608-0.54502-0.18396-1.0938-0.35655-1.6408-0.5348-3.151-0.94141-6.3801-1.6467-9.6455-2.0509-0.6982-0.0864-1.3999-0.14174-2.0998-0.21259-2.7533-0.2231-5.5177-0.0891-8.2517 0.27747-1.4098 0.18896-2.1148 0.33253-3.496 0.58301-1.8604 0.36303-3.7186 0.748-5.5514 1.2343-1.1302 0.29987-1.4677 0.41309-2.564 0.74702-2.2487 0.69093-4.4179 1.6044-6.6013 2.4726-2.9956 1.1954-5.997 2.3764-8.9895 3.5797-0.54613 0.22651-1.0956 0.44526-1.6384 0.67955-1.1333 0.48919-2.0321 0.904-3.1199 1.4922-0.87537 0.47331-2.1875 1.259-3.0328 1.8044-0.43983 0.28379-0.86749 0.58602-1.3012 0.87905-1.8101 1.2656-3.3782 2.8269-5.008 4.3074-1.1334 1.0312-2.3055 2.0185-3.4382 3.0504-0.73071 0.62568-1.3626 1.3518-2.0077 2.062-0.57024 0.52591-0.97868 1.1574-1.3572 1.8267-0.19439 0.34959-0.36305 0.71159-0.53288 1.0734-0.02329 0.0514-0.04729 0.1025-0.06988 0.1542-0.07008 0.16047-0.13569 0.32236-0.1996 0.48532-0.0047 0.0122 0.0087-0.0243 0.01306-0.0366-0.0887 0.22646 0.20751 0.26032 0.1176 0.5533-0.73109 2.7323 2.8831 3.6031 3.6142 0.87079-0.04703 0.13634-0.02487 0.0834-0.05952 0.16156 0.06769-0.1637 0.13182-0.32896 0.20564-0.49014 0.12671-0.27041 0.24912-0.54184 0.39361-0.80357 0.09225-0.1633 0.21566-0.43704 0.33675-0.57867 0.06755-0.079 0.14232-0.15155 0.21382-0.22701 0.09488-0.10015 0.19021-0.19984 0.28531-0.29977 0.5608-0.61741 1.1047-1.2539 1.742-1.7958 1.1299-1.0312 2.3027-2.0142 3.4327-3.0455 1.4893-1.3531 2.9191-2.7836 4.561-3.9559 0.3879-0.26331 0.77011-0.53522 1.1637-0.78997 0.73253-0.4741 1.9789-1.2253 2.742-1.6408 0.99106-0.53957 1.801-0.9143 2.8383-1.3623 0.52941-0.22865 1.0653-0.44204 1.5979-0.66304 2.9877-1.2015 5.9844-2.3805 8.9753-3.574 2.0813-0.82775 4.148-1.7014 6.2904-2.3636 1.0054-0.30723 1.3379-0.41841 2.3732-0.69395 1.7464-0.46482 3.5176-0.83071 5.2904-1.1778 1.6666-0.30374 3.3344-0.60386 5.0233-0.75827 1.8645-0.17047 3.7425-0.19669 5.61-0.0577 0.64036 0.0635 1.2824 0.11237 1.9211 0.19058 3.0411 0.37245 6.0489 1.0254 8.9847 1.8962 3.359 1.093 6.6784 2.3063 9.9291 3.691 3.3025 1.3598 6.6359 2.649 9.8809 4.144 0.51105 0.24283 1.0253 0.47903 1.5332 0.72856 0.54446 0.26752 1.0826 0.54768 1.6235 0.82243 2.4866 1.2632 4.9681 2.5363 7.4366 3.8345 1.234 0.63669 2.3409 1.2171 3.5889 1.8243 1.9442 0.94602 3.9296 1.8038 5.9155 2.6575 2.0481 0.88434 4.0956 1.7742 6.0513 2.853 0.78602 0.42839 1.5737 0.86342 2.3058 1.3802 0.5262 0.58512-0.60873-0.68845 0.47685 0.62561 0.1764 0.21351 0.35377 0.42878 0.55914 0.6146 0.87423 0.79102 1.9244 1.2606 3.075 1.4906 0.95952 0.17995 1.7589 0.31393 2.7154 0.5682 1.5468 0.41116 2.2294 0.69215 3.7713 1.2159 1.2326 0.41873 2.4707 0.82117 3.7031 1.2405 1.3923 0.50075 1.4206 0.50311 2.7566 1.0126 1.0173 0.38801 2.0243 0.80179 3.0396 1.1944 0.29387 0.11363 0.59096 0.21875 0.88645 0.32816 1.939 0.62984 3.9167 1.131 5.9087 1.5636 2.779 0.52623 3.2831-5.319 0.80176-3.9616z" fill="#fff" stroke-width=".26458"/>
   <path d="m163 181.14c-3.6533-0.82226-6.0309-1.6267-11.84-4.0062-4.0228-1.6477-5.3398-2.2271-8.2682-3.637-9.2387-4.4482-14.843-7.2677-18.952-9.5352-1.0739-0.59257-1.9779-1.0774-2.0089-1.0774-0.031 0-1.1268-0.59531-2.4352-1.3229-1.3084-0.7276-2.4141-1.3229-2.4572-1.3229-0.0431 0-1.1344-0.61448-2.4252-1.3655-3.5702-2.0772-9.2976-5.2527-11.105-6.1568-6.1841-3.094-11.112-4.7748-17.105-5.8343l-3.1089-0.54957-6.2177 0.0465c-6.0248 0.045-6.2836 0.0575-8.3411 0.40271-4.1975 0.70424-7.7481 1.6065-11.767 2.9902-3.0116 1.0368-3.4529 1.2156-7.5033 3.0402-2.8642 1.2902-3.6501 1.6957-6.3873 3.296-3.1269 1.8281-6.5759 4.051-8.3448 5.3782-0.78243 0.58707-1.5167 1.1269-1.6316 1.1997-0.49486 0.3132-1.3025 0.93742-1.7314 1.3382-0.45399 0.42421-0.92722 0.78638-1.8521 1.4175-0.25466 0.17377-0.66472 0.50472-0.91125 0.73545-0.24653 0.23073-0.62449 0.54502-0.83991 0.69841-0.21543 0.1534-0.50229 0.46079-0.63748 0.6831-0.17443 0.28682-0.26564 0.34872-0.31411 0.21317-0.1089-0.30451-0.98618-5.2267-1.2637-7.0902l-0.25313-1.6998 0.29015-0.19844c0.15958-0.10914 1.1249-0.97234 2.1451-1.9182 5.813-5.3893 8.0931-7.2334 13.514-10.929 2.9267-1.9956 4.116-2.7486 6.2624-3.9651 6.7067-3.801 14.341-6.6919 21.435-8.1169 4.0771-0.81895 4.9029-0.89789 10.086-0.96419 5.228-0.0669 6.5331 8e-3 9.7993 0.56248 4.9285 0.83661 9.5032 2.1338 13.381 3.7943 3.2012 1.3708 9.5915 4.6233 14.983 7.6262 0.6732 0.37493 1.2514 0.6817 1.2849 0.6817 0.0335 0 0.73284 0.36673 1.5541 0.81495 1.9996 1.0913 8.1884 4.2121 8.353 4.2121 0.072 0 0.22622 0.0863 0.34278 0.19179s1.9072 1.0029 3.9792 1.9943c2.072 0.99137 4.1179 1.9766 4.5465 2.1894 0.4286 0.21283 0.86589 0.38696 0.97177 0.38696 0.10587 0 0.35052 0.10678 0.54365 0.23729 0.19314 0.13051 0.9167 0.49126 1.6079 0.80166 0.69122 0.3104 1.4253 0.6501 1.6313 0.75489s0.4515 0.19053 0.54558 0.19053c0.0941 0 0.43768 0.14902 0.76355 0.33115 0.32587 0.18214 0.91905 0.44351 1.3182 0.58083 0.39912 0.13731 0.83949 0.31307 0.97859 0.39056 0.36436 0.20298 4.1254 1.8725 4.2183 1.8725 0.0429 0 0.29935 0.0975 0.56986 0.21656 0.46927 0.20662 2.0061 0.7898 3.1377 1.1906 0.29104 0.1031 0.64823 0.24376 0.79375 0.31258 0.14552 0.0688 0.50271 0.20999 0.79375 0.31371s1.3328 0.48752 2.3151 0.85289c1.4919 0.55496 5.0228 1.6947 8.6651 2.797 0.68469 0.20721 2.7682 0.69852 3.7548 0.8854 0.29595 0.0561 0.31041 0.10069 0.23603 0.72873-0.0436 0.36796-0.51979 2.1722-0.6678 2.423-0.148 0.25085 0.0504-0.61741 0.0504-0.34315 0 0.90392-1.0649 4.3648-2.7828 9.0443l-0.9592 2.6128-0.54332-0.0126c-0.29883-7e-3 -1.2875-0.18005-2.197-0.38475z" fill="#00a49a" stroke-width=".13229"/>
  </g>
 </g>
</svg>
